STARTFONT 2.3
FONT -FontForge-Monofett-Book-R-Normal--36-360-72-72-P-200-ISO10646-1
SIZE 36 72 72  4
FONTBOUNDINGBOX 25 42 -1 -6
COMMENT "Generated by fontforge, http://fontforge.sourceforge.net"
COMMENT "Copyright (c) 2011 by vernon adams. All rights reserved."
STARTPROPERTIES 41
FOUNDRY "FontForge"
FAMILY_NAME "Monofett"
WEIGHT_NAME "Book"
SLANT "R"
SETWIDTH_NAME "Normal"
ADD_STYLE_NAME ""
PIXEL_SIZE 36
POINT_SIZE 360
RESOLUTION_X 72
RESOLUTION_Y 72
SPACING "P"
AVERAGE_WIDTH 200
CHARSET_REGISTRY "ISO10646"
CHARSET_ENCODING "1"
FONTNAME_REGISTRY ""
CHARSET_COLLECTIONS "ISO8859-2 ISO8859-9 ISO8859-4 ISO10646-1"
BITS_PER_PIXEL 4
FONT_NAME "Monofett"
FACE_NAME "Monofett"
COPYRIGHT "Copyright (c) 2011 by vernon adams. All rights reserved."
FONT_VERSION "1.000"
FONT_ASCENT 29
FONT_DESCENT 7
UNDERLINE_POSITION -5
UNDERLINE_THICKNESS 1
X_HEIGHT 24
CAP_HEIGHT 24
RAW_ASCENT 799
RAW_DESCENT 200
NORM_SPACE 5
RELATIVE_WEIGHT 40
RELATIVE_SETWIDTH 50
SUPERSCRIPT_X 0
SUPERSCRIPT_Y 17
SUPERSCRIPT_SIZE 23
SUBSCRIPT_X 0
SUBSCRIPT_Y 5
SUBSCRIPT_SIZE 23
FIGURE_WIDTH 21
AVG_LOWERCASE_WIDTH 210
AVG_UPPERCASE_WIDTH 210
ENDPROPERTIES
CHARS 409
STARTCHAR uni000D
ENCODING 13
SWIDTH 144 0
DWIDTH 5 0
BBX 1 1 0 0
BITMAP
00
ENDCHAR
STARTCHAR space
ENCODING 32
SWIDTH 144 0
DWIDTH 5 0
BBX 1 1 0 0
BITMAP
00
ENDCHAR
STARTCHAR exclam
ENCODING 33
SWIDTH 424 0
DWIDTH 15 0
BBX 17 25 -1 0
BITMAP
000000001000000000
000028CFFFD9300000
0007FFFC88FFF91000
008FFFF901FFFFB000
03FFFFFA02FFFFF700
0AFFFFFB03FFFFFE00
0EFFFFFC04FFFFFF30
1FFFFFFD05FFFFFF50
1FFFFFFE06FFFFFF50
1FFFFFFE07FFFFFF50
1FFFFFFF08FFFFFF50
1FFFFFFF19FFFFFF50
1FFFFFFF29FFFFFF50
1FFFFFFF3AFFFFFF50
1FFFFFFFFFFFFFFF50
1FFFFFFE68FFFFFF50
1FFFFFFD02FFFFFF50
1FFFFFFEBBFFFFFF50
1FFFFFFFFFFFFFFF50
0EFFFFFFFFFFFFFF30
0AFFFFFFFFFFFFFE00
03FFFFFFFFFFFFF700
007FFFFFFFFFFFA000
0006EFFFFFFFF80000
000017BEFEC8200000
ENDCHAR
STARTCHAR quotedbl
ENCODING 34
SWIDTH 424 0
DWIDTH 15 0
BBX 17 25 -1 0
BITMAP
000000001000000000
000028CFFFD9300000
0007FFD8CA8EF91000
008FFFB0850EFFB000
03FFFFB0850EFFF700
0AFFFFB0850EFFFE00
0EFFFFB0850EFFFF30
1FFFFFFFFFFFFFFF50
1FFFFFFFFFFFFFFF50
1FFFFFFFFFFFFFFF50
1FFFFFFFFFFFFFFF50
1FFFFFFFFFFFFFFF50
1FFFFFFFFFFFFFFF50
1FFFFFFFFFFFFFFF50
1FFFFFFFFFFFFFFF50
1FFFFFFFFFFFFFFF50
1FFFFFFFFFFFFFFF50
1FFFFFFFFFFFFFFF50
1FFFFFFFFFFFFFFF50
0EFFFFFFFFFFFFFF30
0AFFFFFFFFFFFFFE00
03FFFFFFFFFFFFF700
007FFFFFFFFFFFA000
0006EFFFFFFFF80000
000017BEFEC8200000
ENDCHAR
STARTCHAR numbersign
ENCODING 35
SWIDTH 482 0
DWIDTH 17 0
BBX 19 25 -1 0
BITMAP
00000000111000000000
000028CFFFFFEA400000
0007FFFFFFFFFFFB1000
008FFFFFFFFFFFFFC100
03FFFFFC38F53FFFF900
0AFFFFF908F11FFFFF10
0EFFFFA4047017FFFF50
1FFFFF40000002FFFF60
1FFFFFB309804BFFFF70
1FFFFFF30EA07FFFFF70
1FFFFFF21F909FFFFF70
1FFFFFF02F70AFFFFF70
1FFFFC3013102BFFFF70
1FFFFA0000000CFFFF70
1FFFFFA07E20EFFFFF70
1FFFFF909F12FFFFFF70
1FFFFFDADFABFFFFFF70
1FFFFFFFFFFFFFFFFF70
1FFFFFFFFFFFFFFFFF60
0EFFFFFFFFFFFFFFFF50
0AFFFFFFFFFFFFFFFF10
03FFFFFFFFFFFFFFF800
007FFFFFFFFFFFFFC100
0006EFFFFFFFFFFA1000
000017BEFFFEC9300000
ENDCHAR
STARTCHAR dollar
ENCODING 36
SWIDTH 578 0
DWIDTH 21 0
BBX 22 25 -1 0
BITMAP
0000000011111110000000
000028CFFFFFFFFFB71000
0007FFFFFFF8CFFFFFE500
008FFFFFFFD09EFFFFFF50
03FFFFF920000017FFFFE1
0AFFFFC0023023009FFFF7
0EFFFF907FE09FA06FFFFC
1FFFFF809FE09FEBDFFFFD
1FFFFF808FE09FFFFFFFFD
1FFFFFA0388059BEFFFFFD
1FFFFFE300000003EFFFFD
1FFFFFFEB98058309FFFFD
1FFFFFFFFFE09F907FFFFD
1FFFFFDBDFE09FA07FFFFD
1FFFFF906FE09F807FFFFD
1FFFFFC002202200AFFFFD
1FFFFFF920000017FFFFFD
1FFFFFFFFFE09FFFFFFFFD
1FFFFFFFFFE09FFFFFFFFD
0EFFFFFFFFFDEFFFFFFFFB
0AFFFFFFFFFFFFFFFFFFF7
03FFFFFFFFFFFFFFFFFFE1
007FFFFFFFFFFFFFFFFF40
0006EFFFFFFFFFFFFFD400
000017BEFFFFFFFDA60000
ENDCHAR
STARTCHAR percent
ENCODING 37
SWIDTH 578 0
DWIDTH 21 0
BBX 22 25 -1 0
BITMAP
0000000011111110000000
000028CFFFFFFFFFB71000
0007FFFFFFFFFFFFFFE500
008FFB779FFFAAEFFFFF50
03FF900005FF20DFFFFFE1
0AFF309A10FD03FFFFFFF7
0EFF30FF30F907FFFFFFFC
1FFF405601F40CFFFFFFFD
1FFFC1000AE01FFFFFFFFD
1FFFFEBBEFA06FFFFFFFFD
1FFFFFFFFF60AFB87AFFFD
1FFFFFFFFF20E900006FFD
1FFFFFFFFC04F408A10EFD
1FFFFFFFF809F30EF40DFD
1FFFFFFFF30DF405710EFD
1FFFFFFFE03FFC10008FFD
1FFFFFFFFEDFFFEBBCFFFD
1FFFFFFFFFFFFFFFFFFFFD
1FFFFFFFFFFFFFFFFFFFFD
0EFFFFFFFFFFFFFFFFFFFB
0AFFFFFFFFFFFFFFFFFFF7
03FFFFFFFFFFFFFFFFFFE1
007FFFFFFFFFFFFFFFFF40
0006EFFFFFFFFFFFFFD400
000017BEFFFFFFFDA60000
ENDCHAR
STARTCHAR ampersand
ENCODING 38
SWIDTH 578 0
DWIDTH 21 0
BBX 22 25 -1 0
BITMAP
0000000011111110000000
000028CFFFFFFFFFB71000
0007FFFFEA88889DFFE500
008FFFFE3000000AFFFF50
03FFFFF9049AA98FFFFFE1
0AFFFFF709FFFFFFFFFFF7
0EFFFFF70AFFFFFFFFFFFC
1FFFFFF809FFFFF11FFFFD
1FFFFFFD14AAAAA11AEFFD
1FFFFFFFC100000004FFFD
1FFFFFFE326777700EFFFD
1FFFFFF809FFFFF11FFFFD
1FFFFFF70AFFFFF11FFFFD
1FFFFFF70AFFFFF11FFFFD
1FFFFFF808FFFFE02FFFFD
1FFFFFFB002332104FFFFD
1FFFFFFF81000013EFFFFD
1FFFFFFFFFFFFFFFFFFFFD
1FFFFFFFFFFFFFFFFFFFFD
0EFFFFFFFFFFFFFFFFFFFB
0AFFFFFFFFFFFFFFFFFFF7
03FFFFFFFFFFFFFFFFFFE1
007FFFFFFFFFFFFFFFFF40
0006EFFFFFFFFFFFFFD400
000017BEFFFFFFFDA60000
ENDCHAR
STARTCHAR quotesingle
ENCODING 39
SWIDTH 424 0
DWIDTH 15 0
BBX 17 25 -1 0
BITMAP
000000001000000000
000028CFFFD9300000
0007FFFE8AFFF91000
008FFFFD05FFFFB000
03FFFFFD05FFFFF700
0AFFFFFD05FFFFFE00
0EFFFFFD05FFFFFF30
1FFFFFFFFFFFFFFF50
1FFFFFFFFFFFFFFF50
1FFFFFFFFFFFFFFF50
1FFFFFFFFFFFFFFF50
1FFFFFFFFFFFFFFF50
1FFFFFFFFFFFFFFF50
1FFFFFFFFFFFFFFF50
1FFFFFFFFFFFFFFF50
1FFFFFFFFFFFFFFF50
1FFFFFFFFFFFFFFF50
1FFFFFFFFFFFFFFF50
1FFFFFFFFFFFFFFF50
0EFFFFFFFFFFFFFF30
0AFFFFFFFFFFFFFE00
03FFFFFFFFFFFFF700
007FFFFFFFFFFFA000
0006EFFFFFFFF80000
000017BEFEC8200000
ENDCHAR
STARTCHAR parenleft
ENCODING 40
SWIDTH 483 0
DWIDTH 17 0
BBX 19 25 -1 0
BITMAP
00000000111000000000
000028CFFFFFEA400000
0007FFFFA877EFFB2000
008FFFF60000DFFFD100
03FFFFE019AAEFFFFA00
0AFFFFD04FFFFFFFFF10
0EFFFFD05FFFFFFFFF50
1FFFFFD05FFFFFFFFF70
1FFFFFD05FFFFFFFFF70
1FFFFFD05FFFFFFFFF70
1FFFFFD05FFFFFFFFF70
1FFFFFD05FFFFFFFFF70
1FFFFFD05FFFFFFFFF70
1FFFFFD05FFFFFFFFF70
1FFFFFD05FFFFFFFFF70
1FFFFFD05FFFFFFFFF70
1FFFFFD04FFFFFFFFF70
1FFFFFF00577EFFFFF70
1FFFFFF90000DFFFFF70
0EFFFFFFDBBBEFFFFF50
0AFFFFFFFFFFFFFFFF10
03FFFFFFFFFFFFFFF900
007FFFFFFFFFFFFFC100
0006EFFFFFFFFFFA1000
000017BEFFFEC9300000
ENDCHAR
STARTCHAR parenright
ENCODING 41
SWIDTH 483 0
DWIDTH 17 0
BBX 19 25 -1 0
BITMAP
00000000111000000000
000028CFFFFFEA400000
0007FFF9779DFFFB2000
008FFFF40002DFFFD100
03FFFFFCAA408FFFFA00
0AFFFFFFFFB06FFFFF10
0EFFFFFFFFB06FFFFF50
1FFFFFFFFFB06FFFFF70
1FFFFFFFFFB06FFFFF70
1FFFFFFFFFB06FFFFF70
1FFFFFFFFFB06FFFFF70
1FFFFFFFFFB06FFFFF70
1FFFFFFFFFB06FFFFF70
1FFFFFFFFFB06FFFFF70
1FFFFFFFFFB06FFFFF70
1FFFFFFFFFB06FFFFF70
1FFFFFFFFFA07FFFFF70
1FFFFFF976208FFFFF70
1FFFFFF40003EFFFFF70
0EFFFFFCBBCFFFFFFF50
0AFFFFFFFFFFFFFFFF10
03FFFFFFFFFFFFFFF900
007FFFFFFFFFFFFFC100
0006EFFFFFFFFFFA1000
000017BEFFFEC9300000
ENDCHAR
STARTCHAR asterisk
ENCODING 42
SWIDTH 428 0
DWIDTH 15 0
BBX 17 25 -1 0
BITMAP
000000001000000000
000028CFFFEA400000
0007FFFBEFDCFB1000
008FFF905F30BFD100
03FFFFE10603FFF900
0AFFFBB60008BCFF10
0EFFF200000003FF50
1FFFF764000468FF70
1FFFFFF40205FFFF70
1FFFFFA02E10CFFF70
1FFFFFE6BFA7EFFF70
1FFFFFFFFFFFFFFF70
1FFFFFFFFFFFFFFF70
1FFFFFFFFFFFFFFF70
1FFFFFFFFFFFFFFF70
1FFFFFFFFFFFFFFF70
1FFFFFFFFFFFFFFF70
1FFFFFFFFFFFFFFF70
1FFFFFFFFFFFFFFF70
0EFFFFFFFFFFFFFF50
0AFFFFFFFFFFFFFF10
03FFFFFFFFFFFFF900
007FFFFFFFFFFFC100
0006EFFFFFFFFA1000
000017BEFEC9300000
ENDCHAR
STARTCHAR plus
ENCODING 43
SWIDTH 428 0
DWIDTH 15 0
BBX 17 25 -1 0
BITMAP
000000001000000000
000028CFFFEA400000
0007FFFE79FFFB1000
008FFFFE04FFFFD100
03FFFFFE04FFFFF900
0AFFEEED03EEEFFF10
0EFF800000000CFF50
1FFF933301333DFF70
1FFFFFFE04FFFFFF70
1FFFFFFE04FFFFFF70
1FFFFFFE04FFFFFF70
1FFFFFFFCDFFFFFF70
1FFFFFFFFFFFFFFF70
1FFFFFFFFFFFFFFF70
1FFFFFFFFFFFFFFF70
1FFFFFFFFFFFFFFF70
1FFFFFFFFFFFFFFF70
1FFFFFFFFFFFFFFF70
1FFFFFFFFFFFFFFF70
0EFFFFFFFFFFFFFF50
0AFFFFFFFFFFFFFF10
03FFFFFFFFFFFFF900
007FFFFFFFFFFFC100
0006EFFFFFFFFA1000
000017BEFEC9300000
ENDCHAR
STARTCHAR comma
ENCODING 44
SWIDTH 428 0
DWIDTH 15 0
BBX 17 25 -1 0
BITMAP
000000001000000000
000028CFFFEA400000
0007FFFFFFFFFB1000
008FFFFFFFFFFFD100
03FFFFFFFFFFFFF900
0AFFFFFFFFFFFFFF10
0EFFFFFFFFFFFFFF50
1FFFFFFFFFFFFFFF70
1FFFFFFFFFFFFFFF70
1FFFFFFFFFFFFFFF70
1FFFFFFFFFFFFFFF70
1FFFFFFFFFFFFFFF70
1FFFFFFFFFFFFFFF70
1FFFFFFFFFFFFFFF70
1FFFFFFDCCEFFFFF70
1FFFFFF800CFFFFF70
1FFFFFF800CFFFFF70
1FFFFFFF71EFFFFF70
1FFFFFFF37FFFFFF70
0EFFFFFFEEFFFFFF50
0AFFFFFFFFFFFFFF10
03FFFFFFFFFFFFF900
007FFFFFFFFFFFC100
0006EFFFFFFFFA1000
000017BEFEC9300000
ENDCHAR
STARTCHAR hyphen
ENCODING 45
SWIDTH 428 0
DWIDTH 15 0
BBX 17 25 -1 0
BITMAP
000000001000000000
000028CFFFEA400000
0007FFFFFFFFFB1000
008FFFFFFFFFFFD100
03FFFFFFFFFFFFF900
0AFFFFFFFFFFFFFF10
0EFFFFFFFFFFFFFF50
1FFFF6000000FFFF70
1FFFF7222222FFFF70
1FFFFFFFFFFFFFFF70
1FFFFFFFFFFFFFFF70
1FFFFFFFFFFFFFFF70
1FFFFFFFFFFFFFFF70
1FFFFFFFFFFFFFFF70
1FFFFFFFFFFFFFFF70
1FFFFFFFFFFFFFFF70
1FFFFFFFFFFFFFFF70
1FFFFFFFFFFFFFFF70
1FFFFFFFFFFFFFFF70
0EFFFFFFFFFFFFFF50
0AFFFFFFFFFFFFFF10
03FFFFFFFFFFFFF900
007FFFFFFFFFFFC100
0006EFFFFFFFFA1000
000017BEFEC9300000
ENDCHAR
STARTCHAR period
ENCODING 46
SWIDTH 428 0
DWIDTH 15 0
BBX 17 25 -1 0
BITMAP
000000001000000000
000028CFFFEA400000
0007FFFFFFFFFB1000
008FFFFFFFFFFFD100
03FFFFFFFFFFFFF900
0AFFFFFFFFFFFFFF10
0EFFFFFFFFFFFFFF50
1FFFFFFFFFFFFFFF70
1FFFFFFFFFFFFFFF70
1FFFFFFFFFFFFFFF70
1FFFFFFFFFFFFFFF70
1FFFFFFFFFFFFFFF70
1FFFFFFFFFFFFFFF70
1FFFFFFFFFFFFFFF70
1FFFFFFDCCFFFFFF70
1FFFFFF802FFFFFF70
1FFFFFF802FFFFFF70
1FFFFFFFFFFFFFFF70
1FFFFFFFFFFFFFFF70
0EFFFFFFFFFFFFFF50
0AFFFFFFFFFFFFFF10
03FFFFFFFFFFFFF900
007FFFFFFFFFFFC100
0006EFFFFFFFFA1000
000017BEFEC9300000
ENDCHAR
STARTCHAR slash
ENCODING 47
SWIDTH 428 0
DWIDTH 15 0
BBX 17 25 -1 0
BITMAP
000000001000000000
000028CFFFEA400000
0007FFFFFFFFFB1000
008FFFFFD14FFFD100
03FFFFFFB06FFFF900
0AFFFFFF808FFFFF10
0EFFFFFF60BFFFFF50
1FFFFFFF30DFFFFF70
1FFFFFFF11FFFFFF70
1FFFFFFD03FFFFFF70
1FFFFFFB06FFFFFF70
1FFFFFF808FFFFFF70
1FFFFFF60BFFFFFF70
1FFFFFF30DFFFFFF70
1FFFFFF11FFFFFFF70
1FFFFFD03FFFFFFF70
1FFFFFB06FFFFFFF70
1FFFFFC7BFFFFFFF70
1FFFFFFFFFFFFFFF70
0EFFFFFFFFFFFFFF50
0AFFFFFFFFFFFFFF10
03FFFFFFFFFFFFF900
007FFFFFFFFFFFC100
0006EFFFFFFFFA1000
000017BEFEC9300000
ENDCHAR
STARTCHAR zero
ENCODING 48
SWIDTH 578 0
DWIDTH 21 0
BBX 22 25 -1 0
BITMAP
0000000011111110000000
000028CFFFFFFFFFB71000
0007FFFEA888888ADFE500
008FFFF4000000002DFF50
03FFFFB039AAAA9508FFE1
0AFFFFA08FFFFFFB06FFF7
0EFFFF908FFFFFFC06FFFC
1FFFFF908FFFFFFC06FFFD
1FFFFF908FFFFFFC06FFFD
1FFFFF908FFFFFFC06FFFD
1FFFFF908FFFFFFC06FFFD
1FFFFF908FFFFFFC06FFFD
1FFFFF908FFFFFFC06FFFD
1FFFFF908FFFFFFC06FFFD
1FFFFFA06FFFFFFA06FFFD
1FFFFFD00233332009FFFD
1FFFFFFA200000017FFFFD
1FFFFFFFFFFFFFFFFFFFFD
1FFFFFFFFFFFFFFFFFFFFD
0EFFFFFFFFFFFFFFFFFFFB
0AFFFFFFFFFFFFFFFFFFF7
03FFFFFFFFFFFFFFFFFFE1
007FFFFFFFFFFFFFFFFF40
0006EFFFFFFFFFFFFFD400
000017BEFFFFFFFDA60000
ENDCHAR
STARTCHAR one
ENCODING 49
SWIDTH 578 0
DWIDTH 21 0
BBX 22 25 -1 0
BITMAP
0000000011111110000000
000028CFFFFFFFFFB71000
0007FFFFFFB78FFFFFE500
008FFFFFC1002FFFFFFF50
03FFFFFFB1502FFFFFFFE1
0AFFFFFFEFF02FFFFFFFF7
0EFFFFFFFFF02FFFFFFFFC
1FFFFFFFFFF02FFFFFFFFD
1FFFFFFFFFF02FFFFFFFFD
1FFFFFFFFFF02FFFFFFFFD
1FFFFFFFFFF02FFFFFFFFD
1FFFFFFFFFF02FFFFFFFFD
1FFFFFFFFFF02FFFFFFFFD
1FFFFFFFFFF02FFFFFFFFD
1FFFFFFFFFF02FFFFFFFFD
1FFFFFFFFFF02FFFFFFFFD
1FFFFFFFFFF02FFFFFFFFD
1FFFFFFFFFFFFFFFFFFFFD
1FFFFFFFFFFFFFFFFFFFFD
0EFFFFFFFFFFFFFFFFFFFB
0AFFFFFFFFFFFFFFFFFFF7
03FFFFFFFFFFFFFFFFFFE1
007FFFFFFFFFFFFFFFFF40
0006EFFFFFFFFFFFFFD400
000017BEFFFFFFFDA60000
ENDCHAR
STARTCHAR two
ENCODING 50
SWIDTH 578 0
DWIDTH 21 0
BBX 22 25 -1 0
BITMAP
0000000011111110000000
000028CFFFFFFFFFB71000
0007FFFFA888888BFFE500
008FFFF4000000007FFF50
03FFFFC039AAAA810EFFE1
0AFFFFB38FFFFFF40CFFF7
0EFFFFFFFFFFFFF50CFFFC
1FFFFFFFFFFFFFF50CFFFD
1FFFFFFFFFFFFFE20DFFFD
1FFFFFFD732222002FFFFD
1FFFFFE101222238EFFFFD
1FFFFFB05FFFFFFFFFFFFD
1FFFFFA08FFFFFFFFFFFFD
1FFFFFA08FFFFFFFFFFFFD
1FFFFFA08FFFFFFFFFFFFD
1FFFFFA0233333338FFFFD
1FFFFFE4000000006FFFFD
1FFFFFFFFFFFFFFFFFFFFD
1FFFFFFFFFFFFFFFFFFFFD
0EFFFFFFFFFFFFFFFFFFFB
0AFFFFFFFFFFFFFFFFFFF7
03FFFFFFFFFFFFFFFFFFE1
007FFFFFFFFFFFFFFFFF40
0006EFFFFFFFFFFFFFD400
000017BEFFFFFFFDA60000
ENDCHAR
STARTCHAR three
ENCODING 51
SWIDTH 578 0
DWIDTH 21 0
BBX 22 25 -1 0
BITMAP
0000000011111110000000
000028CFFFFFFFFFB71000
0007FFFC9888889CFFE500
008FFFA0000000009FFF50
03FFFF20799999702FFFE1
0AFFFF32FFFFFFF20FFFF7
0EFFFFFFFFFFFFF20FFFFC
1FFFFFFFFFFFFFF20FFFFD
1FFFFFFFFEEEEEC02FFFFD
1FFFFFFFD00000006FFFFD
1FFFFFFFE77777503FFFFD
1FFFFFFFFFFFFFF20FFFFD
1FFFFFFFFFFFFFF20FFFFD
1FFFFFCBFFFFFFF20FFFFD
1FFFFF10EFFFFFF11FFFFD
1FFFFF40133333103FFFFD
1FFFFFD300000003DFFFFD
1FFFFFFFFEEEEEFFFFFFFD
1FFFFFFFFFFFFFFFFFFFFD
0EFFFFFFFFFFFFFFFFFFFB
0AFFFFFFFFFFFFFFFFFFF7
03FFFFFFFFFFFFFFFFFFE1
007FFFFFFFFFFFFFFFFF40
0006EFFFFFFFFFFFFFD400
000017BEFFFFFFFDA60000
ENDCHAR
STARTCHAR four
ENCODING 52
SWIDTH 578 0
DWIDTH 21 0
BBX 22 25 -1 0
BITMAP
0000000011111110000000
000028CFFFFFFFFFB71000
0007FFFA8EFFFB8CFFE500
008FFFF50CFFF80AFFFF50
03FFFFF50CFFF80AFFFFE1
0AFFFFF50CFFF80AFFFFF7
0EFFFFF50CFFF80AFFFFFC
1FFFFFF50CFFF80AFFFFFD
1FFFFFF50CFFF80AFFFFFD
1FFFFFF50CFFF80AFFFFFD
1FFFFFF50CFFF80AFFFFFD
1FFFFFF706BCC607BBFFFD
1FFFFFFC1000000000EFFD
1FFFFFFFC766630466EFFD
1FFFFFFFFFFFF80AFFFFFD
1FFFFFFFFFFFF80AFFFFFD
1FFFFFFFFFFFF80AFFFFFD
1FFFFFFFFFFFFFFFFFFFFD
1FFFFFFFFFFFFFFFFFFFFD
0EFFFFFFFFFFFFFFFFFFFB
0AFFFFFFFFFFFFFFFFFFF7
03FFFFFFFFFFFFFFFFFFE1
007FFFFFFFFFFFFFFFFF40
0006EFFFFFFFFFFFFFD400
000017BEFFFFFFFDA60000
ENDCHAR
STARTCHAR five
ENCODING 53
SWIDTH 578 0
DWIDTH 21 0
BBX 22 25 -1 0
BITMAP
0000000011111110000000
000028CFFFFFFFFFB71000
0007FFFD88888888AFE500
008FFFE1000000004FFF50
03FFFFD03AAAAAAABFFFE1
0AFFFFD04FFFFFFFFFFFF7
0EFFFFD04FFFFFFFFFFFFC
1FFFFFD04FFFFFFFFFFFFD
1FFFFFD024222235CFFFFD
1FFFFFD0000000001DFFFD
1FFFFFECCDFFFFE609FFFD
1FFFFFFFFFFFFFF908FFFD
1FFFFFFFFFFFFFF908FFFD
1FFFFFFFFFFFFFF908FFFD
1FFFFFD55FFFFFF709FFFD
1FFFFFF1023333200CFFFD
1FFFFFFC300000029FFFFD
1FFFFFFFFFFFFFFFFFFFFD
1FFFFFFFFFFFFFFFFFFFFD
0EFFFFFFFFFFFFFFFFFFFB
0AFFFFFFFFFFFFFFFFFFF7
03FFFFFFFFFFFFFFFFFFE1
007FFFFFFFFFFFFFFFFF40
0006EFFFFFFFFFFFFFD400
000017BEFFFFFFFDA60000
ENDCHAR
STARTCHAR six
ENCODING 54
SWIDTH 578 0
DWIDTH 21 0
BBX 22 25 -1 0
BITMAP
0000000011111110000000
000028CFFFFFFFFFB71000
0007FFFFB988888ADFE500
008FFFF7000000005FFF50
03FFFFF0177777659FFFE1
0AFFFFD04FFFFFFFFFFFF7
0EFFFFD04FFFFFFFFFFFFC
1FFFFFD04FFFFFFFFFFFFD
1FFFFFD0132222237FFFFD
1FFFFFD00000000007FFFD
1FFFFFD02EFFFFFC03FFFD
1FFFFFD04FFFFFFF02FFFD
1FFFFFD04FFFFFFF02FFFD
1FFFFFD04FFFFFFF02FFFD
1FFFFFD02FFFFFFD02FFFD
1FFFFFF10233333106FFFD
1FFFFFFC200000014EFFFD
1FFFFFFFFFFFFFFFFFFFFD
1FFFFFFFFFFFFFFFFFFFFD
0EFFFFFFFFFFFFFFFFFFFB
0AFFFFFFFFFFFFFFFFFFF7
03FFFFFFFFFFFFFFFFFFE1
007FFFFFFFFFFFFFFFFF40
0006EFFFFFFFFFFFFFD400
000017BEFFFFFFFDA60000
ENDCHAR
STARTCHAR seven
ENCODING 55
SWIDTH 578 0
DWIDTH 21 0
BBX 22 25 -1 0
BITMAP
0000000011111110000000
000028CFFFFFFFFFB71000
0007FFFFA8888888FFE500
008FFFFF60000000FFFF50
03FFFFFFCAAAA703FFFFE1
0AFFFFFFFFFFF608FFFFF7
0EFFFFFFFFFFF10DFFFFFC
1FFFFFFFFFFFB04FFFFFFD
1FFFFFFFFFFF509FFFFFFD
1FFFFFFFFFFE10EFFFFFFD
1FFFFFFFFFF904FFFFFFFD
1FFFFFFFFFF40AFFFFFFFD
1FFFFFFFFFD01EFFFFFFFD
1FFFFFFFFF805FFFFFFFFD
1FFFFFFFFF20BFFFFFFFFD
1FFFFFFFFC01FFFFFFFFFD
1FFFFFFFF706FFFFFFFFFD
1FFFFFFFFFFFFFFFFFFFFD
1FFFFFFFFFFFFFFFFFFFFD
0EFFFFFFFFFFFFFFFFFFFB
0AFFFFFFFFFFFFFFFFFFF7
03FFFFFFFFFFFFFFFFFFE1
007FFFFFFFFFFFFFFFFF40
0006EFFFFFFFFFFFFFD400
000017BEFFFFFFFDA60000
ENDCHAR
STARTCHAR eight
ENCODING 56
SWIDTH 578 0
DWIDTH 21 0
BBX 22 25 -1 0
BITMAP
0000000011111110000000
000028CFFFFFFFFFB71000
0007FFFEA888888AEFE500
008FFFE3000000002EFF50
03FFFFA039AAAA9409FFE1
0AFFFF809FFFFFFA07FFF7
0EFFFF809FFFFFFB07FFFC
1FFFFF809FFFFFFA07FFFD
1FFFFFA04AAAAAA408FFFD
1FFFFFE0000000000DFFFD
1FFFFFA02677776209FFFD
1FFFFF808FFFFFFA07FFFD
1FFFFF809FFFFFFB07FFFD
1FFFFF809FFFFFFB07FFFD
1FFFFF807FFFFFF807FFFD
1FFFFFB0023333200AFFFD
1FFFFFF9200000018FFFFD
1FFFFFFFFFFFFFFFFFFFFD
1FFFFFFFFFFFFFFFFFFFFD
0EFFFFFFFFFFFFFFFFFFFB
0AFFFFFFFFFFFFFFFFFFF7
03FFFFFFFFFFFFFFFFFFE1
007FFFFFFFFFFFFFFFFF40
0006EFFFFFFFFFFFFFD400
000017BEFFFFFFFDA60000
ENDCHAR
STARTCHAR nine
ENCODING 57
SWIDTH 578 0
DWIDTH 21 0
BBX 22 25 -1 0
BITMAP
0000000011111110000000
000028CFFFFFFFFFB71000
0007FFFD9888888AEFE500
008FFFC1000000004FFF50
03FFFF605AAAAA920CFFE1
0AFFFF50CFFFFFF70AFFF7
0EFFFF40CFFFFFF70AFFFC
1FFFFF40CFFFFFF70AFFFD
1FFFFF50CFFFFFF70AFFFD
1FFFFF70488888720AFFFD
1FFFFFD2000000000AFFFD
1FFFFFFEB99999950AFFFD
1FFFFFFFFFFFFFF70AFFFD
1FFFFFFFFFFFFFF70AFFFD
1FFFFFFEDFFFFFF60BFFFD
1FFFFFF9000000000DFFFD
1FFFFFF920000002AFFFFD
1FFFFFFFFFFFFFFFFFFFFD
1FFFFFFFFFFFFFFFFFFFFD
0EFFFFFFFFFFFFFFFFFFFB
0AFFFFFFFFFFFFFFFFFFF7
03FFFFFFFFFFFFFFFFFFE1
007FFFFFFFFFFFFFFFFF40
0006EFFFFFFFFFFFFFD400
000017BEFFFFFFFDA60000
ENDCHAR
STARTCHAR colon
ENCODING 58
SWIDTH 428 0
DWIDTH 15 0
BBX 17 25 -1 0
BITMAP
000000001000000000
000028CFFFEA400000
0007FFFFFFFFFB1000
008FFFFFFFFFFFD100
03FFFFFFFFFFFFF900
0AFFFFFFFFFFFFFF10
0EFFFFFFFFFFFFFF50
1FFFFFFFFFFFFFFF70
1FFFFFFFFFFFFFFF70
1FFFFFFDBBFFFFFF70
1FFFFFF802FFFFFF70
1FFFFFF902FFFFFF70
1FFFFFFFFFFFFFFF70
1FFFFFFFFFFFFFFF70
1FFFFFFDCCFFFFFF70
1FFFFFF802FFFFFF70
1FFFFFF802FFFFFF70
1FFFFFFFFFFFFFFF70
1FFFFFFFFFFFFFFF70
0EFFFFFFFFFFFFFF50
0AFFFFFFFFFFFFFF10
03FFFFFFFFFFFFF900
007FFFFFFFFFFFC100
0006EFFFFFFFFA1000
000017BEFEC9300000
ENDCHAR
STARTCHAR semicolon
ENCODING 59
SWIDTH 428 0
DWIDTH 15 0
BBX 17 25 -1 0
BITMAP
000000001000000000
000028CFFFEA400000
0007FFFFFFFFFB1000
008FFFFFFFFFFFD100
03FFFFFFFFFFFFF900
0AFFFFFFFFFFFFFF10
0EFFFFFFFFFFFFFF50
1FFFFFFFFFFFFFFF70
1FFFFFFFFFFFFFFF70
1FFFFFFEBBEFFFFF70
1FFFFFFD00DFFFFF70
1FFFFFFD00DFFFFF70
1FFFFFFFFFFFFFFF70
1FFFFFFFFFFFFFFF70
1FFFFFFDCCEFFFFF70
1FFFFFF800CFFFFF70
1FFFFFF800CFFFFF70
1FFFFFFF71EFFFFF70
1FFFFFFF37FFFFFF70
0EFFFFFFEEFFFFFF50
0AFFFFFFFFFFFFFF10
03FFFFFFFFFFFFF900
007FFFFFFFFFFFC100
0006EFFFFFFFFA1000
000017BEFEC9300000
ENDCHAR
STARTCHAR less
ENCODING 60
SWIDTH 482 0
DWIDTH 17 0
BBX 19 27 -1 1
BITMAP
00000014566420000000
00004BFFFFFFFC600000
0008FFFFFFFFFFFC2000
008FFFFFFFFFFFFFD100
03FFFFFFFFFFFFFFF900
0AFFFFFFFFFFFFFFFF10
0EFFFFFFFFFFFFFFFF50
1FFFFFFFFFE6EFFFFF60
1FFFFFFFFF43FFFFFF70
1FFFFFFFF62EFFFFFF70
1FFFFFFF81DFFFFFFF70
1FFFFFFA1CFFFFFFFF70
1FFFFFC1AFFFFFFFFF70
1FFFFE18FFFFFFFFFF70
1FFFFE28FFFFFFFFFF70
1FFFFFC1AFFFFFFFFF70
1FFFFFFB1BFFFFFFFF70
1FFFFFFF91DFFFFFFF70
1FFFFFFFF72EFFFFFF70
1FFFFFFFFF53EFFFFF60
0EFFFFFFFFF7EFFFFF40
09FFFFFFFFFFFFFFFE10
03FFFFFFFFFFFFFFF800
007FFFFFFFFFFFFFC100
0006EFFFFFFFFFFA1000
000029EFFFFFEA400000
00000002444200000000
ENDCHAR
STARTCHAR equal
ENCODING 61
SWIDTH 482 0
DWIDTH 17 0
BBX 19 27 -1 1
BITMAP
00000014566520000000
00003AFFFFFFFD600000
0008FFFFFFFFFFFC2000
008FFFFFFFFFFFFFD100
03FFFFFFFFFFFFFFF900
0AFFFFFFFFFFFFFFFF10
0EFFFFFFFFFFFFFFFF50
1FFFFFFFFFFFFFFFFF60
1FFFFFFFFFFFFFFFFF70
1FFFFFFFFFFFFFFFFF70
1FFFFFFFFFFFFFFFFF70
1FFFFF91111119FFFF70
1FFFFFECCCCCCEFFFF70
1FFFFFFFFFFFFFFFFF70
1FFFFFC888888CFFFF70
1FFFFFB555555AFFFF70
1FFFFFFFFFFFFFFFFF70
1FFFFFFFFFFFFFFFFF70
1FFFFFFFFFFFFFFFFF70
1FFFFFFFFFFFFFFFFF60
0EFFFFFFFFFFFFFFFF40
0AFFFFFFFFFFFFFFFF10
03FFFFFFFFFFFFFFF800
007FFFFFFFFFFFFFC100
0007FFFFFFFFFFFA1000
000029EFFFFFFB400000
00000002454310000000
ENDCHAR
STARTCHAR greater
ENCODING 62
SWIDTH 482 0
DWIDTH 17 0
BBX 19 27 -1 1
BITMAP
00000014566520000000
00003AFFFFFFFD600000
0008FFFFFFFFFFFC2000
008FFFFFFFFFFFFFD100
03FFFFFFFFFFFFFFF900
0AFFFFFFFFFFFFFFFF10
0EFFFFFFFFFFFFFFFF50
1FFFFFF8BFFFFFFFFF60
1FFFFFF81DFFFFFFFF70
1FFFFFFF72EFFFFFFF70
1FFFFFFFF53EFFFFFF70
1FFFFFFFFE35FFFFFF70
1FFFFFFFFFE27FFFFF70
1FFFFFFFFFFD19FFFF70
1FFFFFFFFFFC19FFFF70
1FFFFFFFFFE27FFFFF70
1FFFFFFFFE35FFFFFF70
1FFFFFFFF44FFFFFFF70
1FFFFFFF62EFFFFFFF70
1FFFFFF81DFFFFFFFF60
0EFFFFF9CFFFFFFFFF40
0AFFFFFFFFFFFFFFFF10
03FFFFFFFFFFFFFFF800
007FFFFFFFFFFFFFC100
0007FFFFFFFFFFFA1000
000029EFFFFFFB400000
00000002454310000000
ENDCHAR
STARTCHAR question
ENCODING 63
SWIDTH 578 0
DWIDTH 21 0
BBX 22 25 -1 0
BITMAP
0000000011111110000000
000028CFFFFFFFFFB71000
0007FFFFFDBAAABDFFE500
008FFFFF600000007FFF50
03FFFFFC07ABBCC60EFFE1
0AFFFFFC5DFFFFFB0BFFF7
0EFFFFFFFFFFFFFB0BFFFC
1FFFFFFFFFFFFFFB0BFFFD
1FFFFFFFFFFFFFFA0CFFFD
1FFFFFFFFFFEA9840EFFFD
1FFFFFFFFFF600009FFFFD
1FFFFFFFFFF43CDFFFFFFD
1FFFFFFFFFF44FFFFFFFFD
1FFFFFFFFFF44FFFFFFFFD
1FFFFFFFFFFEEFFFFFFFFD
1FFFFFFFFFF22FFFFFFFFD
1FFFFFFFFFF33FFFFFFFFD
1FFFFFFFFFFFFFFFFFFFFD
1FFFFFFFFFFFFFFFFFFFFD
0EFFFFFFFFFFFFFFFFFFFB
0AFFFFFFFFFFFFFFFFFFF7
03FFFFFFFFFFFFFFFFFFE1
007FFFFFFFFFFFFFFFFF40
0006EFFFFFFFFFFFFFD400
000017BEFFFFFFFDA60000
ENDCHAR
STARTCHAR at
ENCODING 64
SWIDTH 578 0
DWIDTH 21 0
BBX 22 25 -1 0
BITMAP
0000000011111110000000
000028CFFFFFFFFFB71000
0007FFFEA855456AFFE500
008FFF71001222002CFF50
03FFF4039EFFFFE911CFE1
0AFFA06FFFEDDFFFD15FF7
0EFF51EFC200007FF70EFC
1FFF33FFE8BCB70AFB0BFD
1FFF34FFFFFFFE07FD0AFD
1FFF34FFFFFDEE06FD09FD
1FFF34FFD2000106FD09FD
1FFF34FF23899706FD09FD
1FFF34FC07FFFE06FD09FD
1FFF53FF22899706FD09FD
1FFF61FFD3101434FB0BFD
1FFFA0CFFFFFFFB0112EFD
1FFFE13DFFFFFFFBBBDFFD
1FFFFA004677AFFFFFFFFD
1FFFFFC532117FFFFFFFFD
0EFFFFFFFFFFFFFFFFFFFB
0AFFFFFFFFFFFFFFFFFFF7
03FFFFFFFFFFFFFFFFFFE1
007FFFFFFFFFFFFFFFFF40
0006EFFFFFFFFFFFFFD400
000017BEFFFFFFFDA60000
ENDCHAR
STARTCHAR A
ENCODING 65
SWIDTH 578 0
DWIDTH 21 0
BBX 22 25 -1 0
BITMAP
0000000011111110000000
000028CFFFFFFFFFB71000
0007FFFFEB9889BEFFE500
008FFFFE20000003EFFF50
03FFFFF8048AA8309FFFE1
0AFFFFF70AFFFF907FFFF7
0EFFFFF50CFFFFA06FFFFC
1FFFFFF30DFFFFC04FFFFD
1FFFFFF20EFFFFE03FFFFD
1FFFFFF01FFFFFF01FFFFD
1FFFFFE0000000000EFFFD
1FFFFFC0155555510DFFFD
1FFFFFA05FFFFFF50BFFFD
1FFFFF907FFFFFF60AFFFD
1FFFFF708FFFFFF808FFFD
1FFFFF509FFFFFF906FFFD
1FFFFF40AFFFFFFA05FFFD
1FFFFFFFFFFFFFFFFFFFFD
1FFFFFFFFFFFFFFFFFFFFD
0EFFFFFFFFFFFFFFFFFFFB
0AFFFFFFFFFFFFFFFFFFF7
03FFFFFFFFFFFFFFFFFFE1
007FFFFFFFFFFFFFFFFF40
0006EFFFFFFFFFFFFFD400
000017BEFFFFFFFDA60000
ENDCHAR
STARTCHAR B
ENCODING 66
SWIDTH 578 0
DWIDTH 21 0
BBX 22 25 -1 0
BITMAP
0000000011111110000000
000028CFFFFFFFFFB71000
0007FFA88888889CFFE500
008FFF6000000000AFFF50
03FFFF607AAAA9703FFFE1
0AFFFF60BFFFFFD01FFFF7
0EFFFF60BFFFFFE01FFFFC
1FFFFF60BFFFFFF01FFFFD
1FFFFF607AAAAA704FFFFD
1FFFFF6000000004EFFFFD
1FFFFF60577777505FFFFD
1FFFFF60BFFFFFF11FFFFD
1FFFFF60BFFFFFF11FFFFD
1FFFFF60BFFFFFF11FFFFD
1FFFFF60BFFFFFE02FFFFD
1FFFFF60233332104FFFFD
1FFFFF6000000013EFFFFD
1FFFFFFFFFFFFFFFFFFFFD
1FFFFFFFFFFFFFFFFFFFFD
0EFFFFFFFFFFFFFFFFFFFB
0AFFFFFFFFFFFFFFFFFFF7
03FFFFFFFFFFFFFFFFFFE1
007FFFFFFFFFFFFFFFFF40
0006EFFFFFFFFFFFFFD400
000017BEFFFFFFFDA60000
ENDCHAR
STARTCHAR C
ENCODING 67
SWIDTH 578 0
DWIDTH 21 0
BBX 22 25 -1 0
BITMAP
0000000011111110000000
000028CFFFFFFFFFB71000
0007FFFE9888889BFFE500
008FFFE200000003FFFF50
03FFFF9049AAAA89FFFFE1
0AFFFF70AFFFFFFFFFFFF7
0EFFFF70AFFFFFFFFFFFFC
1FFFFF70AFFFFFFFFFFFFD
1FFFFF70AFFFFFFFFFFFFD
1FFFFF70AFFFFFFFFFFFFD
1FFFFF70AFFFFFFFFFFFFD
1FFFFF70AFFFFFFFFFFFFD
1FFFFF70AFFFFFFFFFFFFD
1FFFFF70AFFFFFFFFFFFFD
1FFFFF808FFFFFFFFFFFFD
1FFFFFB002333315FFFFFD
1FFFFFF810000014FFFFFD
1FFFFFFFFFFFFFFFFFFFFD
1FFFFFFFFFFFFFFFFFFFFD
0EFFFFFFFFFFFFFFFFFFFB
0AFFFFFFFFFFFFFFFFFFF7
03FFFFFFFFFFFFFFFFFFE1
007FFFFFFFFFFFFFFFFF40
0006EFFFFFFFFFFFFFD400
000017BEFFFFFFFDA60000
ENDCHAR
STARTCHAR D
ENCODING 68
SWIDTH 578 0
DWIDTH 21 0
BBX 22 25 -1 0
BITMAP
0000000011111110000000
000028CFFFFFFFFFB71000
0007FFD888888889DFE500
008FFFC0000000001CFF50
03FFFFC04AAAAA9606FFE1
0AFFFFC06FFFFFFD04FFF7
0EFFFFC06FFFFFFE04FFFC
1FFFFFC06FFFFFFE04FFFD
1FFFFFC06FFFFFFE04FFFD
1FFFFFC06FFFFFFE04FFFD
1FFFFFC06FFFFFFE04FFFD
1FFFFFC06FFFFFFE04FFFD
1FFFFFC06FFFFFFE04FFFD
1FFFFFC06FFFFFFE04FFFD
1FFFFFC06FFFFFFC04FFFD
1FFFFFC01333332007FFFD
1FFFFFC0000000015FFFFD
1FFFFFFFFFFFFFFFFFFFFD
1FFFFFFFFFFFFFFFFFFFFD
0EFFFFFFFFFFFFFFFFFFFB
0AFFFFFFFFFFFFFFFFFFF7
03FFFFFFFFFFFFFFFFFFE1
007FFFFFFFFFFFFFFFFF40
0006EFFFFFFFFFFFFFD400
000017BEFFFFFFFDA60000
ENDCHAR
STARTCHAR E
ENCODING 69
SWIDTH 578 0
DWIDTH 21 0
BBX 22 25 -1 0
BITMAP
0000000011111110000000
000028CFFFFFFFFFB71000
0007FFFF88888888AFE500
008FFFFF100000005FFF50
03FFFFFF11AAAAAABFFFE1
0AFFFFFF12FFFFFFFFFFF7
0EFFFFFF12FFFFFFFFFFFC
1FFFFFFF12FFFFFFFFFFFD
1FFFFFFF11DDDDDDFFFFFD
1FFFFFFF10000004FFFFFD
1FFFFFFF10444447FFFFFD
1FFFFFFF12FFFFFFFFFFFD
1FFFFFFF12FFFFFFFFFFFD
1FFFFFFF12FFFFFFFFFFFD
1FFFFFFF12FFFFFFFFFFFD
1FFFFFFF103333334FFFFD
1FFFFFFF100000001FFFFD
1FFFFFFFFFFFFFFFFFFFFD
1FFFFFFFFFFFFFFFFFFFFD
0EFFFFFFFFFFFFFFFFFFFB
0AFFFFFFFFFFFFFFFFFFF7
03FFFFFFFFFFFFFFFFFFE1
007FFFFFFFFFFFFFFFFF40
0006EFFFFFFFFFFFFFD400
000017BEFFFFFFFDA60000
ENDCHAR
STARTCHAR F
ENCODING 70
SWIDTH 578 0
DWIDTH 21 0
BBX 22 25 -1 0
BITMAP
0000000011111110000000
000028CFFFFFFFFFB71000
0007FFFF88888888AFE500
008FFFFF000000004FFF50
03FFFFFF01AAAAAABFFFE1
0AFFFFFF02FFFFFFFFFFF7
0EFFFFFF02FFFFFFFFFFFC
1FFFFFFF02FFFFFFFFFFFD
1FFFFFFF0188888AFFFFFD
1FFFFFFF00000004FFFFFD
1FFFFFFF0199999BFFFFFD
1FFFFFFF02FFFFFFFFFFFD
1FFFFFFF02FFFFFFFFFFFD
1FFFFFFF02FFFFFFFFFFFD
1FFFFFFF02FFFFFFFFFFFD
1FFFFFFF02FFFFFFFFFFFD
1FFFFFFF02FFFFFFFFFFFD
1FFFFFFFFFFFFFFFFFFFFD
1FFFFFFFFFFFFFFFFFFFFD
0EFFFFFFFFFFFFFFFFFFFB
0AFFFFFFFFFFFFFFFFFFF7
03FFFFFFFFFFFFFFFFFFE1
007FFFFFFFFFFFFFFFFF40
0006EFFFFFFFFFFFFFD400
000017BEFFFFFFFDA60000
ENDCHAR
STARTCHAR G
ENCODING 71
SWIDTH 578 0
DWIDTH 21 0
BBX 22 25 -1 0
BITMAP
0000000011111110000000
000028CFFFFFFFFFB71000
0007FFFFC9888889BFE500
008FFFFA000000003FFF50
03FFFFF207AAAAA89FFFE1
0AFFFFF01FFFFFFFFFFFF7
0EFFFFF02FFFFFFFFFFFFC
1FFFFFF02FFFFFFFFFFFFD
1FFFFFF02FFFFFFFFFFFFD
1FFFFFF02FFFD9999AFFFD
1FFFFFF02FFFA00004FFFD
1FFFFFF02FFFC88704FFFD
1FFFFFF02FFFFFFD04FFFD
1FFFFFF02FFFFFFD04FFFD
1FFFFFF10EFFFFFB05FFFD
1FFFFFF40133332008FFFD
1FFFFFFE410000016FFFFD
1FFFFFFFFFFFFFFFFFFFFD
1FFFFFFFFFFFFFFFFFFFFD
0EFFFFFFFFFFFFFFFFFFFB
0AFFFFFFFFFFFFFFFFFFF7
03FFFFFFFFFFFFFFFFFFE1
007FFFFFFFFFFFFFFFFF40
0006EFFFFFFFFFFFFFD400
000017BEFFFFFFFDA60000
ENDCHAR
STARTCHAR H
ENCODING 72
SWIDTH 578 0
DWIDTH 21 0
BBX 22 25 -1 0
BITMAP
0000000011111110000000
000028CFFFFFFFFFB71000
0007FFD8AFFFFFFF89E500
008FFFC06FFFFFFE04FF50
03FFFFC06FFFFFFE04FFE1
0AFFFFC06FFFFFFE04FFF7
0EFFFFC06FFFFFFE04FFFC
1FFFFFC06FFFFFFE04FFFD
1FFFFFC04AAAAAA904FFFD
1FFFFFC00000000004FFFD
1FFFFFC03888888704FFFD
1FFFFFC06FFFFFFE04FFFD
1FFFFFC06FFFFFFE04FFFD
1FFFFFC06FFFFFFE04FFFD
1FFFFFC06FFFFFFE04FFFD
1FFFFFC06FFFFFFE04FFFD
1FFFFFC06FFFFFFE04FFFD
1FFFFFFFFFFFFFFFFFFFFD
1FFFFFFFFFFFFFFFFFFFFD
0EFFFFFFFFFFFFFFFFFFFB
0AFFFFFFFFFFFFFFFFFFF7
03FFFFFFFFFFFFFFFFFFE1
007FFFFFFFFFFFFFFFFF40
0006EFFFFFFFFFFFFFD400
000017BEFFFFFFFDA60000
ENDCHAR
STARTCHAR I
ENCODING 73
SWIDTH 578 0
DWIDTH 21 0
BBX 22 25 -1 0
BITMAP
0000000011111110000000
000028CFFFFFFFFFB71000
0007FFFA888888888CE500
008FFFF40000000008FF50
03FFFFFBAAA406AAADFFE1
0AFFFFFFFFF70AFFFFFFF7
0EFFFFFFFFF70AFFFFFFFC
1FFFFFFFFFF70AFFFFFFFD
1FFFFFFFFFF70AFFFFFFFD
1FFFFFFFFFF70AFFFFFFFD
1FFFFFFFFFF70AFFFFFFFD
1FFFFFFFFFF70AFFFFFFFD
1FFFFFFFFFF70AFFFFFFFD
1FFFFFFFFFF70AFFFFFFFD
1FFFFFFFFFF70AFFFFFFFD
1FFFFFF63331023339FFFD
1FFFFFF40000000008FFFD
1FFFFFFFFFFFFFFFFFFFFD
1FFFFFFFFFFFFFFFFFFFFD
0EFFFFFFFFFFFFFFFFFFFB
0AFFFFFFFFFFFFFFFFFFF7
03FFFFFFFFFFFFFFFFFFE1
007FFFFFFFFFFFFFFFFF40
0006EFFFFFFFFFFFFFD400
000017BEFFFFFFFDA60000
ENDCHAR
STARTCHAR J
ENCODING 74
SWIDTH 578 0
DWIDTH 21 0
BBX 22 25 -1 0
BITMAP
0000000011111110000000
000028CFFFFFFFFFB71000
0007FFFFFFFFF89FFFE500
008FFFFFFFFFF03FFFFF50
03FFFFFFFFFFF03FFFFFE1
0AFFFFFFFFFFF03FFFFFF7
0EFFFFFFFFFFF03FFFFFFC
1FFFFFFFFFFFF03FFFFFFD
1FFFFFFFFFFFF03FFFFFFD
1FFFFFFFFFFFF03FFFFFFD
1FFFFFFFFFFFF03FFFFFFD
1FFFFFFFFFFFF03FFFFFFD
1FFFFFFFFFFFF03FFFFFFD
1FFFFFFFFFFFF03FFFFFFD
1FFFFFFFFFFFD03FFFFFFD
1FFFFFFFF332003FFFFFFD
1FFFFFFFF00014EFFFFFFD
1FFFFFFFFFFFFFFFFFFFFD
1FFFFFFFFFFFFFFFFFFFFD
0EFFFFFFFFFFFFFFFFFFFB
0AFFFFFFFFFFFFFFFFFFF7
03FFFFFFFFFFFFFFFFFFE1
007FFFFFFFFFFFFFFFFF40
0006EFFFFFFFFFFFFFD400
000017BEFFFFFFFDA60000
ENDCHAR
STARTCHAR K
ENCODING 75
SWIDTH 578 0
DWIDTH 21 0
BBX 22 25 -1 0
BITMAP
0000000011111110000000
000028CFFFFFFFFFB71000
0007FFFF98FFFFFFB5E500
008FFFFF30FFFFFB00AF50
03FFFFFF30FFFFB007FFE1
0AFFFFFF30FFFB008FFFF7
0EFFFFFF30FFA008FFFFFC
1FFFFFFF30FA008FFFFFFD
1FFFFFFF30A008FFFFFFFD
1FFFFFFF30004FFFFFFFFD
1FFFFFFF301109FFFFFFFD
1FFFFFFF30CB00AFFFFFFD
1FFFFFFF30FFA01CFFFFFD
1FFFFFFF30FFF701DFFFFD
1FFFFFFF30FFFF502EFFFD
1FFFFFFF30FFFFF303EFFD
1FFFFFFF30FFFFFE24EFFD
1FFFFFFFFFFFFFFFDFFFFD
1FFFFFFFFFFFFFFFFFFFFD
0EFFFFFFFFFFFFFFFFFFFB
0AFFFFFFFFFFFFFFFFFFF7
03FFFFFFFFFFFFFFFFFFE1
007FFFFFFFFFFFFFFFFF40
0006EFFFFFFFFFFFFFD400
000017BEFFFFFFFDA60000
ENDCHAR
STARTCHAR L
ENCODING 76
SWIDTH 578 0
DWIDTH 21 0
BBX 22 25 -1 0
BITMAP
0000000011111110000000
000028CFFFFFFFFFB71000
0007FFFFE89FFFFFFFE500
008FFFFFD04FFFFFFFFF50
03FFFFFFD04FFFFFFFFFE1
0AFFFFFFD04FFFFFFFFFF7
0EFFFFFFD04FFFFFFFFFFC
1FFFFFFFD04FFFFFFFFFFD
1FFFFFFFD04FFFFFFFFFFD
1FFFFFFFD04FFFFFFFFFFD
1FFFFFFFD04FFFFFFFFFFD
1FFFFFFFD04FFFFFFFFFFD
1FFFFFFFD04FFFFFFFFFFD
1FFFFFFFD04FFFFFFFFFFD
1FFFFFFFD04FFFFFFFFFFD
1FFFFFFFD0133333DFFFFD
1FFFFFFFD0000000DFFFFD
1FFFFFFFFFFFFFFFFFFFFD
1FFFFFFFFFFFFFFFFFFFFD
0EFFFFFFFFFFFFFFFFFFFB
0AFFFFFFFFFFFFFFFFFFF7
03FFFFFFFFFFFFFFFFFFE1
007FFFFFFFFFFFFFFFFF40
0006EFFFFFFFFFFFFFD400
000017BEFFFFFFFDA60000
ENDCHAR
STARTCHAR M
ENCODING 77
SWIDTH 578 0
DWIDTH 21 0
BBX 22 25 -1 0
BITMAP
0000000011111110000000
000028CFFFFFFFFFB71000
0007FFD9888DD8889DE500
008FFC100004300002DF50
03FFF805AA9019A9409FE1
0AFFF809FFF02FFF809FF7
0EFFF809FFF02FFF809FFC
1FFFF809FFF02FFF809FFD
1FFFF809FFF02FFF809FFD
1FFFF809FFF02FFF809FFD
1FFFF809FFF02FFF809FFD
1FFFF809FFF02FFF809FFD
1FFFF809FFFFFFFF809FFD
1FFFF809FFFFFFFF809FFD
1FFFF809FFFFFFFF809FFD
1FFFF809FFFFFFFF809FFD
1FFFF809FFFFFFFF809FFD
1FFFFFFFFFFFFFFFFFFFFD
1FFFFFFFFFFFFFFFFFFFFD
0EFFFFFFFFFFFFFFFFFFFB
0AFFFFFFFFFFFFFFFFFFF7
03FFFFFFFFFFFFFFFFFFE1
007FFFFFFFFFFFFFFFFF40
0006EFFFFFFFFFFFFFD400
000017BEFFFFFFFDA60000
ENDCHAR
STARTCHAR N
ENCODING 78
SWIDTH 578 0
DWIDTH 21 0
BBX 22 25 -1 0
BITMAP
0000000011111110000000
000028CFFFFFFFFFB71000
0007FFFCA888888AEFE500
008FFFA0000000004EFF50
03FFFFA039AAAA930BFFE1
0AFFFFA07FFFFFF709FFF7
0EFFFFA07FFFFFF809FFFC
1FFFFFA07FFFFFF809FFFD
1FFFFFA07FFFFFF809FFFD
1FFFFFA07FFFFFF809FFFD
1FFFFFA07FFFFFF809FFFD
1FFFFFA07FFFFFF809FFFD
1FFFFFA07FFFFFF809FFFD
1FFFFFA07FFFFFF809FFFD
1FFFFFA07FFFFFF809FFFD
1FFFFFA07FFFFFF809FFFD
1FFFFFA07FFFFFF809FFFD
1FFFFFFFFFFFFFFFFFFFFD
1FFFFFFFFFFFFFFFFFFFFD
0EFFFFFFFFFFFFFFFFFFFB
0AFFFFFFFFFFFFFFFFFFF7
03FFFFFFFFFFFFFFFFFFE1
007FFFFFFFFFFFFFFFFF40
0006EFFFFFFFFFFFFFD400
000017BEFFFFFFFDA60000
ENDCHAR
STARTCHAR O
ENCODING 79
SWIDTH 578 0
DWIDTH 21 0
BBX 22 25 -1 0
BITMAP
0000000011111110000000
000028CFFFFFFFFFB71000
0007FFFFA8888889DFE500
008FFFF5000000001CFF50
03FFFFD028AAAA9506FFE1
0AFFFFB06FFFFFFD04FFF7
0EFFFFB07FFFFFFD04FFFC
1FFFFFB07FFFFFFD04FFFD
1FFFFFB07FFFFFFD04FFFD
1FFFFFB07FFFFFFD04FFFD
1FFFFFB07FFFFFFD04FFFD
1FFFFFB07FFFFFFD04FFFD
1FFFFFB07FFFFFFD04FFFD
1FFFFFB07FFFFFFD04FFFD
1FFFFFC04FFFFFFB05FFFD
1FFFFFE00233332008FFFD
1FFFFFFB200000015FFFFD
1FFFFFFFFFFFFFFFFFFFFD
1FFFFFFFFFFFFFFFFFFFFD
0EFFFFFFFFFFFFFFFFFFFB
0AFFFFFFFFFFFFFFFFFFF7
03FFFFFFFFFFFFFFFFFFE1
007FFFFFFFFFFFFFFFFF40
0006EFFFFFFFFFFFFFD400
000017BEFFFFFFFDA60000
ENDCHAR
STARTCHAR P
ENCODING 80
SWIDTH 578 0
DWIDTH 21 0
BBX 22 25 -1 0
BITMAP
0000000011111110000000
000028CFFFFFFFFFB71000
0007FFFC8888888AFFE500
008FFFF9000000004FFF50
03FFFFF905AAAA920CFFE1
0AFFFFF908FFFFF70AFFF7
0EFFFFF908FFFFF70AFFFC
1FFFFFF908FFFFF70AFFFD
1FFFFFF908FFFFF70AFFFD
1FFFFFF908FFFFE40BFFFD
1FFFFFF9000000001EFFFD
1FFFFFF901222235CFFFFD
1FFFFFF908FFFFFFFFFFFD
1FFFFFF908FFFFFFFFFFFD
1FFFFFF908FFFFFFFFFFFD
1FFFFFF908FFFFFFFFFFFD
1FFFFFF908FFFFFFFFFFFD
1FFFFFFFFFFFFFFFFFFFFD
1FFFFFFFFFFFFFFFFFFFFD
0EFFFFFFFFFFFFFFFFFFFB
0AFFFFFFFFFFFFFFFFFFF7
03FFFFFFFFFFFFFFFFFFE1
007FFFFFFFFFFFFFFFFF40
0006EFFFFFFFFFFFFFD400
000017BEFFFFFFFDA60000
ENDCHAR
STARTCHAR Q
ENCODING 81
SWIDTH 578 0
DWIDTH 21 0
BBX 22 25 -1 0
BITMAP
0000000011111110000000
000028CFFFFFFFFFB71000
0007FFFFB8888889DFE500
008FFFF6000000001CFF50
03FFFFD028AAAA9606FFE1
0AFFFFC06FFFFFFD04FFF7
0EFFFFC06FFFFFFE04FFFC
1FFFFFC06FFFFFFE04FFFD
1FFFFFC06FFFFFFE04FFFD
1FFFFFC06FFFFFFE04FFFD
1FFFFFC06FFFFFFE04FFFD
1FFFFFC06FFFFFFE04FFFD
1FFFFFC06FFFFFFE04FFFD
1FFFFFC06FFE7BFE04FFFD
1FFFFFC04FFB03FC04FFFD
1FFFFFE10132002007FFFD
1FFFFFFB200000015FFFFD
1FFFFFFFFFFFF40AFFFFFD
1FFFFFFFFFFFFB03FFFFFD
0EFFFFFFFFFFFF7CFFFFFB
0AFFFFFFFFFFFFFFFFFFF7
03FFFFFFFFFFFFFFFFFFE1
007FFFFFFFFFFFFFFFFF40
0006EFFFFFFFFFFFFFD400
000017BEFFFFFFFDA60000
ENDCHAR
STARTCHAR R
ENCODING 82
SWIDTH 578 0
DWIDTH 21 0
BBX 22 25 -1 0
BITMAP
0000000011111110000000
000028CFFFFFFFFFB71000
0007FFF88888889DFFE500
008FFFF100000002EFFF50
03FFFFF11AAAA9307FFFE1
0AFFFFF11FFFFFC05FFFF7
0EFFFFF11FFFFFD04FFFFC
1FFFFFF11FFFFFD04FFFFD
1FFFFFF11FFFFF908FFFFD
1FFFFFF104444417EFFFFD
1FFFFFF100000039EFFFFD
1FFFFFF11CCCCB508FFFFD
1FFFFFF11FFFFFE03FFFFD
1FFFFFF11FFFFFF02FFFFD
1FFFFFF11FFFFFF02FFFFD
1FFFFFF11FFFFFF02FFFFD
1FFFFFF11FFFFFF02FFFFD
1FFFFFFFFFFFFFFFFFFFFD
1FFFFFFFFFFFFFFFFFFFFD
0EFFFFFFFFFFFFFFFFFFFB
0AFFFFFFFFFFFFFFFFFFF7
03FFFFFFFFFFFFFFFFFFE1
007FFFFFFFFFFFFFFFFF40
0006EFFFFFFFFFFFFFD400
000017BEFFFFFFFDA60000
ENDCHAR
STARTCHAR S
ENCODING 83
SWIDTH 578 0
DWIDTH 21 0
BBX 22 25 -1 0
BITMAP
0000000011111110000000
000028CFFFFFFFFFB71000
0007FFFFC9888889BFE500
008FFFFB000000004FFF50
03FFFFF4069AAAA79FFFE1
0AFFFFF20FFFFFFFFFFFF7
0EFFFFF20FFFFFFFFFFFFC
1FFFFFF20FFFFFFFFFFFFD
1FFFFFF408BBBBBDFFFFFD
1FFFFFF9000000006FFFFD
1FFFFFFFB87777610BFFFD
1FFFFFFFFFFFFFF709FFFD
1FFFFFFFFFFFFFF809FFFD
1FFFFFFFFFFFFFF809FFFD
1FFFFFFFEFFFFFF609FFFD
1FFFFFFE023333200CFFFD
1FFFFFFB200000029FFFFD
1FFFFFFFFFFFFFFFFFFFFD
1FFFFFFFFFFFFFFFFFFFFD
0EFFFFFFFFFFFFFFFFFFFB
0AFFFFFFFFFFFFFFFFFFF7
03FFFFFFFFFFFFFFFFFFE1
007FFFFFFFFFFFFFFFFF40
0006EFFFFFFFFFFFFFD400
000017BEFFFFFFFDA60000
ENDCHAR
STARTCHAR T
ENCODING 84
SWIDTH 578 0
DWIDTH 21 0
BBX 22 25 -1 0
BITMAP
0000000011111110000000
000028CFFFFFFFFFB71000
0007FFFA888888888CE500
008FFFF40000000008FF50
03FFFFFBAAA406AAADFFE1
0AFFFFFFFFF70AFFFFFFF7
0EFFFFFFFFF70AFFFFFFFC
1FFFFFFFFFF70AFFFFFFFD
1FFFFFFFFFF70AFFFFFFFD
1FFFFFFFFFF70AFFFFFFFD
1FFFFFFFFFF70AFFFFFFFD
1FFFFFFFFFF70AFFFFFFFD
1FFFFFFFFFF70AFFFFFFFD
1FFFFFFFFFF70AFFFFFFFD
1FFFFFFFFFF70AFFFFFFFD
1FFFFFFFFFF70AFFFFFFFD
1FFFFFFFFFF70AFFFFFFFD
1FFFFFFFFFFFFFFFFFFFFD
1FFFFFFFFFFFFFFFFFFFFD
0EFFFFFFFFFFFFFFFFFFFB
0AFFFFFFFFFFFFFFFFFFF7
03FFFFFFFFFFFFFFFFFFE1
007FFFFFFFFFFFFFFFFF40
0006EFFFFFFFFFFFFFD400
000017BEFFFFFFFDA60000
ENDCHAR
STARTCHAR U
ENCODING 85
SWIDTH 578 0
DWIDTH 21 0
BBX 22 25 -1 0
BITMAP
0000000011111110000000
000028CFFFFFFFFFB71000
0007FFC8CFFFFFFD8AE500
008FFF908FFFFFFC06FF50
03FFFF908FFFFFFC06FFE1
0AFFFF908FFFFFFC06FFF7
0EFFFF908FFFFFFC06FFFC
1FFFFF908FFFFFFC06FFFD
1FFFFF908FFFFFFC06FFFD
1FFFFF908FFFFFFC06FFFD
1FFFFF908FFFFFFC06FFFD
1FFFFF908FFFFFFC06FFFD
1FFFFF908FFFFFFC06FFFD
1FFFFF908FFFFFFC06FFFD
1FFFFFA06FFFFFFA06FFFD
1FFFFFD00233332009FFFD
1FFFFFFA200000017FFFFD
1FFFFFFFFFFFFFFFFFFFFD
1FFFFFFFFFFFFFFFFFFFFD
0EFFFFFFFFFFFFFFFFFFFB
0AFFFFFFFFFFFFFFFFFFF7
03FFFFFFFFFFFFFFFFFFE1
007FFFFFFFFFFFFFFFFF40
0006EFFFFFFFFFFFFFD400
000017BEFFFFFFFDA60000
ENDCHAR
STARTCHAR V
ENCODING 86
SWIDTH 578 0
DWIDTH 21 0
BBX 22 25 -1 0
BITMAP
0000000011111110000000
000028CFFFFFFFFFB71000
0007FFDABFFFFFFCADE500
008FFF904FFFFFF707FF50
03FFFFD01FFFFFF30BFFE1
0AFFFFF20BFFFFE00EFFF7
0EFFFFF608FFFFA04FFFFC
1FFFFFFA04FFFF608FFFFD
1FFFFFFE01FFFF30CFFFFD
1FFFFFFF30BFFE01FFFFFD
1FFFFFFF708FFA05FFFFFD
1FFFFFFFB04FF609FFFFFD
1FFFFFFFF10FF20DFFFFFD
1FFFFFFFF40BE01FFFFFFD
1FFFFFFFF808A05FFFFFFD
1FFFFFFFFC0110AFFFFFFD
1FFFFFFFFF9107FFFFFFFD
1FFFFFFFFFFFEFFFFFFFFD
1FFFFFFFFFFFFFFFFFFFFD
0EFFFFFFFFFFFFFFFFFFFB
0AFFFFFFFFFFFFFFFFFFF7
03FFFFFFFFFFFFFFFFFFE1
007FFFFFFFFFFFFFFFFF40
0006EFFFFFFFFFFFFFD400
000017BEFFFFFFFDA60000
ENDCHAR
STARTCHAR W
ENCODING 87
SWIDTH 578 0
DWIDTH 21 0
BBX 22 25 -1 0
BITMAP
0000000011111110000000
000028CFFFFFFFFFB71000
0007EB9FFFFFFFFFE9B500
008FE00FFFE14FFFC03F50
03FFF00EFFB00FFFA04FE1
0AFFF20DFF900DFF906FF7
0EFFF40BFF600AFF808FFC
1FFFF50AFF3007FF609FFD
1FFFF708FF1205FF50BFFD
1FFFF907FD0512FF30DFFD
1FFFFA06FB0840EF20EFFD
1FFFFC04F80A60CF11FFFD
1FFFFD03F50C809E02FFFD
1FFFFF01F30EA07D04FFFD
1FFFFF20F01FD04B06FFFD
1FFFFF40204FF10208FFFD
1FFFFFD303DFFB105FFFFD
1FFFFFFFEFFFFFFEFFFFFD
1FFFFFFFFFFFFFFFFFFFFD
0EFFFFFFFFFFFFFFFFFFFB
0AFFFFFFFFFFFFFFFFFFF7
03FFFFFFFFFFFFFFFFFFE1
007FFFFFFFFFFFFFFFFF40
0006EFFFFFFFFFFFFFD400
000017BEFFFFFFFDA60000
ENDCHAR
STARTCHAR X
ENCODING 88
SWIDTH 578 0
DWIDTH 21 0
BBX 22 25 -1 0
BITMAP
0000000011111110000000
000028CFFFFFFFFFB71000
0007FFFDBFFFFFFF9EE500
008FFFE11EFFFFF904FF50
03FFFFF806FFFFE10DFFE1
0AFFFFFF20BFFF507FFFF7
0EFFFFFFB02FFB02FFFFFC
1FFFFFFFF608E20BFFFFFD
1FFFFFFFFE11505FFFFFFD
1FFFFFFFFF9001EFFFFFFD
1FFFFFFFFF6000BFFFFFFD
1FFFFFFFFB02902FFFFFFD
1FFFFFFFF20BF407FFFFFD
1FFFFFFF805FFD10DFFFFD
1FFFFFFD11EFFF904FFFFD
1FFFFFF409FFFFF40AFFFD
1FFFFFE44FFFFFFD18FFFD
1FFFFFFFFFFFFFFFFFFFFD
1FFFFFFFFFFFFFFFFFFFFD
0EFFFFFFFFFFFFFFFFFFFB
0AFFFFFFFFFFFFFFFFFFF7
03FFFFFFFFFFFFFFFFFFE1
007FFFFFFFFFFFFFFFFF40
0006EFFFFFFFFFFFFFD400
000017BEFFFFFFFDA60000
ENDCHAR
STARTCHAR Y
ENCODING 89
SWIDTH 578 0
DWIDTH 21 0
BBX 22 25 -1 0
BITMAP
0000000011111110000000
000028CFFFFFFFFFB71000
0007FFF88EFFFFFA8BE500
008FFFF408FFFFE10CFF50
03FFFFFB02FFFF904FFFE1
0AFFFFFF20BFFF30AFFFF7
0EFFFFFF805FFC02FFFFFC
1FFFFFFFE10EF608FFFFFD
1FFFFFFFF608E01EFFFFFD
1FFFFFFFFC02806FFFFFFD
1FFFFFFFFF4010CFFFFFFD
1FFFFFFFFFA004FFFFFFFD
1FFFFFFFFFF10AFFFFFFFD
1FFFFFFFFFF40DFFFFFFFD
1FFFFFFFFFF40DFFFFFFFD
1FFFFFFFFFF40DFFFFFFFD
1FFFFFFFFFF40DFFFFFFFD
1FFFFFFFFFFFFFFFFFFFFD
1FFFFFFFFFFFFFFFFFFFFD
0EFFFFFFFFFFFFFFFFFFFB
0AFFFFFFFFFFFFFFFFFFF7
03FFFFFFFFFFFFFFFFFFE1
007FFFFFFFFFFFFFFFFF40
0006EFFFFFFFFFFFFFD400
000017BEFFFFFFFDA60000
ENDCHAR
STARTCHAR Z
ENCODING 90
SWIDTH 578 0
DWIDTH 21 0
BBX 22 25 -1 0
BITMAP
0000000011111110000000
000028CFFFFFFFFFB71000
0007FFFE8888888BFFE500
008FFFFE00000002FFFF50
03FFFFFFAAAAA602FFFFE1
0AFFFFFFFFFFF30AFFFFF7
0EFFFFFFFFFFA03FFFFFFC
1FFFFFFFFFFF20CFFFFFFD
1FFFFFFFFFF805FFFFFFFD
1FFFFFFFFFE10DFFFFFFFD
1FFFFFFFFF607FFFFFFFFD
1FFFFFFFFD01EFFFFFFFFD
1FFFFFFFF508FFFFFFFFFD
1FFFFFFFB02FFFFFFFFFFD
1FFFFFFF30AFFFFFFFFFFD
1FFFFFFB003333338FFFFD
1FFFFFFE100000007FFFFD
1FFFFFFFFFFFFFFFFFFFFD
1FFFFFFFFFFFFFFFFFFFFD
0EFFFFFFFFFFFFFFFFFFFB
0AFFFFFFFFFFFFFFFFFFF7
03FFFFFFFFFFFFFFFFFFE1
007FFFFFFFFFFFFFFFFF40
0006EFFFFFFFFFFFFFD400
000017BEFFFFFFFDA60000
ENDCHAR
STARTCHAR bracketleft
ENCODING 91
SWIDTH 484 0
DWIDTH 17 0
BBX 19 25 -1 0
BITMAP
00000000111000000000
000028CFFFFFEA500000
0007FFFF611AFFFC2000
008FFFFF501AFFFFD100
03FFFFFF50BFFFFFFA00
0AFFFFFF50BFFFFFFF20
0EFFFFFF50BFFFFFFF60
1FFFFFFF50BFFFFFFF80
1FFFFFFF50BFFFFFFF80
1FFFFFFF50BFFFFFFF80
1FFFFFFF50BFFFFFFF80
1FFFFFFF50BFFFFFFF80
1FFFFFFF50BFFFFFFF80
1FFFFFFF50BFFFFFFF80
1FFFFFFF50BFFFFFFF80
1FFFFFFF50BFFFFFFF80
1FFFFFFF50BFFFFFFF80
1FFFFFFF5009FFFFFF80
1FFFFFFF733AFFFFFF80
0EFFFFFFFFFFFFFFFF60
0AFFFFFFFFFFFFFFFF20
03FFFFFFFFFFFFFFF900
007FFFFFFFFFFFFFD100
0006EFFFFFFFFFFA1000
000017BEFFFED9300000
ENDCHAR
STARTCHAR backslash
ENCODING 92
SWIDTH 516 0
DWIDTH 19 0
BBX 20 25 -1 0
BITMAP
00000000111100000000
000028CFFFFFFEB50000
0007FFFFB8CFFFFFD300
008FFFFF907FFFFFFE20
03FFFFFFC04FFFFFFFC0
0AFFFFFFE02FFFFFFFF4
0EFFFFFFF20EFFFFFFF8
1FFFFFFFF40CFFFFFFFA
1FFFFFFFF70AFFFFFFFA
1FFFFFFFF907FFFFFFFA
1FFFFFFFFC05FFFFFFFA
1FFFFFFFFE02FFFFFFFA
1FFFFFFFFF20EFFFFFFA
1FFFFFFFFF40CFFFFFFA
1FFFFFFFFF70AFFFFFFA
1FFFFFFFFF907FFFFFFA
1FFFFFFFFFC05FFFFFFA
1FFFFFFFFFFFFFFFFFFA
1FFFFFFFFFFFFFFFFFF9
0EFFFFFFFFFFFFFFFFF8
0AFFFFFFFFFFFFFFFFF4
03FFFFFFFFFFFFFFFFB0
007FFFFFFFFFFFFFFE20
0006EFFFFFFFFFFFC200
000017BEFFFFED940000
ENDCHAR
STARTCHAR bracketright
ENCODING 93
SWIDTH 484 0
DWIDTH 17 0
BBX 19 25 -1 0
BITMAP
00000000111000000000
000028CFFFFFEA500000
0007FFFF211EFFFC2000
008FFFFF200EFFFFD100
03FFFFFFF30EFFFFFA00
0AFFFFFFF30EFFFFFF20
0EFFFFFFF30EFFFFFF60
1FFFFFFFF30EFFFFFF80
1FFFFFFFF30EFFFFFF80
1FFFFFFFF30EFFFFFF80
1FFFFFFFF30EFFFFFF80
1FFFFFFFF30EFFFFFF80
1FFFFFFFF30EFFFFFF80
1FFFFFFFF30EFFFFFF80
1FFFFFFFF30EFFFFFF80
1FFFFFFFF30EFFFFFF80
1FFFFFFFE30EFFFFFF80
1FFFFFFF100EFFFFFF80
1FFFFFFF433EFFFFFF80
0EFFFFFFFFFFFFFFFF60
0AFFFFFFFFFFFFFFFF20
03FFFFFFFFFFFFFFF900
007FFFFFFFFFFFFFD100
0006EFFFFFFFFFFA1000
000017BEFFFED9300000
ENDCHAR
STARTCHAR asciicircum
ENCODING 94
SWIDTH 355 0
DWIDTH 13 0
BBX 13 14 0 8
BITMAP
00001664100000
0006EFFFE40000
004FFFFFFE2000
00BFFFFFFF9000
03FFF90BFFE100
09FFF245FFF600
1FFFB3E1EFFC00
6FFF5BF88FFF30
CFFE4FFE3FFF90
FFF8BFFF8AFFD0
FFFFFFFFFFFFC0
BFFFFFFFFFFF80
2CFFFE9FFFFA10
00465102662000
ENDCHAR
STARTCHAR underscore
ENCODING 95
SWIDTH 428 0
DWIDTH 15 0
BBX 17 25 -1 0
BITMAP
000000001000000000
000028CFFFEA400000
0007FFFFFFFFFB1000
008FFFFFFFFFFFD100
03FFFFFFFFFFFFF900
0AFFFFFFFFFFFFFF10
0EFFFFFFFFFFFFFF50
1FFFFFFFFFFFFFFF70
1FFFFFFFFFFFFFFF70
1FFFFFFFFFFFFFFF70
1FFFFFFFFFFFFFFF70
1FFFFFFFFFFFFFFF70
1FFFFFFFFFFFFFFF70
1FFFFFFFFFFFFFFF70
1FFFFFFFFFFFFFFF70
1FFFFFFFFFFFFFFF70
1FFFFFFFFFFFFFFF70
1FFFA00000004FFF70
1FFFA11111114FFF70
0EFFFFFFFFFFFFFF50
0AFFFFFFFFFFFFFF10
03FFFFFFFFFFFFF900
007FFFFFFFFFFFC100
0006EFFFFFFFFA1000
000017BEFEC9300000
ENDCHAR
STARTCHAR grave
ENCODING 96
SWIDTH 308 0
DWIDTH 11 0
BBX 13 13 -1 0
BITMAP
00000010000000
0029DFFEB30000
04FFFFFFFE2000
0DFFFFFFFF8000
1FFFE10EFFD000
0DFFF70AFFF200
07FFFE05FFF700
00DFFF61FFFB00
005FFFD0BFFE00
000BFFF68FFF20
0002FFFFFFFE00
00008FFFFFF600
00001899995000
ENDCHAR
STARTCHAR a
ENCODING 97
SWIDTH 578 0
DWIDTH 21 0
BBX 22 25 -1 0
BITMAP
0000000011111110000000
000028CFFFFFFFFFB71000
0007FFFC988888AEFFE500
008FFFF700000003EFFF50
03FFFFFB8AAAA930BFFFE1
0AFFFFFFFFFFFF80BFFFF7
0EFFFFFFFFFFFF90BFFFFC
1FFFFFFFFFFFFF90BFFFFD
1FFFFFFFFFFFFF90BFFFFD
1FFFFFFB86666650BFFFFD
1FFFFFA000000000BFFFFD
1FFFFF508BBBBB60BFFFFD
1FFFFF30EFFFFF90BFFFFD
1FFFFF30EFFFFF90BFFFFD
1FFFFF40CFFFFF90BFFFFD
1FFFFF7012333200BFFFFD
1FFFFFE510000021BFFFFD
1FFFFFFFFFFFFFFFFFFFFD
1FFFFFFFFFFFFFFFFFFFFD
0EFFFFFFFFFFFFFFFFFFFB
0AFFFFFFFFFFFFFFFFFFF7
03FFFFFFFFFFFFFFFFFFE1
007FFFFFFFFFFFFFFFFF40
0006EFFFFFFFFFFFFFD400
000017BEFFFFFFFDA60000
ENDCHAR
STARTCHAR b
ENCODING 98
SWIDTH 578 0
DWIDTH 21 0
BBX 22 25 -1 0
BITMAP
0000000011111110000000
000028CFFFFFFFFFB71000
0007FFA88888889CFFE500
008FFF6000000000AFFF50
03FFFF607AAAA9703FFFE1
0AFFFF60BFFFFFD01FFFF7
0EFFFF60BFFFFFE01FFFFC
1FFFFF60BFFFFFF01FFFFD
1FFFFF607AAAAA704FFFFD
1FFFFF6000000004EFFFFD
1FFFFF60577777505FFFFD
1FFFFF60BFFFFFF11FFFFD
1FFFFF60BFFFFFF11FFFFD
1FFFFF60BFFFFFF11FFFFD
1FFFFF60BFFFFFE02FFFFD
1FFFFF60233332104FFFFD
1FFFFF6000000013EFFFFD
1FFFFFFFFFFFFFFFFFFFFD
1FFFFFFFFFFFFFFFFFFFFD
0EFFFFFFFFFFFFFFFFFFFB
0AFFFFFFFFFFFFFFFFFFF7
03FFFFFFFFFFFFFFFFFFE1
007FFFFFFFFFFFFFFFFF40
0006EFFFFFFFFFFFFFD400
000017BEFFFFFFFDA60000
ENDCHAR
STARTCHAR c
ENCODING 99
SWIDTH 578 0
DWIDTH 21 0
BBX 22 25 -1 0
BITMAP
0000000011111110000000
000028CFFFFFFFFFB71000
0007FFFE9888889BFFE500
008FFFE200000003FFFF50
03FFFF9049AAAA89FFFFE1
0AFFFF70AFFFFFFFFFFFF7
0EFFFF70AFFFFFFFFFFFFC
1FFFFF70AFFFFFFFFFFFFD
1FFFFF70AFFFFFFFFFFFFD
1FFFFF70AFFFFFFFFFFFFD
1FFFFF70AFFFFFFFFFFFFD
1FFFFF70AFFFFFFFFFFFFD
1FFFFF70AFFFFFFFFFFFFD
1FFFFF70AFFFFFFFFFFFFD
1FFFFF808FFFFFFFFFFFFD
1FFFFFB002333315FFFFFD
1FFFFFF810000014FFFFFD
1FFFFFFFFFFFFFFFFFFFFD
1FFFFFFFFFFFFFFFFFFFFD
0EFFFFFFFFFFFFFFFFFFFB
0AFFFFFFFFFFFFFFFFFFF7
03FFFFFFFFFFFFFFFFFFE1
007FFFFFFFFFFFFFFFFF40
0006EFFFFFFFFFFFFFD400
000017BEFFFFFFFDA60000
ENDCHAR
STARTCHAR d
ENCODING 100
SWIDTH 578 0
DWIDTH 21 0
BBX 22 25 -1 0
BITMAP
0000000011111110000000
000028CFFFFFFFFFB71000
0007FFD888888889DFE500
008FFFC0000000001CFF50
03FFFFC04AAAAA9606FFE1
0AFFFFC06FFFFFFD04FFF7
0EFFFFC06FFFFFFE04FFFC
1FFFFFC06FFFFFFE04FFFD
1FFFFFC06FFFFFFE04FFFD
1FFFFFC06FFFFFFE04FFFD
1FFFFFC06FFFFFFE04FFFD
1FFFFFC06FFFFFFE04FFFD
1FFFFFC06FFFFFFE04FFFD
1FFFFFC06FFFFFFE04FFFD
1FFFFFC06FFFFFFC04FFFD
1FFFFFC01333332007FFFD
1FFFFFC0000000015FFFFD
1FFFFFFFFFFFFFFFFFFFFD
1FFFFFFFFFFFFFFFFFFFFD
0EFFFFFFFFFFFFFFFFFFFB
0AFFFFFFFFFFFFFFFFFFF7
03FFFFFFFFFFFFFFFFFFE1
007FFFFFFFFFFFFFFFFF40
0006EFFFFFFFFFFFFFD400
000017BEFFFFFFFDA60000
ENDCHAR
STARTCHAR e
ENCODING 101
SWIDTH 578 0
DWIDTH 21 0
BBX 22 25 -1 0
BITMAP
0000000011111110000000
000028CFFFFFFFFFB71000
0007FFFD988888AEFFE500
008FFFD100000003EFFF50
03FFFF705AAAA930BFFFE1
0AFFFF50CFFFFF809FFFF7
0EFFFF50CFFFFF809FFFFC
1FFFFF50BDDDDD709FFFFD
1FFFFF50000000009FFFFD
1FFFFF5034444444AFFFFD
1FFFFF50CFFFFFFFFFFFFD
1FFFFF50CFFFFFFFFFFFFD
1FFFFF50CFFFFFFFFFFFFD
1FFFFF50BFFFFFFFFFFFFD
1FFFFF7049999979FFFFFD
1FFFFFD200000003FFFFFD
1FFFFFFDA888889BFFFFFD
1FFFFFFFFFFFFFFFFFFFFD
1FFFFFFFFFFFFFFFFFFFFD
0EFFFFFFFFFFFFFFFFFFFB
0AFFFFFFFFFFFFFFFFFFF7
03FFFFFFFFFFFFFFFFFFE1
007FFFFFFFFFFFFFFFFF40
0006EFFFFFFFFFFFFFD400
000017BEFFFFFFFDA60000
ENDCHAR
STARTCHAR f
ENCODING 102
SWIDTH 578 0
DWIDTH 21 0
BBX 22 25 -1 0
BITMAP
0000000011111110000000
000028CFFFFFFFFFB71000
0007FFFF88888888AFE500
008FFFFF000000004FFF50
03FFFFFF01AAAAAABFFFE1
0AFFFFFF02FFFFFFFFFFF7
0EFFFFFF02FFFFFFFFFFFC
1FFFFFFF02FFFFFFFFFFFD
1FFFFFFF0188888AFFFFFD
1FFFFFFF00000004FFFFFD
1FFFFFFF0199999BFFFFFD
1FFFFFFF02FFFFFFFFFFFD
1FFFFFFF02FFFFFFFFFFFD
1FFFFFFF02FFFFFFFFFFFD
1FFFFFFF02FFFFFFFFFFFD
1FFFFFFF02FFFFFFFFFFFD
1FFFFFFF02FFFFFFFFFFFD
1FFFFFFFFFFFFFFFFFFFFD
1FFFFFFFFFFFFFFFFFFFFD
0EFFFFFFFFFFFFFFFFFFFB
0AFFFFFFFFFFFFFFFFFFF7
03FFFFFFFFFFFFFFFFFFE1
007FFFFFFFFFFFFFFFFF40
0006EFFFFFFFFFFFFFD400
000017BEFFFFFFFDA60000
ENDCHAR
STARTCHAR g
ENCODING 103
SWIDTH 578 0
DWIDTH 21 0
BBX 22 25 -1 0
BITMAP
0000000011111110000000
000028CFFFFFFFFFB71000
0007FFFFC9888889BFE500
008FFFFA000000003FFF50
03FFFFF207AAAAA89FFFE1
0AFFFFF01FFFFFFFFFFFF7
0EFFFFF02FFFFFFFFFFFFC
1FFFFFF02FFFFFFFFFFFFD
1FFFFFF02FFFFFFFFFFFFD
1FFFFFF02FFFD9999AFFFD
1FFFFFF02FFFA00004FFFD
1FFFFFF02FFFC88704FFFD
1FFFFFF02FFFFFFD04FFFD
1FFFFFF02FFFFFFD04FFFD
1FFFFFF10EFFFFFB05FFFD
1FFFFFF40133332008FFFD
1FFFFFFE410000016FFFFD
1FFFFFFFFFFFFFFFFFFFFD
1FFFFFFFFFFFFFFFFFFFFD
0EFFFFFFFFFFFFFFFFFFFB
0AFFFFFFFFFFFFFFFFFFF7
03FFFFFFFFFFFFFFFFFFE1
007FFFFFFFFFFFFFFFFF40
0006EFFFFFFFFFFFFFD400
000017BEFFFFFFFDA60000
ENDCHAR
STARTCHAR h
ENCODING 104
SWIDTH 578 0
DWIDTH 21 0
BBX 22 25 -1 0
BITMAP
0000000011111110000000
000028CFFFFFFFFFB71000
0007FFD8AFFFFFFF89E500
008FFFC06FFFFFFE04FF50
03FFFFC06FFFFFFE04FFE1
0AFFFFC06FFFFFFE04FFF7
0EFFFFC06FFFFFFE04FFFC
1FFFFFC06FFFFFFE04FFFD
1FFFFFC04AAAAAA904FFFD
1FFFFFC00000000004FFFD
1FFFFFC03888888704FFFD
1FFFFFC06FFFFFFE04FFFD
1FFFFFC06FFFFFFE04FFFD
1FFFFFC06FFFFFFE04FFFD
1FFFFFC06FFFFFFE04FFFD
1FFFFFC06FFFFFFE04FFFD
1FFFFFC06FFFFFFE04FFFD
1FFFFFFFFFFFFFFFFFFFFD
1FFFFFFFFFFFFFFFFFFFFD
0EFFFFFFFFFFFFFFFFFFFB
0AFFFFFFFFFFFFFFFFFFF7
03FFFFFFFFFFFFFFFFFFE1
007FFFFFFFFFFFFFFFFF40
0006EFFFFFFFFFFFFFD400
000017BEFFFFFFFDA60000
ENDCHAR
STARTCHAR i
ENCODING 105
SWIDTH 578 0
DWIDTH 21 0
BBX 22 25 -1 0
BITMAP
0000000011111110000000
000028CFFFFFFFFFB71000
0007FFFA888888888CE500
008FFFF40000000008FF50
03FFFFFBAAA406AAADFFE1
0AFFFFFFFFF70AFFFFFFF7
0EFFFFFFFFF70AFFFFFFFC
1FFFFFFFFFF70AFFFFFFFD
1FFFFFFFFFF70AFFFFFFFD
1FFFFFFFFFF70AFFFFFFFD
1FFFFFFFFFF70AFFFFFFFD
1FFFFFFFFFF70AFFFFFFFD
1FFFFFFFFFF70AFFFFFFFD
1FFFFFFFFFF70AFFFFFFFD
1FFFFFFFFFF70AFFFFFFFD
1FFFFFF63331023339FFFD
1FFFFFF40000000008FFFD
1FFFFFFFFFFFFFFFFFFFFD
1FFFFFFFFFFFFFFFFFFFFD
0EFFFFFFFFFFFFFFFFFFFB
0AFFFFFFFFFFFFFFFFFFF7
03FFFFFFFFFFFFFFFFFFE1
007FFFFFFFFFFFFFFFFF40
0006EFFFFFFFFFFFFFD400
000017BEFFFFFFFDA60000
ENDCHAR
STARTCHAR j
ENCODING 106
SWIDTH 578 0
DWIDTH 21 0
BBX 22 25 -1 0
BITMAP
0000000011111110000000
000028CFFFFFFFFFB71000
0007FFFFFFFFF89FFFE500
008FFFFFFFFFF03FFFFF50
03FFFFFFFFFFF03FFFFFE1
0AFFFFFFFFFFF03FFFFFF7
0EFFFFFFFFFFF03FFFFFFC
1FFFFFFFFFFFF03FFFFFFD
1FFFFFFFFFFFF03FFFFFFD
1FFFFFFFFFFFF03FFFFFFD
1FFFFFFFFFFFF03FFFFFFD
1FFFFFFFFFFFF03FFFFFFD
1FFFFFFFFFFFF03FFFFFFD
1FFFFFFFFFFFF03FFFFFFD
1FFFFFFFFFFFD03FFFFFFD
1FFFFFFFF332003FFFFFFD
1FFFFFFFF00014EFFFFFFD
1FFFFFFFFFFFFFFFFFFFFD
1FFFFFFFFFFFFFFFFFFFFD
0EFFFFFFFFFFFFFFFFFFFB
0AFFFFFFFFFFFFFFFFFFF7
03FFFFFFFFFFFFFFFFFFE1
007FFFFFFFFFFFFFFFFF40
0006EFFFFFFFFFFFFFD400
000017BEFFFFFFFDA60000
ENDCHAR
STARTCHAR k
ENCODING 107
SWIDTH 578 0
DWIDTH 21 0
BBX 22 25 -1 0
BITMAP
0000000011111110000000
000028CFFFFFFFFFB71000
0007FFFF98FFFFFFB5E500
008FFFFF30FFFFFB00AF50
03FFFFFF30FFFFB007FFE1
0AFFFFFF30FFFB008FFFF7
0EFFFFFF30FFA008FFFFFC
1FFFFFFF30FA008FFFFFFD
1FFFFFFF30A008FFFFFFFD
1FFFFFFF30004FFFFFFFFD
1FFFFFFF301109FFFFFFFD
1FFFFFFF30CB00AFFFFFFD
1FFFFFFF30FFA01CFFFFFD
1FFFFFFF30FFF701DFFFFD
1FFFFFFF30FFFF502EFFFD
1FFFFFFF30FFFFF303EFFD
1FFFFFFF30FFFFFE24EFFD
1FFFFFFFFFFFFFFFDFFFFD
1FFFFFFFFFFFFFFFFFFFFD
0EFFFFFFFFFFFFFFFFFFFB
0AFFFFFFFFFFFFFFFFFFF7
03FFFFFFFFFFFFFFFFFFE1
007FFFFFFFFFFFFFFFFF40
0006EFFFFFFFFFFFFFD400
000017BEFFFFFFFDA60000
ENDCHAR
STARTCHAR l
ENCODING 108
SWIDTH 578 0
DWIDTH 21 0
BBX 22 25 -1 0
BITMAP
0000000011111110000000
000028CFFFFFFFFFB71000
0007FFFFE89FFFFFFFE500
008FFFFFD04FFFFFFFFF50
03FFFFFFD04FFFFFFFFFE1
0AFFFFFFD04FFFFFFFFFF7
0EFFFFFFD04FFFFFFFFFFC
1FFFFFFFD04FFFFFFFFFFD
1FFFFFFFD04FFFFFFFFFFD
1FFFFFFFD04FFFFFFFFFFD
1FFFFFFFD04FFFFFFFFFFD
1FFFFFFFD04FFFFFFFFFFD
1FFFFFFFD04FFFFFFFFFFD
1FFFFFFFD04FFFFFFFFFFD
1FFFFFFFD04FFFFFFFFFFD
1FFFFFFFD0133333DFFFFD
1FFFFFFFD0000000DFFFFD
1FFFFFFFFFFFFFFFFFFFFD
1FFFFFFFFFFFFFFFFFFFFD
0EFFFFFFFFFFFFFFFFFFFB
0AFFFFFFFFFFFFFFFFFFF7
03FFFFFFFFFFFFFFFFFFE1
007FFFFFFFFFFFFFFFFF40
0006EFFFFFFFFFFFFFD400
000017BEFFFFFFFDA60000
ENDCHAR
STARTCHAR m
ENCODING 109
SWIDTH 578 0
DWIDTH 21 0
BBX 22 25 -1 0
BITMAP
0000000011111110000000
000028CFFFFFFFFFB71000
0007FFD9888DD8889DE500
008FFC100004300002DF50
03FFF805AA9019A9409FE1
0AFFF809FFF02FFF809FF7
0EFFF809FFF02FFF809FFC
1FFFF809FFF02FFF809FFD
1FFFF809FFF02FFF809FFD
1FFFF809FFF02FFF809FFD
1FFFF809FFF02FFF809FFD
1FFFF809FFF02FFF809FFD
1FFFF809FFFFFFFF809FFD
1FFFF809FFFFFFFF809FFD
1FFFF809FFFFFFFF809FFD
1FFFF809FFFFFFFF809FFD
1FFFF809FFFFFFFF809FFD
1FFFFFFFFFFFFFFFFFFFFD
1FFFFFFFFFFFFFFFFFFFFD
0EFFFFFFFFFFFFFFFFFFFB
0AFFFFFFFFFFFFFFFFFFF7
03FFFFFFFFFFFFFFFFFFE1
007FFFFFFFFFFFFFFFFF40
0006EFFFFFFFFFFFFFD400
000017BEFFFFFFFDA60000
ENDCHAR
STARTCHAR n
ENCODING 110
SWIDTH 578 0
DWIDTH 21 0
BBX 22 25 -1 0
BITMAP
0000000011111110000000
000028CFFFFFFFFFB71000
0007FFFCA888888AEFE500
008FFFA0000000004EFF50
03FFFFA039AAAA930BFFE1
0AFFFFA07FFFFFF709FFF7
0EFFFFA07FFFFFF809FFFC
1FFFFFA07FFFFFF809FFFD
1FFFFFA07FFFFFF809FFFD
1FFFFFA07FFFFFF809FFFD
1FFFFFA07FFFFFF809FFFD
1FFFFFA07FFFFFF809FFFD
1FFFFFA07FFFFFF809FFFD
1FFFFFA07FFFFFF809FFFD
1FFFFFA07FFFFFF809FFFD
1FFFFFA07FFFFFF809FFFD
1FFFFFA07FFFFFF809FFFD
1FFFFFFFFFFFFFFFFFFFFD
1FFFFFFFFFFFFFFFFFFFFD
0EFFFFFFFFFFFFFFFFFFFB
0AFFFFFFFFFFFFFFFFFFF7
03FFFFFFFFFFFFFFFFFFE1
007FFFFFFFFFFFFFFFFF40
0006EFFFFFFFFFFFFFD400
000017BEFFFFFFFDA60000
ENDCHAR
STARTCHAR o
ENCODING 111
SWIDTH 578 0
DWIDTH 21 0
BBX 22 25 -1 0
BITMAP
0000000011111110000000
000028CFFFFFFFFFB71000
0007FFFFA8888889DFE500
008FFFF5000000001CFF50
03FFFFD028AAAA9506FFE1
0AFFFFB06FFFFFFD04FFF7
0EFFFFB07FFFFFFD04FFFC
1FFFFFB07FFFFFFD04FFFD
1FFFFFB07FFFFFFD04FFFD
1FFFFFB07FFFFFFD04FFFD
1FFFFFB07FFFFFFD04FFFD
1FFFFFB07FFFFFFD04FFFD
1FFFFFB07FFFFFFD04FFFD
1FFFFFB07FFFFFFD04FFFD
1FFFFFC04FFFFFFB05FFFD
1FFFFFE00233332008FFFD
1FFFFFFB200000015FFFFD
1FFFFFFFFFFFFFFFFFFFFD
1FFFFFFFFFFFFFFFFFFFFD
0EFFFFFFFFFFFFFFFFFFFB
0AFFFFFFFFFFFFFFFFFFF7
03FFFFFFFFFFFFFFFFFFE1
007FFFFFFFFFFFFFFFFF40
0006EFFFFFFFFFFFFFD400
000017BEFFFFFFFDA60000
ENDCHAR
STARTCHAR p
ENCODING 112
SWIDTH 578 0
DWIDTH 21 0
BBX 22 25 -1 0
BITMAP
0000000011111110000000
000028CFFFFFFFFFB71000
0007FFFC8888888AFFE500
008FFFF9000000004FFF50
03FFFFF905AAAA920CFFE1
0AFFFFF908FFFFF70AFFF7
0EFFFFF908FFFFF70AFFFC
1FFFFFF908FFFFF70AFFFD
1FFFFFF908FFFFF70AFFFD
1FFFFFF908FFFFE40BFFFD
1FFFFFF9000000001EFFFD
1FFFFFF901222235CFFFFD
1FFFFFF908FFFFFFFFFFFD
1FFFFFF908FFFFFFFFFFFD
1FFFFFF908FFFFFFFFFFFD
1FFFFFF908FFFFFFFFFFFD
1FFFFFF908FFFFFFFFFFFD
1FFFFFFFFFFFFFFFFFFFFD
1FFFFFFFFFFFFFFFFFFFFD
0EFFFFFFFFFFFFFFFFFFFB
0AFFFFFFFFFFFFFFFFFFF7
03FFFFFFFFFFFFFFFFFFE1
007FFFFFFFFFFFFFFFFF40
0006EFFFFFFFFFFFFFD400
000017BEFFFFFFFDA60000
ENDCHAR
STARTCHAR q
ENCODING 113
SWIDTH 578 0
DWIDTH 21 0
BBX 22 25 -1 0
BITMAP
0000000011111110000000
000028CFFFFFFFFFB71000
0007FFFFB8888889DFE500
008FFFF6000000001CFF50
03FFFFD028AAAA9606FFE1
0AFFFFC06FFFFFFD04FFF7
0EFFFFC06FFFFFFE04FFFC
1FFFFFC06FFFFFFE04FFFD
1FFFFFC06FFFFFFE04FFFD
1FFFFFC06FFFFFFE04FFFD
1FFFFFC06FFFFFFE04FFFD
1FFFFFC06FFFFFFE04FFFD
1FFFFFC06FFFFFFE04FFFD
1FFFFFC06FFE7BFE04FFFD
1FFFFFC04FFB03FC04FFFD
1FFFFFE10132002007FFFD
1FFFFFFB200000015FFFFD
1FFFFFFFFFFFF40AFFFFFD
1FFFFFFFFFFFFB03FFFFFD
0EFFFFFFFFFFFF7CFFFFFB
0AFFFFFFFFFFFFFFFFFFF7
03FFFFFFFFFFFFFFFFFFE1
007FFFFFFFFFFFFFFFFF40
0006EFFFFFFFFFFFFFD400
000017BEFFFFFFFDA60000
ENDCHAR
STARTCHAR r
ENCODING 114
SWIDTH 578 0
DWIDTH 21 0
BBX 22 25 -1 0
BITMAP
0000000011111110000000
000028CFFFFFFFFFB71000
0007FFF88888889DFFE500
008FFFF100000002EFFF50
03FFFFF11AAAA9307FFFE1
0AFFFFF11FFFFFC05FFFF7
0EFFFFF11FFFFFD04FFFFC
1FFFFFF11FFFFFD04FFFFD
1FFFFFF11FFFFF908FFFFD
1FFFFFF104444417EFFFFD
1FFFFFF100000039EFFFFD
1FFFFFF11CCCCB508FFFFD
1FFFFFF11FFFFFE03FFFFD
1FFFFFF11FFFFFF02FFFFD
1FFFFFF11FFFFFF02FFFFD
1FFFFFF11FFFFFF02FFFFD
1FFFFFF11FFFFFF02FFFFD
1FFFFFFFFFFFFFFFFFFFFD
1FFFFFFFFFFFFFFFFFFFFD
0EFFFFFFFFFFFFFFFFFFFB
0AFFFFFFFFFFFFFFFFFFF7
03FFFFFFFFFFFFFFFFFFE1
007FFFFFFFFFFFFFFFFF40
0006EFFFFFFFFFFFFFD400
000017BEFFFFFFFDA60000
ENDCHAR
STARTCHAR s
ENCODING 115
SWIDTH 578 0
DWIDTH 21 0
BBX 22 25 -1 0
BITMAP
0000000011111110000000
000028CFFFFFFFFFB71000
0007FFFFC9888889BFE500
008FFFFB000000004FFF50
03FFFFF4069AAAA79FFFE1
0AFFFFF20FFFFFFFFFFFF7
0EFFFFF20FFFFFFFFFFFFC
1FFFFFF20FFFFFFFFFFFFD
1FFFFFF408BBBBBDFFFFFD
1FFFFFF9000000006FFFFD
1FFFFFFFB87777610BFFFD
1FFFFFFFFFFFFFF709FFFD
1FFFFFFFFFFFFFF809FFFD
1FFFFFFFFFFFFFF809FFFD
1FFFFFFFEFFFFFF609FFFD
1FFFFFFE023333200CFFFD
1FFFFFFB200000029FFFFD
1FFFFFFFFFFFFFFFFFFFFD
1FFFFFFFFFFFFFFFFFFFFD
0EFFFFFFFFFFFFFFFFFFFB
0AFFFFFFFFFFFFFFFFFFF7
03FFFFFFFFFFFFFFFFFFE1
007FFFFFFFFFFFFFFFFF40
0006EFFFFFFFFFFFFFD400
000017BEFFFFFFFDA60000
ENDCHAR
STARTCHAR t
ENCODING 116
SWIDTH 578 0
DWIDTH 21 0
BBX 22 25 -1 0
BITMAP
0000000011111110000000
000028CFFFFFFFFFB71000
0007FFFA888888888CE500
008FFFF40000000008FF50
03FFFFFBAAA406AAADFFE1
0AFFFFFFFFF70AFFFFFFF7
0EFFFFFFFFF70AFFFFFFFC
1FFFFFFFFFF70AFFFFFFFD
1FFFFFFFFFF70AFFFFFFFD
1FFFFFFFFFF70AFFFFFFFD
1FFFFFFFFFF70AFFFFFFFD
1FFFFFFFFFF70AFFFFFFFD
1FFFFFFFFFF70AFFFFFFFD
1FFFFFFFFFF70AFFFFFFFD
1FFFFFFFFFF70AFFFFFFFD
1FFFFFFFFFF70AFFFFFFFD
1FFFFFFFFFF70AFFFFFFFD
1FFFFFFFFFFFFFFFFFFFFD
1FFFFFFFFFFFFFFFFFFFFD
0EFFFFFFFFFFFFFFFFFFFB
0AFFFFFFFFFFFFFFFFFFF7
03FFFFFFFFFFFFFFFFFFE1
007FFFFFFFFFFFFFFFFF40
0006EFFFFFFFFFFFFFD400
000017BEFFFFFFFDA60000
ENDCHAR
STARTCHAR u
ENCODING 117
SWIDTH 578 0
DWIDTH 21 0
BBX 22 25 -1 0
BITMAP
0000000011111110000000
000028CFFFFFFFFFB71000
0007FFC8CFFFFFFD8AE500
008FFF908FFFFFFC06FF50
03FFFF908FFFFFFC06FFE1
0AFFFF908FFFFFFC06FFF7
0EFFFF908FFFFFFC06FFFC
1FFFFF908FFFFFFC06FFFD
1FFFFF908FFFFFFC06FFFD
1FFFFF908FFFFFFC06FFFD
1FFFFF908FFFFFFC06FFFD
1FFFFF908FFFFFFC06FFFD
1FFFFF908FFFFFFC06FFFD
1FFFFF908FFFFFFC06FFFD
1FFFFFA06FFFFFFA06FFFD
1FFFFFD00233332009FFFD
1FFFFFFA200000017FFFFD
1FFFFFFFFFFFFFFFFFFFFD
1FFFFFFFFFFFFFFFFFFFFD
0EFFFFFFFFFFFFFFFFFFFB
0AFFFFFFFFFFFFFFFFFFF7
03FFFFFFFFFFFFFFFFFFE1
007FFFFFFFFFFFFFFFFF40
0006EFFFFFFFFFFFFFD400
000017BEFFFFFFFDA60000
ENDCHAR
STARTCHAR v
ENCODING 118
SWIDTH 578 0
DWIDTH 21 0
BBX 22 25 -1 0
BITMAP
0000000011111110000000
000028CFFFFFFFFFB71000
0007FFDABFFFFFFCADE500
008FFF904FFFFFF707FF50
03FFFFD01FFFFFF30BFFE1
0AFFFFF20BFFFFE00EFFF7
0EFFFFF608FFFFA04FFFFC
1FFFFFFA04FFFF608FFFFD
1FFFFFFE01FFFF30CFFFFD
1FFFFFFF30BFFE01FFFFFD
1FFFFFFF708FFA05FFFFFD
1FFFFFFFB04FF609FFFFFD
1FFFFFFFF10FF20DFFFFFD
1FFFFFFFF40BE01FFFFFFD
1FFFFFFFF808A05FFFFFFD
1FFFFFFFFC0110AFFFFFFD
1FFFFFFFFF9107FFFFFFFD
1FFFFFFFFFFFEFFFFFFFFD
1FFFFFFFFFFFFFFFFFFFFD
0EFFFFFFFFFFFFFFFFFFFB
0AFFFFFFFFFFFFFFFFFFF7
03FFFFFFFFFFFFFFFFFFE1
007FFFFFFFFFFFFFFFFF40
0006EFFFFFFFFFFFFFD400
000017BEFFFFFFFDA60000
ENDCHAR
STARTCHAR w
ENCODING 119
SWIDTH 578 0
DWIDTH 21 0
BBX 22 25 -1 0
BITMAP
0000000011111110000000
000028CFFFFFFFFFB71000
0007EB9FFFFFFFFFE9B500
008FE00FFFE14FFFC03F50
03FFF00EFFB00FFFA04FE1
0AFFF20DFF900DFF906FF7
0EFFF40BFF600AFF808FFC
1FFFF50AFF3007FF609FFD
1FFFF708FF1205FF50BFFD
1FFFF907FD0512FF30DFFD
1FFFFA06FB0840EF20EFFD
1FFFFC04F80A60CF11FFFD
1FFFFD03F50C809E02FFFD
1FFFFF01F30EA07D04FFFD
1FFFFF20F01FD04B06FFFD
1FFFFF40204FF10208FFFD
1FFFFFD303DFFB105FFFFD
1FFFFFFFEFFFFFFEFFFFFD
1FFFFFFFFFFFFFFFFFFFFD
0EFFFFFFFFFFFFFFFFFFFB
0AFFFFFFFFFFFFFFFFFFF7
03FFFFFFFFFFFFFFFFFFE1
007FFFFFFFFFFFFFFFFF40
0006EFFFFFFFFFFFFFD400
000017BEFFFFFFFDA60000
ENDCHAR
STARTCHAR x
ENCODING 120
SWIDTH 578 0
DWIDTH 21 0
BBX 22 25 -1 0
BITMAP
0000000011111110000000
000028CFFFFFFFFFB71000
0007FFFDBFFFFFFF9EE500
008FFFE11EFFFFF904FF50
03FFFFF806FFFFE10DFFE1
0AFFFFFF20BFFF507FFFF7
0EFFFFFFB02FFB02FFFFFC
1FFFFFFFF608E20BFFFFFD
1FFFFFFFFE11505FFFFFFD
1FFFFFFFFF9001EFFFFFFD
1FFFFFFFFF6000BFFFFFFD
1FFFFFFFFB02902FFFFFFD
1FFFFFFFF20BF407FFFFFD
1FFFFFFF805FFD10DFFFFD
1FFFFFFD11EFFF904FFFFD
1FFFFFF409FFFFF40AFFFD
1FFFFFE44FFFFFFD18FFFD
1FFFFFFFFFFFFFFFFFFFFD
1FFFFFFFFFFFFFFFFFFFFD
0EFFFFFFFFFFFFFFFFFFFB
0AFFFFFFFFFFFFFFFFFFF7
03FFFFFFFFFFFFFFFFFFE1
007FFFFFFFFFFFFFFFFF40
0006EFFFFFFFFFFFFFD400
000017BEFFFFFFFDA60000
ENDCHAR
STARTCHAR y
ENCODING 121
SWIDTH 578 0
DWIDTH 21 0
BBX 22 25 -1 0
BITMAP
0000000011111110000000
000028CFFFFFFFFFB71000
0007FFF88EFFFFFA8BE500
008FFFF408FFFFE10CFF50
03FFFFFB02FFFF904FFFE1
0AFFFFFF20BFFF30AFFFF7
0EFFFFFF805FFC02FFFFFC
1FFFFFFFE10EF608FFFFFD
1FFFFFFFF608E01EFFFFFD
1FFFFFFFFC02806FFFFFFD
1FFFFFFFFF4010CFFFFFFD
1FFFFFFFFFA004FFFFFFFD
1FFFFFFFFFF10AFFFFFFFD
1FFFFFFFFFF40DFFFFFFFD
1FFFFFFFFFF40DFFFFFFFD
1FFFFFFFFFF40DFFFFFFFD
1FFFFFFFFFF40DFFFFFFFD
1FFFFFFFFFFFFFFFFFFFFD
1FFFFFFFFFFFFFFFFFFFFD
0EFFFFFFFFFFFFFFFFFFFB
0AFFFFFFFFFFFFFFFFFFF7
03FFFFFFFFFFFFFFFFFFE1
007FFFFFFFFFFFFFFFFF40
0006EFFFFFFFFFFFFFD400
000017BEFFFFFFFDA60000
ENDCHAR
STARTCHAR z
ENCODING 122
SWIDTH 578 0
DWIDTH 21 0
BBX 22 25 -1 0
BITMAP
0000000011111110000000
000028CFFFFFFFFFB71000
0007FFFE8888888BFFE500
008FFFFE00000002FFFF50
03FFFFFFAAAAA602FFFFE1
0AFFFFFFFFFFF30AFFFFF7
0EFFFFFFFFFFA03FFFFFFC
1FFFFFFFFFFF20CFFFFFFD
1FFFFFFFFFF805FFFFFFFD
1FFFFFFFFFE10DFFFFFFFD
1FFFFFFFFF607FFFFFFFFD
1FFFFFFFFD01EFFFFFFFFD
1FFFFFFFF508FFFFFFFFFD
1FFFFFFFB02FFFFFFFFFFD
1FFFFFFF30AFFFFFFFFFFD
1FFFFFFB003333338FFFFD
1FFFFFFE100000007FFFFD
1FFFFFFFFFFFFFFFFFFFFD
1FFFFFFFFFFFFFFFFFFFFD
0EFFFFFFFFFFFFFFFFFFFB
0AFFFFFFFFFFFFFFFFFFF7
03FFFFFFFFFFFFFFFFFFE1
007FFFFFFFFFFFFFFFFF40
0006EFFFFFFFFFFFFFD400
000017BEFFFFFFFDA60000
ENDCHAR
STARTCHAR braceleft
ENCODING 123
SWIDTH 484 0
DWIDTH 17 0
BBX 19 25 -1 0
BITMAP
00000000111000000000
000028CFFFFFEA500000
0007FFFF93216FFC2000
008FFFFA00005FFFD100
03FFFFF709FFFFFFFA00
0AFFFFF60CFFFFFFFF20
0EFFFFF60CFFFFFFFF60
1FFFFFF60CFFFFFFFF80
1FFFFFF40DFFFFFFFF80
1FFE88600EFFFFFFFF80
1FFD00003FFFFFFFFF80
1FFE99810EFFFFFFFF80
1FFFFFF40CFFFFFFFF80
1FFFFFF50CFFFFFFFF80
1FFFFFF50CFFFFFFFF80
1FFFFFF50CFFFFFFFF80
1FFFFFF608EFFFFFFF80
1FFFFFFA00005FFFFF80
1FFFFFFF94326FFFFF80
0EFFFFFFFFFFFFFFFF60
0AFFFFFFFFFFFFFFFF20
03FFFFFFFFFFFFFFF900
007FFFFFFFFFFFFFD100
0006EFFFFFFFFFFA1000
000017BEFFFED9300000
ENDCHAR
STARTCHAR bar
ENCODING 124
SWIDTH 484 0
DWIDTH 17 0
BBX 19 25 -1 0
BITMAP
00000000101000000000
000028CFF08FEA500000
0007FFFFF08FFFFC2000
008FFFFFF08FFFFFD100
03FFFFFFF08FFFFFFA00
0AFFFFFFF08FFFFFFF20
0EFFFFFFF08FFFFFFF60
1FFFFFFFF08FFFFFFF80
1FFFFFFFF08FFFFFFF80
1FFFFFFFF08FFFFFFF80
1FFFFFFFF08FFFFFFF80
1FFFFFFFF08FFFFFFF80
1FFFFFFFF08FFFFFFF80
1FFFFFFFF08FFFFFFF80
1FFFFFFFF08FFFFFFF80
1FFFFFFFF08FFFFFFF80
1FFFFFFFF08FFFFFFF80
1FFFFFFFF08FFFFFFF80
1FFFFFFFFACFFFFFFF80
0EFFFFFFFFFFFFFFFF60
0AFFFFFFFFFFFFFFFF20
03FFFFFFFFFFFFFFF900
007FFFFFFFFFFFFFD100
0006EFFFFFFFFFFA1000
000017BEFFFED9300000
ENDCHAR
STARTCHAR braceright
ENCODING 125
SWIDTH 484 0
DWIDTH 17 0
BBX 19 25 -1 0
BITMAP
00000000111000000000
000028CFFFFFEA500000
0007FFC1135EFFFC2000
008FFFC00003FFFFD100
03FFFFFFFE10FFFFFA00
0AFFFFFFFF40EFFFFF20
0EFFFFFFFF40EFFFFF60
1FFFFFFFFF40EFFFFF80
1FFFFFFFFF40DFFFFF80
1FFFFFFFFF60478BFF80
1FFFFFFFFFA00006FF80
1FFFFFFFFF60599CFF80
1FFFFFFFFF40DFFFFF80
1FFFFFFFFF40DFFFFF80
1FFFFFFFFF40DFFFFF80
1FFFFFFFFF40DFFFFF80
1FFFFFFFFD10EFFFFF80
1FFFFFC00004FFFFFF80
1FFFFFC2236EFFFFFF80
0EFFFFFFFFFFFFFFFF60
0AFFFFFFFFFFFFFFFF20
03FFFFFFFFFFFFFFF900
007FFFFFFFFFFFFFD100
0006EFFFFFFFFFFA1000
000017BEFFFED9300000
ENDCHAR
STARTCHAR asciitilde
ENCODING 126
SWIDTH 578 0
DWIDTH 21 0
BBX 22 25 -1 0
BITMAP
0000000011111110000000
000028CFFFFFFFFFB71000
0007FFFFFFFFFFFFFFE500
008FFFFFFFFFFFFFFFFF50
03FFFFFFFFFFFFFFFFFFE1
0AFFFFFFFFFFFFFFFFFFF7
0EFFFFFEBCEFFFF58FFFFC
1FFFFFD100026BD05FFFFD
1FFFFF90595000008FFFFD
1FFFFFA2BFFEA646EFFFFD
1FFFFFFFFFFFFFFFFFFFFD
1FFFFFFFFFFFFFFFFFFFFD
1FFFFFFFFFFFFFFFFFFFFD
1FFFFFFFFFFFFFFFFFFFFD
1FFFFFFFFFFFFFFFFFFFFD
1FFFFFFFFFFFFFFFFFFFFD
1FFFFFFFFFFFFFFFFFFFFD
1FFFFFFFFFFFFFFFFFFFFD
1FFFFFFFFFFFFFFFFFFFFD
0EFFFFFFFFFFFFFFFFFFFB
0AFFFFFFFFFFFFFFFFFFF7
03FFFFFFFFFFFFFFFFFFE1
007FFFFFFFFFFFFFFFFF40
0006EFFFFFFFFFFFFFD400
000017BEFFFFFFFDA60000
ENDCHAR
STARTCHAR uni00A0
ENCODING 160
SWIDTH 151 0
DWIDTH 5 0
BBX 1 1 0 0
BITMAP
00
ENDCHAR
STARTCHAR exclamdown
ENCODING 161
SWIDTH 424 0
DWIDTH 15 0
BBX 17 25 -1 0
BITMAP
000000001000000000
000028CFFFD9300000
0007FFFE8AFFF91000
008FFFFD04FFFFB000
03FFFFFEABFFFFF700
0AFFFFFFDDFFFFFE00
0EFFFFFF45FFFFFF30
1FFFFFFF45FFFFFF50
1FFFFFFF45FFFFFF50
1FFFFFFF45FFFFFF50
1FFFFFFF45FFFFFF50
1FFFFFFF45FFFFFF50
1FFFFFFF45FFFFFF50
1FFFFFFF45FFFFFF50
1FFFFFFF45FFFFFF50
1FFFFFFF45FFFFFF50
1FFFFFFF45FFFFFF50
1FFFFFFFCCFFFFFF50
1FFFFFFFFFFFFFFF50
0EFFFFFFFFFFFFFF30
0AFFFFFFFFFFFFFE00
03FFFFFFFFFFFFF700
007FFFFFFFFFFFA000
0006EFFFFFFFF80000
000017BEFEC8200000
ENDCHAR
STARTCHAR cent
ENCODING 162
SWIDTH 578 0
DWIDTH 21 0
BBX 22 25 -1 0
BITMAP
0000000011111110000000
000028CFFFFCDFFFB71000
0007FFFFFFF36FFFFFE500
008FFFFFFFF36FFFFFFF50
03FFFFFFB641146AFFFFE1
0AFFFFFB00000009FFFFF7
0EFFFFF707D35DBDFFFFFC
1FFFFFF60BF36FFFFFFFFD
1FFFFFF60BF36FFFFFFFFD
1FFFFFF60BF36FFFFFFFFD
1FFFFFF60BF36FFFFFFFFD
1FFFFFF60BF36FFFFFFFFD
1FFFFFF60BF36FFFFFFFFD
1FFFFFF60BF36FFFFFFFFD
1FFFFFF80482375CFFFFFD
1FFFFFFE20000008FFFFFD
1FFFFFFFEB9239BDFFFFFD
1FFFFFFFFFF36FFFFFFFFD
1FFFFFFFFFF57FFFFFFFFD
0EFFFFFFFFFFFFFFFFFFFB
0AFFFFFFFFFFFFFFFFFFF7
03FFFFFFFFFFFFFFFFFFE1
007FFFFFFFFFFFFFFFFF40
0006EFFFFFFFFFFFFFD400
000017BEFFFFFFFDA60000
ENDCHAR
STARTCHAR sterling
ENCODING 163
SWIDTH 578 0
DWIDTH 21 0
BBX 22 25 -1 0
BITMAP
0000000011111110000000
000028CFFFFFFFFFB71000
0007FFFFFEA979CFFFE500
008FFFFFE300000AFFFF50
03FFFFFF8049A802FFFFE1
0AFFFFFF809FFF02FFFFF7
0EFFFFFF809FFF46FFFFFC
1FFFFFFF809FFFFFFFFFFD
1FFFFFFF809FFFFFFFFFFD
1FFFFFF83046667FFFFFFD
1FFFFFF62023334FFFFFFD
1FFFFFFF809FFFFFFFFFFD
1FFFFFFF809FFFFFFFFFFD
1FFFFFFF809FFFFFFFFFFD
1FFFFFFF809FFFFFFFFFFD
1FFFFFFF80233335FFFFFD
1FFFFFFF80000003FFFFFD
1FFFFFFFFFFFFFFFFFFFFD
1FFFFFFFFFFFFFFFFFFFFD
0EFFFFFFFFFFFFFFFFFFFB
0AFFFFFFFFFFFFFFFFFFF7
03FFFFFFFFFFFFFFFFFFE1
007FFFFFFFFFFFFFFFFF40
0006EFFFFFFFFFFFFFD400
000017BEFFFFFFFDA60000
ENDCHAR
STARTCHAR currency
ENCODING 164
SWIDTH 578 0
DWIDTH 21 0
BBX 22 25 -1 0
BITMAP
0000000011111110000000
000028CFFFFFFFFFB71000
0007FFFDFFFFFFFFDFE500
008FFFE16EDCCCE90BFF50
03FFFFF6000000003EFFE1
0AFFFFFE03999940CFFFF7
0EFFFFFD09FFFFA0AFFFFC
1FFFFFFD09FFFFB0AFFFFD
1FFFFFFD09FFFFB0AFFFFD
1FFFFFFD09FFFFB0AFFFFD
1FFFFFFD09FFFFA0AFFFFD
1FFFFFFE039AA940DFFFFD
1FFFFFF8000000006FFFFD
1FFFFFE13DCBBCD60BFFFD
1FFFFFFCEFFFFFFFBFFFFD
1FFFFFFFFFFFFFFFFFFFFD
1FFFFFFFFFFFFFFFFFFFFD
1FFFFFFFFFFFFFFFFFFFFD
1FFFFFFFFFFFFFFFFFFFFD
0EFFFFFFFFFFFFFFFFFFFB
0AFFFFFFFFFFFFFFFFFFF7
03FFFFFFFFFFFFFFFFFFE1
007FFFFFFFFFFFFFFFFF40
0006EFFFFFFFFFFFFFD400
000017BEFFFFFFFDA60000
ENDCHAR
STARTCHAR yen
ENCODING 165
SWIDTH 578 0
DWIDTH 21 0
BBX 22 25 -1 0
BITMAP
0000000011111110000000
000028CFFFFFFFFFB71000
0007FFA8BFFFFFD89FE500
008FFFA02FFFFF607FFF50
03FFFFF10CFFFE10DFFFE1
0AFFFFF806FFF904FFFFF7
0EFFFFFE01EFF20BFFFFFC
1FFFFFFF509FB02FFFFFFD
1FFFFFFFC03F509FFFFFFD
1FFFFFFFF30A01EFFFFFFD
1FFFFFFFF90107FFFFFFFD
1FFFFFFF7600056EFFFFFD
1FFFFFFF2110111EFFFFFD
1FFFFFFF6540355EFFFFFD
1FFFFFFF3220122EFFFFFD
1FFFFFFFFFA07FFFFFFFFD
1FFFFFFFFFA07FFFFFFFFD
1FFFFFFFFFFFFFFFFFFFFD
1FFFFFFFFFFFFFFFFFFFFD
0EFFFFFFFFFFFFFFFFFFFB
0AFFFFFFFFFFFFFFFFFFF7
03FFFFFFFFFFFFFFFFFFE1
007FFFFFFFFFFFFFFFFF40
0006EFFFFFFFFFFFFFD400
000017BEFFFFFFFDA60000
ENDCHAR
STARTCHAR brokenbar
ENCODING 166
SWIDTH 484 0
DWIDTH 17 0
BBX 19 25 -1 0
BITMAP
00000000111000000000
000028CFFFFFEA500000
0007FFFFE8AFFFFC2000
008FFFFFD04FFFFFD100
03FFFFFFD04FFFFFFA00
0AFFFFFFD04FFFFFFF20
0EFFFFFFD04FFFFFFF60
1FFFFFFFD04FFFFFFF80
1FFFFFFFE69FFFFFFF80
1FFFFFFFFFFFFFFFFF80
1FFFFFFFE9BFFFFFFF80
1FFFFFFFD04FFFFFFF80
1FFFFFFFD04FFFFFFF80
1FFFFFFFD04FFFFFFF80
1FFFFFFFD04FFFFFFF80
1FFFFFFFD04FFFFFFF80
1FFFFFFFD04FFFFFFF80
1FFFFFFFFFFFFFFFFF80
1FFFFFFFFFFFFFFFFF80
0EFFFFFFFFFFFFFFFF60
0AFFFFFFFFFFFFFFFF20
03FFFFFFFFFFFFFFF900
007FFFFFFFFFFFFFD100
0006EFFFFFFFFFFA1000
000017BEFFFED9300000
ENDCHAR
STARTCHAR section
ENCODING 167
SWIDTH 578 0
DWIDTH 21 0
BBX 22 25 -1 0
BITMAP
0000000011111110000000
000028CFFFFFFFFFB71000
0007FFFFECAAAAACEFE500
008FFFFD200000006FFF50
03FFFFF70ACCCCCACFFFE1
0AFFFFF53FFFFFFFFFFFF7
0EFFFFF52FFFFFFFFFFFFC
1FFFFFF805778AFFFFFFFD
1FFFFFFF6011006FFFFFFD
1FFFFFFFA0CFF51FFFFFFD
1FFFFFFF80EFF80EFFFFFD
1FFFFFFFA09EE62FFFFFFD
1FFFFFFFE2000019FFFFFD
1FFFFFFFFEB99840DFFFFD
1FFFFFFFFFFFFFB0BFFFFD
1FFFFFFFFFFFFFC0BFFFFD
1FFFFFFFFFFFFFA0CFFFFD
1FFFFFF234444302EFFFFD
1FFFFFF75444457DFFFFFD
0EFFFFFFFFFFFFFFFFFFFB
0AFFFFFFFFFFFFFFFFFFF7
03FFFFFFFFFFFFFFFFFFE1
007FFFFFFFFFFFFFFFFF40
0006EFFFFFFFFFFFFFD400
000017BEFFFFFFFDA60000
ENDCHAR
STARTCHAR dieresis
ENCODING 168
SWIDTH 388 0
DWIDTH 14 0
BBX 14 11 0 0
BITMAP
00001455410000
003BFFFFFFB300
07FFFFFFFFFF70
5FFFFFFFFFFFF4
CFFFFFFFFFFFFC
FFF715FF11BFFF
FFF604FF00BFFF
CFFCABFFAADFFC
6FFFFFFFFFFFF5
09FFFFFFFFFF80
00444444444400
ENDCHAR
STARTCHAR copyright
ENCODING 169
SWIDTH 578 0
DWIDTH 21 0
BBX 22 25 -1 0
BITMAP
0000000011111110000000
000028CFFFFFFFFFB71000
0007FFFFFC8779DFFFE500
008FFFFA20455305DFFF50
03FFFF618EFFFFD51AFFE1
0AFFF62CFB88889F90BFF7
0EFFB0CFB023321FF81EFC
1FFF37FF82FFFFFFFF28FD
1FFD0DFF73FFFFFFFF93FD
1FFA2FFF73FFFFFFFFD0FD
1FF84FFF73FFFFFFFFE0DD
1FF93FFF73FFFFFFFFD0ED
1FFB1FFF73FFFFFFFFB1FD
1FFE1BFF73FFFFFFFF65FD
1FFF73FFA066665FFD0CFD
1FFFE26FF854446FE25FFD
1FFFFC15EFFFFFFC23EFFD
1FFFFFD316BCCA506FFFFD
1FFFFFFFA510026CFFFFFD
0EFFFFFFFFFFFFFFFFFFFB
0AFFFFFFFFFFFFFFFFFFF7
03FFFFFFFFFFFFFFFFFFE1
007FFFFFFFFFFFFFFFFF40
0006EFFFFFFFFFFFFFD400
000017BEFFFFFFFDA60000
ENDCHAR
STARTCHAR ordfeminine
ENCODING 170
SWIDTH 578 0
DWIDTH 21 0
BBX 22 25 -1 0
BITMAP
0000000011111110000000
000028CFFFFFFFFFB71000
0007FFFFDA8888AEFFE500
008FFFFFB0000003EFFF50
03FFFFFFE69AA930AFFFE1
0AFFFFFFFFFFFF808FFFF7
0EFFFFFFFFFFFF908FFFFC
1FFFFFFFFFDDDE908FFFFD
1FFFFFFF700000008FFFFD
1FFFFFFB013443108FFFFD
1FFFFFF809FFFF908FFFFD
1FFFFFF709FFFF808FFFFD
1FFFFFF9039AA930AFFFFD
1FFFFFFE20000003EFFFFD
1FFFFFFFE987789EFFFFFD
1FFFFFFFFFFFFFFFFFFFFD
1FFFFFFFFFFFFFFFFFFFFD
1FFFFFFFFFFFFFFFFFFFFD
1FFFFFFFFFFFFFFFFFFFFD
0EFFFFFFFFFFFFFFFFFFFB
0AFFFFFFFFFFFFFFFFFFF7
03FFFFFFFFFFFFFFFFFFE1
007FFFFFFFFFFFFFFFFF40
0006EFFFFFFFFFFFFFD400
000017BEFFFFFFFDA60000
ENDCHAR
STARTCHAR guillemotleft
ENCODING 171
SWIDTH 578 0
DWIDTH 21 0
BBX 22 25 -1 0
BITMAP
0000000011111110000000
000028CFFFFFFFFFB71000
0007FFFFFFFFFFFFFFE500
008FFFFFFFFFFFFFFFFF50
03FFFFFFFF9BFFD7FFFFE1
0AFFFFFFFD1BFE36FFFFF7
0EFFFFFFF36FF63FFFFFFC
1FFFFFFF72EF91DFFFFFFD
1FFFFFFC0BFC1AFFFFFFFD
1FFFFFE27FE26FFFFFFFFD
1FFFFF63FF63FFFFFFFFFD
1FFFFF62FF63EFFFFFFFFD
1FFFFFE27FE36FFFFFFFFD
1FFFFFFC0BFD1AFFFFFFFD
1FFFFFFF82EFA1DFFFFFFD
1FFFFFFFF46FF63EFFFFFD
1FFFFFFFFD1AFF36FFFFFD
1FFFFFFFFFABFFD8FFFFFD
1FFFFFFFFFFFFFFFFFFFFD
0EFFFFFFFFFFFFFFFFFFFB
0AFFFFFFFFFFFFFFFFFFF7
03FFFFFFFFFFFFFFFFFFE1
007FFFFFFFFFFFFFFFFF40
0006EFFFFFFFFFFFFFD400
000017BEFFFFFFFDA60000
ENDCHAR
STARTCHAR uni00AD
ENCODING 173
SWIDTH 428 0
DWIDTH 15 0
BBX 17 25 -1 0
BITMAP
000000001000000000
000028CFFFEA400000
0007FFFFFFFFFB1000
008FFFFFFFFFFFD100
03FFFFFFFFFFFFF900
0AFFFFFFFFFFFFFF10
0EFFFFFFFFFFFFFF50
1FFFF6000000FFFF70
1FFFF7222222FFFF70
1FFFFFFFFFFFFFFF70
1FFFFFFFFFFFFFFF70
1FFFFFFFFFFFFFFF70
1FFFFFFFFFFFFFFF70
1FFFFFFFFFFFFFFF70
1FFFFFFFFFFFFFFF70
1FFFFFFFFFFFFFFF70
1FFFFFFFFFFFFFFF70
1FFFFFFFFFFFFFFF70
1FFFFFFFFFFFFFFF70
0EFFFFFFFFFFFFFF50
0AFFFFFFFFFFFFFF10
03FFFFFFFFFFFFF900
007FFFFFFFFFFFC100
0006EFFFFFFFFA1000
000017BEFEC9300000
ENDCHAR
STARTCHAR registered
ENCODING 174
SWIDTH 578 0
DWIDTH 21 0
BBX 22 25 -1 0
BITMAP
0000000011111110000000
000028CFFFFFFFFFB71000
0007FFFFFC8779DFFFE500
008FFFFA20455305DFFF50
03FFFF618EFFFFD51AFFE1
0AFFF62CC77778CF90BFF7
0EFFB0CF9033311DF81EFC
1FFF37FF91FFFF1AFF28FD
1FFD0DFF91FFFF29FF93FD
1FFA2FFF91FFFE1BFFD0FD
1FF84FFF9044428FFFE0DD
1FF93FFF9077742DFFD0ED
1FFB1FFF91FFFF28FFB1FD
1FFE1BFF91FFFF38FF65FD
1FFF73FF91FFFF38FD0CFD
1FFFE26FB5FFFF7AE25FFD
1FFFFC15EFFFFFFC23EFFD
1FFFFFD316BCCA506FFFFD
1FFFFFFFA510026CFFFFFD
0EFFFFFFFFFFFFFFFFFFFB
0AFFFFFFFFFFFFFFFFFFF7
03FFFFFFFFFFFFFFFFFFE1
007FFFFFFFFFFFFFFFFF40
0006EFFFFFFFFFFFFFD400
000017BEFFFFFFFDA60000
ENDCHAR
STARTCHAR macron
ENCODING 175
SWIDTH 428 0
DWIDTH 15 0
BBX 16 11 0 0
BITMAP
0000146775200000
002AFFFFFFFC6000
05FFFFFFFFFFFB10
4FFFFFFFFFFFFFA0
BFFFFFFFFFFFFFF2
FFFF8666668FFFF6
FFFF2000004FFFF6
DFFFBAAAAABFFFF4
7FFFFFFFFFFFFFD0
0BFFFFFFFFFFFF30
01AFFFFFFFFFD300
ENDCHAR
STARTCHAR degree
ENCODING 176
SWIDTH 428 0
DWIDTH 15 0
BBX 17 25 -1 0
BITMAP
000000001000000000
000028CFFFEA400000
0007FFFDBCEFFB1000
008FFF40001BFFD100
03FFFA06A923FFF900
0AFFF80DFF51FFFF10
0EFFF90CFF42FFFF50
1FFFFC002105FFFF70
1FFFFFB6457FFFFF70
1FFFFFFFFFFFFFFF70
1FFFFFFFFFFFFFFF70
1FFFFFFFFFFFFFFF70
1FFFFFFFFFFFFFFF70
1FFFFFFFFFFFFFFF70
1FFFFFFFFFFFFFFF70
1FFFFFFFFFFFFFFF70
1FFFFFFFFFFFFFFF70
1FFFFFFFFFFFFFFF70
1FFFFFFFFFFFFFFF70
0EFFFFFFFFFFFFFF50
0AFFFFFFFFFFFFFF10
03FFFFFFFFFFFFF900
007FFFFFFFFFFFC100
0006EFFFFFFFFA1000
000017BEFEC9300000
ENDCHAR
STARTCHAR plusminus
ENCODING 177
SWIDTH 428 0
DWIDTH 15 0
BBX 17 25 -1 0
BITMAP
000000001000000000
000028CFFFEA400000
0007FFFE79FFFB1000
008FFFFE04FFFFD100
03FFFFFE04FFFFF900
0AFFEEED03EEEFFF10
0EFF800000000CFF50
1FFF933301333DFF70
1FFFFFFE04FFFFFF70
1FFFFFFE04FFFFFF70
1FFFFFFE04FFFFFF70
1FFFFFFFCDFFFFFF70
1FFFFB999999FFFF70
1FFFF6000000FFFF70
1FFFFA777777FFFF70
1FFFFFFFFFFFFFFF70
1FFFFFFFFFFFFFFF70
1FFFFFFFFFFFFFFF70
1FFFFFFFFFFFFFFF70
0EFFFFFFFFFFFFFF50
0AFFFFFFFFFFFFFF10
03FFFFFFFFFFFFF900
007FFFFFFFFFFFC100
0006EFFFFFFFFA1000
000017BEFEC9300000
ENDCHAR
STARTCHAR uni00B2
ENCODING 178
SWIDTH 578 0
DWIDTH 21 0
BBX 22 25 -1 0
BITMAP
0000000011111110000000
000028CFFFFFFFFFB71000
0007FFFFFB988AEFFFE500
008FFFFF8000003EFFFF50
03FFFFFF118A930AFFFFE1
0AFFFFFE89FFF808FFFFF7
0EFFFFFFFD85410BFFFFFC
1FFFFFFF7000028FFFFFFD
1FFFFFFF119BDFFFFFFFFD
1FFFFFFE03FFFFFFFFFFFD
1FFFFFFE0022225FFFFFFD
1FFFFFFF9000004FFFFFFD
1FFFFFFFFFFFFFFFFFFFFD
1FFFFFFFFFFFFFFFFFFFFD
1FFFFFFFFFFFFFFFFFFFFD
1FFFFFFFFFFFFFFFFFFFFD
1FFFFFFFFFFFFFFFFFFFFD
1FFFFFFFFFFFFFFFFFFFFD
1FFFFFFFFFFFFFFFFFFFFD
0EFFFFFFFFFFFFFFFFFFFB
0AFFFFFFFFFFFFFFFFFFF7
03FFFFFFFFFFFFFFFFFFE1
007FFFFFFFFFFFFFFFFF40
0006EFFFFFFFFFFFFFD400
000017BEFFFFFFFDA60000
ENDCHAR
STARTCHAR uni00B3
ENCODING 179
SWIDTH 578 0
DWIDTH 21 0
BBX 22 25 -1 0
BITMAP
0000000011111110000000
000028CFFFFFFFFFB71000
0007FFFFFD9888AEFFE500
008FFFFFC1000002DFFF50
03FFFFFF4069A9507FFFE1
0AFFFFFFECFFFFA06FFFF7
0EFFFFFFFFF55410AFFFFC
1FFFFFFFFFF22200AFFFFD
1FFFFFFFFFFFFFA07FFFFD
1FFFFFFF40CFFF907FFFFD
1FFFFFFF70011100AFFFFD
1FFFFFFFF6210128FFFFFD
1FFFFFFFFFFFFFFFFFFFFD
1FFFFFFFFFFFFFFFFFFFFD
1FFFFFFFFFFFFFFFFFFFFD
1FFFFFFFFFFFFFFFFFFFFD
1FFFFFFFFFFFFFFFFFFFFD
1FFFFFFFFFFFFFFFFFFFFD
1FFFFFFFFFFFFFFFFFFFFD
0EFFFFFFFFFFFFFFFFFFFB
0AFFFFFFFFFFFFFFFFFFF7
03FFFFFFFFFFFFFFFFFFE1
007FFFFFFFFFFFFFFFFF40
0006EFFFFFFFFFFFFFD400
000017BEFFFFFFFDA60000
ENDCHAR
STARTCHAR acute
ENCODING 180
SWIDTH 308 0
DWIDTH 11 0
BBX 13 13 -1 0
BITMAP
00000010000000
0002AEFFE93000
001EFFFFFFF500
007FFFFFFFFE00
00BFFF10EFFF20
01FFFB06FFFE00
06FFF60DFFF800
0AFFF24FFFE100
0EFFC0BFFF6000
1FFF95FFFC0000
0DFFFFFFF30000
05FFFFFF900000
00499999100000
ENDCHAR
STARTCHAR uni00B5
ENCODING 181
SWIDTH 578 0
DWIDTH 21 0
BBX 22 25 -1 0
BITMAP
0000000011111110000000
000028CFFFFFFFFFB71000
0007FF98FFFFFFFA8EE500
008FFF20FFFFFFF40CFF50
03FFFF20FFFFFFF40CFFE1
0AFFFF20FFFFFFF40CFFF7
0EFFFF20FFFFFFF40CFFFC
1FFFFF20FFFFFFF40CFFFD
1FFFFF20FFFFFFF40CFFFD
1FFFFF20FFFFFFF40CFFFD
1FFFFF20FFFFFFF40CFFFD
1FFFFF20FFFFFFF40CFFFD
1FFFFF20FFFFFFF40CFFFD
1FFFFF20FFFFFFF40CFFFD
1FFFFF20DFFFFFF20DFFFD
1FFFFF20022222102FFFFD
1FFFFF2020000013CFFFFD
1FFFFF20FFFFFFFFFFFFFD
1FFFFF20FFFFFFFFFFFFFD
0EFFFFBAFFFFFFFFFFFFFB
0AFFFFFFFFFFFFFFFFFFF7
03FFFFFFFFFFFFFFFFFFE1
007FFFFFFFFFFFFFFFFF40
0006EFFFFFFFFFFFFFD400
000017BEFFFFFFFDA60000
ENDCHAR
STARTCHAR paragraph
ENCODING 182
SWIDTH 578 0
DWIDTH 21 0
BBX 22 25 -1 0
BITMAP
0000000011111110000000
000028CFFFFFFFFFB71000
0007FFFFFDDDDDDDFFE500
008FFFF600000000EFFF50
03FFFFB000000BE0EFFFE1
0AFFFF9000000BF0EFFFF7
0EFFFF9000000BF0EFFFFC
1FFFFF9000000BF0EFFFFD
1FFFFFB000000BF0EFFFFD
1FFFFFE300000BF0EFFFFD
1FFFFFFFDBBB2BF0EFFFFD
1FFFFFFFFFFF2BF0EFFFFD
1FFFFFFFFFFF2BF0EFFFFD
1FFFFFFFFFFF2BF0EFFFFD
1FFFFFFFFFFF2BF0EFFFFD
1FFFFFFFFFFF2BF0EFFFFD
1FFFFFFFFFFF7CF5EFFFFD
1FFFFFFFFFFFFFFFFFFFFD
1FFFFFFFFFFFFFFFFFFFFD
0EFFFFFFFFFFFFFFFFFFFB
0AFFFFFFFFFFFFFFFFFFF7
03FFFFFFFFFFFFFFFFFFE1
007FFFFFFFFFFFFFFFFF40
0006EFFFFFFFFFFFFFD400
000017BEFFFFFFFDA60000
ENDCHAR
STARTCHAR periodcentered
ENCODING 183
SWIDTH 428 0
DWIDTH 15 0
BBX 17 25 -1 0
BITMAP
000000001000000000
000028CFFFEA400000
0007FFFFFFFFFB1000
008FFFFFFFFFFFD100
03FFFFFFFFFFFFF900
0AFFFFFFFFFFFFFF10
0EFFFFFFFFFFFFFF50
1FFFFFF802FFFFFF70
1FFFFFF802FFFFFF70
1FFFFFFDCCFFFFFF70
1FFFFFFFFFFFFFFF70
1FFFFFFFFFFFFFFF70
1FFFFFFFFFFFFFFF70
1FFFFFFFFFFFFFFF70
1FFFFFFFFFFFFFFF70
1FFFFFFFFFFFFFFF70
1FFFFFFFFFFFFFFF70
1FFFFFFFFFFFFFFF70
1FFFFFFFFFFFFFFF70
0EFFFFFFFFFFFFFF50
0AFFFFFFFFFFFFFF10
03FFFFFFFFFFFFF900
007FFFFFFFFFFFC100
0006EFFFFFFFFA1000
000017BEFEC9300000
ENDCHAR
STARTCHAR cedilla
ENCODING 184
SWIDTH 101 0
DWIDTH 4 0
BBX 5 7 -1 -6
BITMAP
000110
016BA0
0BFF90
1FA100
0FB210
09FFB0
005750
ENDCHAR
STARTCHAR uni00B9
ENCODING 185
SWIDTH 578 0
DWIDTH 21 0
BBX 22 25 -1 0
BITMAP
0000000011111110000000
000028CFFFFFFFFFB71000
0007FFFFFFB78FFFFFE500
008FFFFFC1002FFFFFFF50
03FFFFFFB1502FFFFFFFE1
0AFFFFFFEFF02FFFFFFFF7
0EFFFFFFFFF02FFFFFFFFC
1FFFFFFFFFF02FFFFFFFFD
1FFFFFFFFFF02FFFFFFFFD
1FFFFFFFFFF02FFFFFFFFD
1FFFFFFFFFF02FFFFFFFFD
1FFFFFFFFFF03FFFFFFFFD
1FFFFFFFFFFFFFFFFFFFFD
1FFFFFFFFFFFFFFFFFFFFD
1FFFFFFFFFFFFFFFFFFFFD
1FFFFFFFFFFFFFFFFFFFFD
1FFFFFFFFFFFFFFFFFFFFD
1FFFFFFFFFFFFFFFFFFFFD
1FFFFFFFFFFFFFFFFFFFFD
0EFFFFFFFFFFFFFFFFFFFB
0AFFFFFFFFFFFFFFFFFFF7
03FFFFFFFFFFFFFFFFFFE1
007FFFFFFFFFFFFFFFFF40
0006EFFFFFFFFFFFFFD400
000017BEFFFFFFFDA60000
ENDCHAR
STARTCHAR ordmasculine
ENCODING 186
SWIDTH 578 0
DWIDTH 21 0
BBX 22 25 -1 0
BITMAP
0000000011111110000000
000028CFFFFFFFFFB71000
0007FFFFDA88888AFFE500
008FFFFD200000004FFF50
03FFFFF8049AAA920CFFE1
0AFFFFF60BFFFFF70AFFF7
0EFFFFF60BFFFFF70AFFFC
1FFFFFF60BFFFFF70AFFFD
1FFFFFF60BFFFFF70AFFFD
1FFFFFF60BFFFFF70AFFFD
1FFFFFF60BFFFFF70AFFFD
1FFFFFF60BFFFFF70AFFFD
1FFFFFF8049AAA920CFFFD
1FFFFFFD100000004FFFFD
1FFFFFFFD9877789EFFFFD
1FFFFFFFFFFFFFFFFFFFFD
1FFFFFFFFFFFFFFFFFFFFD
1FFFFFFFFFFFFFFFFFFFFD
1FFFFFFFFFFFFFFFFFFFFD
0EFFFFFFFFFFFFFFFFFFFB
0AFFFFFFFFFFFFFFFFFFF7
03FFFFFFFFFFFFFFFFFFE1
007FFFFFFFFFFFFFFFFF40
0006EFFFFFFFFFFFFFD400
000017BEFFFFFFFDA60000
ENDCHAR
STARTCHAR guillemotright
ENCODING 187
SWIDTH 578 0
DWIDTH 21 0
BBX 22 25 -1 0
BITMAP
0000000011111110000000
000028CFFFFFFFFFB71000
0007FFFFFFFFFFFFFFE500
008FFFFFFFFFFFFFFFFF50
03FFFFF6EFF9BFFFFFFFE1
0AFFFFF35FF82EFFFFFFF7
0EFFFFFD19FF36FFFFFFFC
1FFFFFFFB0CFD1AFFFFFFD
1FFFFFFFF72EF91EFFFFFD
1FFFFFFFFF45FF44FFFFFD
1FFFFFFFFFD19FD19FFFFD
1FFFFFFFFFD19FD19FFFFD
1FFFFFFFFF35FF45FFFFFD
1FFFFFFFF72EF81EFFFFFD
1FFFFFFFA1CFD1BFFFFFFD
1FFFFFFD19FF36FFFFFFFD
1FFFFFF36FF72EFFFFFFFD
1FFFFFF7EFF9CFFFFFFFFD
1FFFFFFFFFFFFFFFFFFFFD
0EFFFFFFFFFFFFFFFFFFFB
0AFFFFFFFFFFFFFFFFFFF7
03FFFFFFFFFFFFFFFFFFE1
007FFFFFFFFFFFFFFFFF40
0006EFFFFFFFFFFFFFD400
000017BEFFFFFFFDA60000
ENDCHAR
STARTCHAR onequarter
ENCODING 188
SWIDTH 578 0
DWIDTH 21 0
BBX 22 25 -1 0
BITMAP
0000000011111110000000
000028CFFFFFFFFFB71000
0007EB78FFF88FFFFFE500
008C1002FFD04FFFFFFF50
03FB1502FF908FFFFFFFE1
0AFEFF02FF50BFFFFFFFF7
0EFFFF02FF20EFFFFFFFFC
1FFFFF02FD03FFFFFFFFFD
1FFFFF02FA07BAEFDACFFD
1FFFFF02F60B40DFA07FFD
1FFFFF02F20E40DFA07FFD
1FFFFF03E03F40DFA07FFD
1FFFFFFFA07F40DFA07FFD
1FFFFFFF60AF40CFA07FFD
1FFFFFFF30EF801320126D
1FFFFFFE03FFF51000004D
1FFFFFFA06FFFFFFA07FFD
1FFFFFFFFFFFFFFFA07FFD
1FFFFFFFFFFFFFFFC49FFD
0EFFFFFFFFFFFFFFFFFFFB
0AFFFFFFFFFFFFFFFFFFF7
03FFFFFFFFFFFFFFFFFFE1
007FFFFFFFFFFFFFFFFF40
0006EFFFFFFFFFFFFFD400
000017BEFFFFFFFDA60000
ENDCHAR
STARTCHAR onehalf
ENCODING 189
SWIDTH 578 0
DWIDTH 21 0
BBX 22 25 -1 0
BITMAP
0000000011111110000000
000028CFFFFFFFFFB71000
0007EB78FFF88FFFFFE500
008C1002FFD04FFFFFFF50
03FB1502FF908FFFFFFFE1
0AFEFF02FF50BFFFFFFFF7
0EFFFF02FF20EFFFFFFFFC
1FFFFF02FD03FEA88ADFFD
1FFFFF02FA07D200000BFD
1FFFFF02F60B70489703FD
1FFFFF02F20EA7DFFF01FD
1FFFFF03E03FFFB75303FD
1FFFFFFFA07FD100004DFD
1FFFFFFF60AF7059BEFFFD
1FFFFFFF30EF60BFFFFFFD
1FFFFFFE03FF6023333DFD
1FFFFFFA06FFD200000CFD
1FFFFFFFFFFFFFFFFFFFFD
1FFFFFFFFFFFFFFFFFFFFD
0EFFFFFFFFFFFFFFFFFFFB
0AFFFFFFFFFFFFFFFFFFF7
03FFFFFFFFFFFFFFFFFFE1
007FFFFFFFFFFFFFFFFF40
0006EFFFFFFFFFFFFFD400
000017BEFFFFFFFDA60000
ENDCHAR
STARTCHAR threequarters
ENCODING 190
SWIDTH 578 0
DWIDTH 21 0
BBX 22 25 -1 0
BITMAP
0000000011111110000000
000028CFFFFFFFFFB71000
0007EB78FFF88FFFFFE500
008C1002FFD04FFFFFFF50
03FB1502FF908FFFFFFFE1
0AFEFF02FF50BFFFFFFFF7
0EFFFF02FF20EFFFFFFFFC
1FFFFF02FD03FEB99ACEFD
1FFFFF02FA07C1000004ED
1FFFFF02F60B405887309D
1FFFFF02F20ECBFFFF907D
1FFFFF03E03FFFF66620AD
1FFFFFFFA07FFFF00000CD
1FFFFFFF60AFFFFFFF808D
1FFFFFFF30EF41EFFF907D
1FFFFFFE03FF50133200AD
1FFFFFFA06FFE4000017FD
1FFFFFFFFFFFFFFEEEFFFD
1FFFFFFFFFFFFFFFFFFFFD
0EFFFFFFFFFFFFFFFFFFFB
0AFFFFFFFFFFFFFFFFFFF7
03FFFFFFFFFFFFFFFFFFE1
007FFFFFFFFFFFFFFFFF40
0006EFFFFFFFFFFFFFD400
000017BEFFFFFFFDA60000
ENDCHAR
STARTCHAR questiondown
ENCODING 191
SWIDTH 578 0
DWIDTH 21 0
BBX 22 25 -1 0
BITMAP
0000000011111110000000
000028CFFFFFFFFFB71000
0007FFFFFFFD69FFFFE500
008FFFFFFFFC05FFFFFF50
03FFFFFFFFFECDFFFFFFE1
0AFFFFFFFFFF39FFFFFFF7
0EFFFFFFFFFF08FFFFFFFC
1FFFFFFFFFFF08FFFFFFFD
1FFFFFFFA42208FFFFFFFD
1FFFFFFC03456EFFFFFFFD
1FFFFFF80EFFFFFFFFFFFD
1FFFFFF70FFFFFFFFFFFFD
1FFFFFF70FFFFFFFFFFFFD
1FFFFFF70FFFFFFCAFFFFD
1FFFFFF90DFFFFE61FFFFD
1FFFFFFD101100006FFFFD
1FFFFFFFD8666679FFFFFD
1FFFFFFFFFFFFFFFFFFFFD
1FFFFFFFFFFFFFFFFFFFFD
0EFFFFFFFFFFFFFFFFFFFB
0AFFFFFFFFFFFFFFFFFFF7
03FFFFFFFFFFFFFFFFFFE1
007FFFFFFFFFFFFFFFFF40
0006EFFFFFFFFFFFFFD400
000017BEFFFFFFFDA60000
ENDCHAR
STARTCHAR Agrave
ENCODING 192
SWIDTH 578 0
DWIDTH 21 0
BBX 22 35 -1 0
BITMAP
0000000001000000000000
0000016CFFFC6000000000
00001CFFFFFFF700000000
00007FFFFFFFFE00000000
0000AFFF608FFF30000000
00007FFFD04FFF80000000
00001EFFF50EFFD0000000
000008FFFC0AFFF2000000
000001DFFF45FFF6000000
0000005FFFB3FFF8000000
0000000BFFFFFFF5000000
000028CFFFFFFFFFB71000
0007FFFFFFFFFFCEFFE500
008FFFFE20000003EFFF50
03FFFFF8048AA8309FFFE1
0AFFFFF70AFFFF907FFFF7
0EFFFFF50CFFFFA06FFFFC
1FFFFFF30DFFFFC04FFFFD
1FFFFFF20EFFFFE03FFFFD
1FFFFFF01FFFFFF01FFFFD
1FFFFFE0000000000EFFFD
1FFFFFC0155555510DFFFD
1FFFFFA05FFFFFF50BFFFD
1FFFFF907FFFFFF60AFFFD
1FFFFF708FFFFFF808FFFD
1FFFFF509FFFFFF906FFFD
1FFFFF40AFFFFFFA05FFFD
1FFFFFFFFFFFFFFFFFFFFD
1FFFFFFFFFFFFFFFFFFFFD
0EFFFFFFFFFFFFFFFFFFFB
0AFFFFFFFFFFFFFFFFFFF7
03FFFFFFFFFFFFFFFFFFE1
007FFFFFFFFFFFFFFFFF40
0006EFFFFFFFFFFFFFD400
000017BEFFFFFFFDA60000
ENDCHAR
STARTCHAR Aacute
ENCODING 193
SWIDTH 578 0
DWIDTH 21 0
BBX 22 35 -1 0
BITMAP
0000000000000100000000
00000000006CFFFC610000
0000000007FFFFFFFC1000
000000000EFFFFFFFF7000
000000004FFF806FFF9000
000000008FFF40DFFF7000
00000000DFFE05FFFE1000
00000002FFFA0CFFF70000
00000006FFF54FFFD10000
00000008FFF3BFFF500000
00000006FFFFFFFB000000
000028CFFFFFFFFFB71000
0007FFFFFFFFFFFEFFE500
008FFFFE20000003EFFF50
03FFFFF8048AA8309FFFE1
0AFFFFF70AFFFF907FFFF7
0EFFFFF50CFFFFA06FFFFC
1FFFFFF30DFFFFC04FFFFD
1FFFFFF20EFFFFE03FFFFD
1FFFFFF01FFFFFF01FFFFD
1FFFFFE0000000000EFFFD
1FFFFFC0155555510DFFFD
1FFFFFA05FFFFFF50BFFFD
1FFFFF907FFFFFF60AFFFD
1FFFFF708FFFFFF808FFFD
1FFFFF509FFFFFF906FFFD
1FFFFF40AFFFFFFA05FFFD
1FFFFFFFFFFFFFFFFFFFFD
1FFFFFFFFFFFFFFFFFFFFD
0EFFFFFFFFFFFFFFFFFFFB
0AFFFFFFFFFFFFFFFFFFF7
03FFFFFFFFFFFFFFFFFFE1
007FFFFFFFFFFFFFFFFF40
0006EFFFFFFFFFFFFFD400
000017BEFFFFFFFDA60000
ENDCHAR
STARTCHAR Acircumflex
ENCODING 194
SWIDTH 578 0
DWIDTH 21 0
BBX 22 35 -1 0
BITMAP
0000000004ACC930000000
000000007FFFFFE3000000
00000001EFFFFFFC000000
00000008FFF9AFFF400000
0000000EFFB21EFFB00000
0000006FFF5749FFF20000
000000CFFE0C83FFF80000
000002FFF92FD0CFFD0000
000006FFF37FF36FFF3000
000009FFE7DFFB8FFF5000
000008FFFFFFFFFFFF3000
00002AFFFFFFFFFFFF1000
0007FFFFFFDCCDFFFFE500
008FFFFE20000003EFFF50
03FFFFF8048AA8309FFFE1
0AFFFFF70AFFFF907FFFF7
0EFFFFF50CFFFFA06FFFFC
1FFFFFF30DFFFFC04FFFFD
1FFFFFF20EFFFFE03FFFFD
1FFFFFF01FFFFFF01FFFFD
1FFFFFE0000000000EFFFD
1FFFFFC0155555510DFFFD
1FFFFFA05FFFFFF50BFFFD
1FFFFF907FFFFFF60AFFFD
1FFFFF708FFFFFF808FFFD
1FFFFF509FFFFFF906FFFD
1FFFFF40AFFFFFFA05FFFD
1FFFFFFFFFFFFFFFFFFFFD
1FFFFFFFFFFFFFFFFFFFFD
0EFFFFFFFFFFFFFFFFFFFB
0AFFFFFFFFFFFFFFFFFFF7
03FFFFFFFFFFFFFFFFFFE1
007FFFFFFFFFFFFFFFFF40
0006EFFFFFFFFFFFFFD400
000017BEFFFFFFFDA60000
ENDCHAR
STARTCHAR Atilde
ENCODING 195
SWIDTH 578 0
DWIDTH 21 0
BBX 22 35 -1 0
BITMAP
0000000004788730000000
00000007EFFFFFFD600000
000001BFFFFFFFFFFA0000
00000AFFFFFFFFFFFF8000
00004FFFFFFFFFFFFFF200
00009FFFFFFFFFFFFFF700
0000CFFFFFFFFFFFFFFA00
0000CFFF845AFC07FFFA00
0000AFFE01302208FFF800
00005FFC29FB533DFFF300
00000CFFFFFFFFFFFFA000
00002AFFFFFFFFFFFF2000
0007FFFFEB9889BEFFE500
008FFFFE20000003EFFF50
03FFFFF8048AA8309FFFE1
0AFFFFF70AFFFF907FFFF7
0EFFFFF50CFFFFA06FFFFC
1FFFFFF30DFFFFC04FFFFD
1FFFFFF20EFFFFE03FFFFD
1FFFFFF01FFFFFF01FFFFD
1FFFFFE0000000000EFFFD
1FFFFFC0155555510DFFFD
1FFFFFA05FFFFFF50BFFFD
1FFFFF907FFFFFF60AFFFD
1FFFFF708FFFFFF808FFFD
1FFFFF509FFFFFF906FFFD
1FFFFF40AFFFFFFA05FFFD
1FFFFFFFFFFFFFFFFFFFFD
1FFFFFFFFFFFFFFFFFFFFD
0EFFFFFFFFFFFFFFFFFFFB
0AFFFFFFFFFFFFFFFFFFF7
03FFFFFFFFFFFFFFFFFFE1
007FFFFFFFFFFFFFFFFF40
0006EFFFFFFFFFFFFFD400
000017BEFFFFFFFDA60000
ENDCHAR
STARTCHAR Adieresis
ENCODING 196
SWIDTH 578 0
DWIDTH 21 0
BBX 22 33 -1 0
BITMAP
0000000001455410000000
00000004BFFFFFFA300000
0000008FFFFFFFFFF60000
000005FFFFFFFFFFFF4000
00000DFFFFFFFFFFFFB000
00001FFF616FE11CFFE000
00001FFF505FE00BFFE000
00000DFFBABFFAAEFFB000
000006FFFFFFFFFFFF4000
000028FFFFFFFFFFFF1000
0007FFFFFFDCCDFFFFE500
008FFFFE20000003EFFF50
03FFFFF8048AA8309FFFE1
0AFFFFF70AFFFF907FFFF7
0EFFFFF50CFFFFA06FFFFC
1FFFFFF30DFFFFC04FFFFD
1FFFFFF20EFFFFE03FFFFD
1FFFFFF01FFFFFF01FFFFD
1FFFFFE0000000000EFFFD
1FFFFFC0155555510DFFFD
1FFFFFA05FFFFFF50BFFFD
1FFFFF907FFFFFF60AFFFD
1FFFFF708FFFFFF808FFFD
1FFFFF509FFFFFF906FFFD
1FFFFF40AFFFFFFA05FFFD
1FFFFFFFFFFFFFFFFFFFFD
1FFFFFFFFFFFFFFFFFFFFD
0EFFFFFFFFFFFFFFFFFFFB
0AFFFFFFFFFFFFFFFFFFF7
03FFFFFFFFFFFFFFFFFFE1
007FFFFFFFFFFFFFFFFF40
0006EFFFFFFFFFFFFFD400
000017BEFFFFFFFDA60000
ENDCHAR
STARTCHAR Aring
ENCODING 197
SWIDTH 578 0
DWIDTH 21 0
BBX 22 35 -1 0
BITMAP
0000000000132000000000
000000006CFFFEA2000000
0000001BFFFFFFFF500000
000000AFFFFFFFFFF30000
000004FFFA2014EFFC0000
000009FFE059816FFF3000
00000DFFB0DFF54FFF6000
00000EFFC0CFF44FFF7000
00000DFFE213208FFF6000
00000AFFFD7669FFFF3000
000004FFFFFFFFFFFD0000
000028FFFFFFFFFFFB1000
0007FFFFEB9889BEFFE500
008FFFFE20000003EFFF50
03FFFFF8048AA8309FFFE1
0AFFFFF70AFFFF907FFFF7
0EFFFFF50CFFFFA06FFFFC
1FFFFFF30DFFFFC04FFFFD
1FFFFFF20EFFFFE03FFFFD
1FFFFFF01FFFFFF01FFFFD
1FFFFFE0000000000EFFFD
1FFFFFC0155555510DFFFD
1FFFFFA05FFFFFF50BFFFD
1FFFFF907FFFFFF60AFFFD
1FFFFF708FFFFFF808FFFD
1FFFFF509FFFFFF906FFFD
1FFFFF40AFFFFFFA05FFFD
1FFFFFFFFFFFFFFFFFFFFD
1FFFFFFFFFFFFFFFFFFFFD
0EFFFFFFFFFFFFFFFFFFFB
0AFFFFFFFFFFFFFFFFFFF7
03FFFFFFFFFFFFFFFFFFE1
007FFFFFFFFFFFFFFFFF40
0006EFFFFFFFFFFFFFD400
000017BEFFFFFFFDA60000
ENDCHAR
STARTCHAR AE
ENCODING 198
SWIDTH 578 0
DWIDTH 21 0
BBX 22 25 -1 0
BITMAP
0000000011111110000000
000028CFFFFFFFFFB71000
0007FFFEB97777777AE500
008FFFE40000000006FF50
03FFFFB038A10AAAACFFE1
0AFFFF908FF20FFFFFFFF7
0EFFFF809FF20FFFFFFFFC
1FFFFF60BFF20FFFFFFFFD
1FFFFF40CFF20BBBBDFFFD
1FFFFF30EFF2000006FFFD
1FFFFF10FFF206666AFFFD
1FFFFE02FFF20FFFFFFFFD
1FFFFD03CCC10FFFFFFFFD
1FFFFB0000000FFFFFFFFD
1FFFF90366610FFFFFFFFD
1FFFF809FFF2022227FFFD
1FFFF71BFFF3111117FFFD
1FFFFFFFFFFFFFFFFFFFFD
1FFFFFFFFFFFFFFFFFFFFD
0EFFFFFFFFFFFFFFFFFFFB
0AFFFFFFFFFFFFFFFFFFF7
03FFFFFFFFFFFFFFFFFFE1
007FFFFFFFFFFFFFFFFF40
0006EFFFFFFFFFFFFFD400
000017BEFFFFFFFDA60000
ENDCHAR
STARTCHAR Ccedilla
ENCODING 199
SWIDTH 578 0
DWIDTH 21 0
BBX 22 25 -1 0
BITMAP
0000000011111110000000
000028CFFFFFFFFFB71000
0007FFFE9888889BFFE500
008FFFE200000003FFFF50
03FFFF9049AAAA89FFFFE1
0AFFFF70AFFFFFFFFFFFF7
0EFFFF70AFFFFFFFFFFFFC
1FFFFF70AFFFFFFFFFFFFD
1FFFFF70AFFFFFFFFFFFFD
1FFFFF70AFFFFFFFFFFFFD
1FFFFF70AFFFFFFFFFFFFD
1FFFFF70AFFFFFFFFFFFFD
1FFFFF70AFFFFFFFFFFFFD
1FFFFF70AFFFFFFFFFFFFD
1FFFFF808FFFFFFFFFFFFD
1FFFFFB002333315FFFFFD
1FFFFFF810000014FFFFFD
1FFFFFFFFFA45FFFFFFFFD
1FFFFFFFF6005FFFFFFFFD
0EFFFFFFE05CEFFFFFFFFB
0AFFFFFFF05FFFFFFFFFF7
03FFFFFFF4005FFFFFFFE1
007FFFFFFE868FFFFFFF40
0006EFFFFFFFFFFFFFD400
000017BEFFFFFFFDA60000
ENDCHAR
STARTCHAR Egrave
ENCODING 200
SWIDTH 578 0
DWIDTH 21 0
BBX 22 35 -1 0
BITMAP
0000000001100000000000
0000004AEFFE9100000000
000008FFFFFFFC00000000
00002FFFFFFFFF40000000
00004FFFC03FFF90000000
00002FFFF30DFFD0000000
00000AFFFA09FFF3000000
000002FFFF24FFF7000000
0000008FFF90EFFB000000
0000001EFFF3BFFD000000
00000006FFFFFFFB000000
000028CFFFFFFFFFB71000
0007FFFFAFFFFFA8AFE500
008FFFFF100000005FFF50
03FFFFFF11AAAAAABFFFE1
0AFFFFFF12FFFFFFFFFFF7
0EFFFFFF12FFFFFFFFFFFC
1FFFFFFF12FFFFFFFFFFFD
1FFFFFFF11DDDDDDFFFFFD
1FFFFFFF10000004FFFFFD
1FFFFFFF10444447FFFFFD
1FFFFFFF12FFFFFFFFFFFD
1FFFFFFF12FFFFFFFFFFFD
1FFFFFFF12FFFFFFFFFFFD
1FFFFFFF12FFFFFFFFFFFD
1FFFFFFF103333334FFFFD
1FFFFFFF100000001FFFFD
1FFFFFFFFFFFFFFFFFFFFD
1FFFFFFFFFFFFFFFFFFFFD
0EFFFFFFFFFFFFFFFFFFFB
0AFFFFFFFFFFFFFFFFFFF7
03FFFFFFFFFFFFFFFFFFE1
007FFFFFFFFFFFFFFFFF40
0006EFFFFFFFFFFFFFD400
000017BEFFFFFFFDA60000
ENDCHAR
STARTCHAR Eacute
ENCODING 201
SWIDTH 578 0
DWIDTH 21 0
BBX 22 35 -1 0
BITMAP
0000000000000100000000
00000000003BFFFD820000
0000000002EFFFFFFE4000
0000000008FFFFFFFFD000
000000000DFFD01FFFF000
000000003FFF908FFFC000
000000007FFF41EFFF6000
00000000CFFE16FFFD0000
00000001FFFA0DFFF40000
00000003FFF86FFFA00000
00000001FFFFFFFF200000
000028CFFFFFFFFFB71000
0007FFFF8DFFFFF8AFE500
008FFFFF100000005FFF50
03FFFFFF11AAAAAABFFFE1
0AFFFFFF12FFFFFFFFFFF7
0EFFFFFF12FFFFFFFFFFFC
1FFFFFFF12FFFFFFFFFFFD
1FFFFFFF11DDDDDDFFFFFD
1FFFFFFF10000004FFFFFD
1FFFFFFF10444447FFFFFD
1FFFFFFF12FFFFFFFFFFFD
1FFFFFFF12FFFFFFFFFFFD
1FFFFFFF12FFFFFFFFFFFD
1FFFFFFF12FFFFFFFFFFFD
1FFFFFFF103333334FFFFD
1FFFFFFF100000001FFFFD
1FFFFFFFFFFFFFFFFFFFFD
1FFFFFFFFFFFFFFFFFFFFD
0EFFFFFFFFFFFFFFFFFFFB
0AFFFFFFFFFFFFFFFFFFF7
03FFFFFFFFFFFFFFFFFFE1
007FFFFFFFFFFFFFFFFF40
0006EFFFFFFFFFFFFFD400
000017BEFFFFFFFDA60000
ENDCHAR
STARTCHAR Ecircumflex
ENCODING 202
SWIDTH 578 0
DWIDTH 21 0
BBX 22 35 -1 0
BITMAP
00000000029CCB50000000
000000002EFFFFF7000000
00000000BFFFFFFF200000
00000002FFFB9EFF900000
00000009FFF12AFFF10000
0000001EFFA294FFF70000
0000007FFF57D0DFFD0000
000000CFFE0CF37FFF3000
000001FFF82FF81FFF8000
000004FFF9AFFD7DFFA000
000002FFFFFFFFFFFF9000
000028FFFFFFFFFFFF4000
0007FFFFCCCCCCCCEFE500
008FFFFF100000005FFF50
03FFFFFF11AAAAAABFFFE1
0AFFFFFF12FFFFFFFFFFF7
0EFFFFFF12FFFFFFFFFFFC
1FFFFFFF12FFFFFFFFFFFD
1FFFFFFF11DDDDDDFFFFFD
1FFFFFFF10000004FFFFFD
1FFFFFFF10444447FFFFFD
1FFFFFFF12FFFFFFFFFFFD
1FFFFFFF12FFFFFFFFFFFD
1FFFFFFF12FFFFFFFFFFFD
1FFFFFFF12FFFFFFFFFFFD
1FFFFFFF103333334FFFFD
1FFFFFFF100000001FFFFD
1FFFFFFFFFFFFFFFFFFFFD
1FFFFFFFFFFFFFFFFFFFFD
0EFFFFFFFFFFFFFFFFFFFB
0AFFFFFFFFFFFFFFFFFFF7
03FFFFFFFFFFFFFFFFFFE1
007FFFFFFFFFFFFFFFFF40
0006EFFFFFFFFFFFFFD400
000017BEFFFFFFFDA60000
ENDCHAR
STARTCHAR Edieresis
ENCODING 203
SWIDTH 578 0
DWIDTH 21 0
BBX 22 33 -1 0
BITMAP
0000000000355420000000
000000019EFFFFFD600000
0000003EFFFFFFFFFB1000
000001EFFFFFFFFFFF9000
000007FFFFFFFFFFFFF200
00000BFFB11FF617FFF500
00000AFFB00FF506FFF500
000007FFEAAFFBACFFF200
000002EFFFFFFFFFFFA000
000028FFFFFFFFFFFF2000
0007FFFFCCCCCCCCEFE500
008FFFFF100000005FFF50
03FFFFFF11AAAAAABFFFE1
0AFFFFFF12FFFFFFFFFFF7
0EFFFFFF12FFFFFFFFFFFC
1FFFFFFF12FFFFFFFFFFFD
1FFFFFFF11DDDDDDFFFFFD
1FFFFFFF10000004FFFFFD
1FFFFFFF10444447FFFFFD
1FFFFFFF12FFFFFFFFFFFD
1FFFFFFF12FFFFFFFFFFFD
1FFFFFFF12FFFFFFFFFFFD
1FFFFFFF12FFFFFFFFFFFD
1FFFFFFF103333334FFFFD
1FFFFFFF100000001FFFFD
1FFFFFFFFFFFFFFFFFFFFD
1FFFFFFFFFFFFFFFFFFFFD
0EFFFFFFFFFFFFFFFFFFFB
0AFFFFFFFFFFFFFFFFFFF7
03FFFFFFFFFFFFFFFFFFE1
007FFFFFFFFFFFFFFFFF40
0006EFFFFFFFFFFFFFD400
000017BEFFFFFFFDA60000
ENDCHAR
STARTCHAR Igrave
ENCODING 204
SWIDTH 578 0
DWIDTH 21 0
BBX 22 35 -1 0
BITMAP
0000000001100000000000
00000039EFFEA200000000
000006FFFFFFFD10000000
00001EFFFFFFFF60000000
00002FFFD01FFFB0000000
00000EFFF60BFFF1000000
000008FFFC07FFF5000000
000001EFFF42FFF9000000
0000006FFFB0DFFD000000
0000000CFFF5AFFF000000
00000004FFFFFFFD000000
000028CFFFFFFFFFB71000
0007FFFA9FFFFFB88CE500
008FFFF40000000008FF50
03FFFFFBAAA406AAADFFE1
0AFFFFFFFFF70AFFFFFFF7
0EFFFFFFFFF70AFFFFFFFC
1FFFFFFFFFF70AFFFFFFFD
1FFFFFFFFFF70AFFFFFFFD
1FFFFFFFFFF70AFFFFFFFD
1FFFFFFFFFF70AFFFFFFFD
1FFFFFFFFFF70AFFFFFFFD
1FFFFFFFFFF70AFFFFFFFD
1FFFFFFFFFF70AFFFFFFFD
1FFFFFFFFFF70AFFFFFFFD
1FFFFFF63331023339FFFD
1FFFFFF40000000008FFFD
1FFFFFFFFFFFFFFFFFFFFD
1FFFFFFFFFFFFFFFFFFFFD
0EFFFFFFFFFFFFFFFFFFFB
0AFFFFFFFFFFFFFFFFFFF7
03FFFFFFFFFFFFFFFFFFE1
007FFFFFFFFFFFFFFFFF40
0006EFFFFFFFFFFFFFD400
000017BEFFFFFFFDA60000
ENDCHAR
STARTCHAR Iacute
ENCODING 205
SWIDTH 578 0
DWIDTH 21 0
BBX 22 35 -1 0
BITMAP
0000000000000110000000
00000000002AEFFE930000
0000000001DFFFFFFF5000
0000000006FFFFFFFFE100
000000000BFFF10DFFF200
000000001FFFB06FFFE000
000000005FFF70CFFF8000
00000000AFFF24FFFE1000
00000000DFFD0BFFF60000
00000000FFFA5FFFC00000
00000000EFFFFFFF400000
000028CFFFFFFFFFB71000
0007FFFA8BFFFFF98CE500
008FFFF40000000008FF50
03FFFFFBAAA406AAADFFE1
0AFFFFFFFFF70AFFFFFFF7
0EFFFFFFFFF70AFFFFFFFC
1FFFFFFFFFF70AFFFFFFFD
1FFFFFFFFFF70AFFFFFFFD
1FFFFFFFFFF70AFFFFFFFD
1FFFFFFFFFF70AFFFFFFFD
1FFFFFFFFFF70AFFFFFFFD
1FFFFFFFFFF70AFFFFFFFD
1FFFFFFFFFF70AFFFFFFFD
1FFFFFFFFFF70AFFFFFFFD
1FFFFFF63331023339FFFD
1FFFFFF40000000008FFFD
1FFFFFFFFFFFFFFFFFFFFD
1FFFFFFFFFFFFFFFFFFFFD
0EFFFFFFFFFFFFFFFFFFFB
0AFFFFFFFFFFFFFFFFFFF7
03FFFFFFFFFFFFFFFFFFE1
007FFFFFFFFFFFFFFFFF40
0006EFFFFFFFFFFFFFD400
000017BEFFFFFFFDA60000
ENDCHAR
STARTCHAR Icircumflex
ENCODING 206
SWIDTH 578 0
DWIDTH 21 0
BBX 22 35 -1 0
BITMAP
00000000018BCB70000000
000000001DFFFFFA000000
000000008FFFFFFF400000
00000001EFFC9EFFB00000
00000007FFF427FFF30000
0000000DFFD0A2FFFA0000
0000004FFF74F1BFFE1000
0000009FFF19F65FFF6000
000000EFFA0EFB0EFFA000
000001FFFA9FFF7CFFC000
000000FFFFFFFFFFFFB000
000028FFFFFFFFFFFF6000
0007FFFECCCCCCCCCFE500
008FFFF40000000008FF50
03FFFFFBAAA406AAADFFE1
0AFFFFFFFFF70AFFFFFFF7
0EFFFFFFFFF70AFFFFFFFC
1FFFFFFFFFF70AFFFFFFFD
1FFFFFFFFFF70AFFFFFFFD
1FFFFFFFFFF70AFFFFFFFD
1FFFFFFFFFF70AFFFFFFFD
1FFFFFFFFFF70AFFFFFFFD
1FFFFFFFFFF70AFFFFFFFD
1FFFFFFFFFF70AFFFFFFFD
1FFFFFFFFFF70AFFFFFFFD
1FFFFFF63331023339FFFD
1FFFFFF40000000008FFFD
1FFFFFFFFFFFFFFFFFFFFD
1FFFFFFFFFFFFFFFFFFFFD
0EFFFFFFFFFFFFFFFFFFFB
0AFFFFFFFFFFFFFFFFFFF7
03FFFFFFFFFFFFFFFFFFE1
007FFFFFFFFFFFFFFFFF40
0006EFFFFFFFFFFFFFD400
000017BEFFFFFFFDA60000
ENDCHAR
STARTCHAR Idieresis
ENCODING 207
SWIDTH 578 0
DWIDTH 21 0
BBX 22 33 -1 0
BITMAP
0000000000355520000000
000000018EFFFFFD700000
0000002DFFFFFFFFFC1000
000000CFFFFFFFFFFFB000
000005FFFFFFFFFFFFF400
000008FFD11DF815FFF700
000008FFD00CF704FFF700
000005FFEAAEFCABFFF400
000001DFFFFFFFFFFFC000
000028FFFFFFFFFFFF3000
0007FFFCCCCCCCCCCDE500
008FFFF40000000008FF50
03FFFFFBAAA406AAADFFE1
0AFFFFFFFFF70AFFFFFFF7
0EFFFFFFFFF70AFFFFFFFC
1FFFFFFFFFF70AFFFFFFFD
1FFFFFFFFFF70AFFFFFFFD
1FFFFFFFFFF70AFFFFFFFD
1FFFFFFFFFF70AFFFFFFFD
1FFFFFFFFFF70AFFFFFFFD
1FFFFFFFFFF70AFFFFFFFD
1FFFFFFFFFF70AFFFFFFFD
1FFFFFFFFFF70AFFFFFFFD
1FFFFFF63331023339FFFD
1FFFFFF40000000008FFFD
1FFFFFFFFFFFFFFFFFFFFD
1FFFFFFFFFFFFFFFFFFFFD
0EFFFFFFFFFFFFFFFFFFFB
0AFFFFFFFFFFFFFFFFFFF7
03FFFFFFFFFFFFFFFFFFE1
007FFFFFFFFFFFFFFFFF40
0006EFFFFFFFFFFFFFD400
000017BEFFFFFFFDA60000
ENDCHAR
STARTCHAR Eth
ENCODING 208
SWIDTH 578 0
DWIDTH 21 0
BBX 22 25 -1 0
BITMAP
0000000011111110000000
000028CFFFFFFFFFB71000
0007FFD888888889DFE500
008FFFC0000000001CFF50
03FFFFC04AAAAA9606FFE1
0AFFFFC06FFFFFFD04FFF7
0EFFFFC06FFFFFFE04FFFC
1FFFFFC06FFFFFFE04FFFD
1FFFFFC06FFFFFFE04FFFD
1FFFF81001EFFFFE04FFFD
1FFFFE905CFFFFFE04FFFD
1FFFFFC06FFFFFFE04FFFD
1FFFFFC06FFFFFFE04FFFD
1FFFFFC06FFFFFFE04FFFD
1FFFFFC06FFFFFFC04FFFD
1FFFFFC01333332007FFFD
1FFFFFC0000000015FFFFD
1FFFFFFFFFFFFFFFFFFFFD
1FFFFFFFFFFFFFFFFFFFFD
0EFFFFFFFFFFFFFFFFFFFB
0AFFFFFFFFFFFFFFFFFFF7
03FFFFFFFFFFFFFFFFFFE1
007FFFFFFFFFFFFFFFFF40
0006EFFFFFFFFFFFFFD400
000017BEFFFFFFFDA60000
ENDCHAR
STARTCHAR Ntilde
ENCODING 209
SWIDTH 578 0
DWIDTH 21 0
BBX 22 35 -1 0
BITMAP
0000000015788620000000
0000002AFFFFFFFB300000
000003EFFFFFFFFFF50000
00001EFFFFFFFFFFFF3000
00009FFFFFFFFFFFFFC000
0000EFFFFFFFFFFFFFF200
0002FFFFFFFFFFFFFFF500
0002FFFE546CF70CFFF500
0001FFF90310410DFFF300
0000BFF82DF9426FFFD000
00003FFFFFFFFFFFFF5000
00002DFFFFFFFFFFFF1000
0007FFFCA888888AEFE500
008FFFA0000000004EFF50
03FFFFA039AAAA930BFFE1
0AFFFFA07FFFFFF709FFF7
0EFFFFA07FFFFFF809FFFC
1FFFFFA07FFFFFF809FFFD
1FFFFFA07FFFFFF809FFFD
1FFFFFA07FFFFFF809FFFD
1FFFFFA07FFFFFF809FFFD
1FFFFFA07FFFFFF809FFFD
1FFFFFA07FFFFFF809FFFD
1FFFFFA07FFFFFF809FFFD
1FFFFFA07FFFFFF809FFFD
1FFFFFA07FFFFFF809FFFD
1FFFFFA07FFFFFF809FFFD
1FFFFFFFFFFFFFFFFFFFFD
1FFFFFFFFFFFFFFFFFFFFD
0EFFFFFFFFFFFFFFFFFFFB
0AFFFFFFFFFFFFFFFFFFF7
03FFFFFFFFFFFFFFFFFFE1
007FFFFFFFFFFFFFFFFF40
0006EFFFFFFFFFFFFFD400
000017BEFFFFFFFDA60000
ENDCHAR
STARTCHAR Ograve
ENCODING 210
SWIDTH 578 0
DWIDTH 21 0
BBX 22 35 -1 0
BITMAP
0000000001100000000000
0000005BEFFD8100000000
000009FFFFFFFB00000000
00004FFFFFFFFF20000000
00006FFFA04FFF70000000
00004FFFF20EFFC0000000
00000CFFF90AFFF1000000
000004FFFE16FFF5000000
000000AFFF71FFF9000000
0000002EFFE3DFFB000000
00000007FFFFFFF9000000
000028CFFFFFFFFFB71000
0007FFFFEFFFFFA9DFE500
008FFFF5000000001CFF50
03FFFFD028AAAA9506FFE1
0AFFFFB06FFFFFFD04FFF7
0EFFFFB07FFFFFFD04FFFC
1FFFFFB07FFFFFFD04FFFD
1FFFFFB07FFFFFFD04FFFD
1FFFFFB07FFFFFFD04FFFD
1FFFFFB07FFFFFFD04FFFD
1FFFFFB07FFFFFFD04FFFD
1FFFFFB07FFFFFFD04FFFD
1FFFFFB07FFFFFFD04FFFD
1FFFFFC04FFFFFFB05FFFD
1FFFFFE00233332008FFFD
1FFFFFFB200000015FFFFD
1FFFFFFFFFFFFFFFFFFFFD
1FFFFFFFFFFFFFFFFFFFFD
0EFFFFFFFFFFFFFFFFFFFB
0AFFFFFFFFFFFFFFFFFFF7
03FFFFFFFFFFFFFFFFFFE1
007FFFFFFFFFFFFFFFFF40
0006EFFFFFFFFFFFFFD400
000017BEFFFFFFFDA60000
ENDCHAR
STARTCHAR Oacute
ENCODING 211
SWIDTH 578 0
DWIDTH 21 0
BBX 22 35 -1 0
BITMAP
0000000000000100000000
00000000004BFFFD810000
0000000003FFFFFFFE3000
000000000AFFFFFFFFB000
000000001EFFC03FFFD000
000000005FFF709FFFB000
000000009FFF32FFFF4000
00000000DFFD08FFFB0000
00000002FFF91EFFF30000
00000004FFF68FFF900000
00000002FFFFFFFE100000
000028CFFFFFFFFFB71000
0007FFFFAEFFFFFADFE500
008FFFF5000000001CFF50
03FFFFD028AAAA9506FFE1
0AFFFFB06FFFFFFD04FFF7
0EFFFFB07FFFFFFD04FFFC
1FFFFFB07FFFFFFD04FFFD
1FFFFFB07FFFFFFD04FFFD
1FFFFFB07FFFFFFD04FFFD
1FFFFFB07FFFFFFD04FFFD
1FFFFFB07FFFFFFD04FFFD
1FFFFFB07FFFFFFD04FFFD
1FFFFFB07FFFFFFD04FFFD
1FFFFFC04FFFFFFB05FFFD
1FFFFFE00233332008FFFD
1FFFFFFB200000015FFFFD
1FFFFFFFFFFFFFFFFFFFFD
1FFFFFFFFFFFFFFFFFFFFD
0EFFFFFFFFFFFFFFFFFFFB
0AFFFFFFFFFFFFFFFFFFF7
03FFFFFFFFFFFFFFFFFFE1
007FFFFFFFFFFFFFFFFF40
0006EFFFFFFFFFFFFFD400
000017BEFFFFFFFDA60000
ENDCHAR
STARTCHAR Ocircumflex
ENCODING 212
SWIDTH 578 0
DWIDTH 21 0
BBX 22 35 -1 0
BITMAP
00000000039CCA50000000
000000003FFFFFF6000000
00000000CFFFFFFE100000
00000004FFFB9FFF800000
0000000AFFE12BFFE10000
0000002FFF9375FFF60000
0000008FFF38C0EFFC0000
000000DFFC0DF28FFF2000
000003FFF73FF73FFF6000
000005FFF8BFFD7EFF9000
000004FFFFFFFFFFFF7000
000028FFFFFFFFFFFF3000
0007FFFFFDCCCCCEFFE500
008FFFF5000000001CFF50
03FFFFD028AAAA9506FFE1
0AFFFFB06FFFFFFD04FFF7
0EFFFFB07FFFFFFD04FFFC
1FFFFFB07FFFFFFD04FFFD
1FFFFFB07FFFFFFD04FFFD
1FFFFFB07FFFFFFD04FFFD
1FFFFFB07FFFFFFD04FFFD
1FFFFFB07FFFFFFD04FFFD
1FFFFFB07FFFFFFD04FFFD
1FFFFFB07FFFFFFD04FFFD
1FFFFFC04FFFFFFB05FFFD
1FFFFFE00233332008FFFD
1FFFFFFB200000015FFFFD
1FFFFFFFFFFFFFFFFFFFFD
1FFFFFFFFFFFFFFFFFFFFD
0EFFFFFFFFFFFFFFFFFFFB
0AFFFFFFFFFFFFFFFFFFF7
03FFFFFFFFFFFFFFFFFFE1
007FFFFFFFFFFFFFFFFF40
0006EFFFFFFFFFFFFFD400
000017BEFFFFFFFDA60000
ENDCHAR
STARTCHAR Otilde
ENCODING 213
SWIDTH 578 0
DWIDTH 21 0
BBX 22 35 -1 0
BITMAP
0000000003688741000000
00000005CFFFFFFE810000
0000008FFFFFFFFFFD1000
000006FFFFFFFFFFFFC000
00001EFFFFFFFFFFFFF600
00005FFFFFFFFFFFFFFB00
00008FFFFFFFFFFFFFFE00
00008FFFB448EF23FFFE00
00006FFF30401304FFFC00
00002FFF36FD732BFFF700
000008FFFFFFFFFFFFE100
000028FFFFFFFFFFFF4000
0007FFFFA8888889DFE500
008FFFF5000000001CFF50
03FFFFD028AAAA9506FFE1
0AFFFFB06FFFFFFD04FFF7
0EFFFFB07FFFFFFD04FFFC
1FFFFFB07FFFFFFD04FFFD
1FFFFFB07FFFFFFD04FFFD
1FFFFFB07FFFFFFD04FFFD
1FFFFFB07FFFFFFD04FFFD
1FFFFFB07FFFFFFD04FFFD
1FFFFFB07FFFFFFD04FFFD
1FFFFFB07FFFFFFD04FFFD
1FFFFFC04FFFFFFB05FFFD
1FFFFFE00233332008FFFD
1FFFFFFB200000015FFFFD
1FFFFFFFFFFFFFFFFFFFFD
1FFFFFFFFFFFFFFFFFFFFD
0EFFFFFFFFFFFFFFFFFFFB
0AFFFFFFFFFFFFFFFFFFF7
03FFFFFFFFFFFFFFFFFFE1
007FFFFFFFFFFFFFFFFF40
0006EFFFFFFFFFFFFFD400
000017BEFFFFFFFDA60000
ENDCHAR
STARTCHAR Odieresis
ENCODING 214
SWIDTH 578 0
DWIDTH 21 0
BBX 22 33 -1 0
BITMAP
0000000000355410000000
000000029FFFFFFC500000
0000004EFFFFFFFFFA0000
000002EFFFFFFFFFFF8000
000009FFFFFFFFFFFFE100
00000CFFA12FF418FFF300
00000CFF901FF307FFF300
000009FFDAAFFBACFFE100
000003FFFFFFFFFFFF8000
000028FFFFFFFFFFFF1000
0007FFFFFDCCCCCEFFE500
008FFFF5000000001CFF50
03FFFFD028AAAA9506FFE1
0AFFFFB06FFFFFFD04FFF7
0EFFFFB07FFFFFFD04FFFC
1FFFFFB07FFFFFFD04FFFD
1FFFFFB07FFFFFFD04FFFD
1FFFFFB07FFFFFFD04FFFD
1FFFFFB07FFFFFFD04FFFD
1FFFFFB07FFFFFFD04FFFD
1FFFFFB07FFFFFFD04FFFD
1FFFFFB07FFFFFFD04FFFD
1FFFFFC04FFFFFFB05FFFD
1FFFFFE00233332008FFFD
1FFFFFFB200000015FFFFD
1FFFFFFFFFFFFFFFFFFFFD
1FFFFFFFFFFFFFFFFFFFFD
0EFFFFFFFFFFFFFFFFFFFB
0AFFFFFFFFFFFFFFFFFFF7
03FFFFFFFFFFFFFFFFFFE1
007FFFFFFFFFFFFFFFFF40
0006EFFFFFFFFFFFFFD400
000017BEFFFFFFFDA60000
ENDCHAR
STARTCHAR multiply
ENCODING 215
SWIDTH 578 0
DWIDTH 21 0
BBX 22 25 -1 0
BITMAP
0000000011111110000000
000028CFFFFFFFFFB71000
0007FFFFFFFFFFFFFFE500
008FFFFFFFFFFFFFFFFF50
03FFFFFFFFFFFFFFFFFFE1
0AFFFFFFFFFFFFFFFFFFF7
0EFFFFFFF6CFFE5DFFFFFC
1FFFFFFFE21CE31BFFFFFD
1FFFFFFFFD2131BFFFFFFD
1FFFFFFFFFC009FFFFFFFD
1FFFFFFFFE3021CFFFFFFD
1FFFFFFFE40BD21CFFFFFD
1FFFFFFFE4BFFD3CFFFFFD
1FFFFFFFFFFFFFFFFFFFFD
1FFFFFFFFFFFFFFFFFFFFD
1FFFFFFFFFFFFFFFFFFFFD
1FFFFFFFFFFFFFFFFFFFFD
1FFFFFFFFFFFFFFFFFFFFD
1FFFFFFFFFFFFFFFFFFFFD
0EFFFFFFFFFFFFFFFFFFFB
0AFFFFFFFFFFFFFFFFFFF7
03FFFFFFFFFFFFFFFFFFE1
007FFFFFFFFFFFFFFFFF40
0006EFFFFFFFFFFFFFD400
000017BEFFFFFFFDA60000
ENDCHAR
STARTCHAR Oslash
ENCODING 216
SWIDTH 578 0
DWIDTH 21 0
BBX 22 25 -1 0
BITMAP
0000000011111110000000
000028CFFFFFFFFFB71000
0007FFFEA877778AEFE500
008FFFE3000000002EFF50
03FFFFA049AAAA4009FFE1
0AFFFF809FFFFC0107FFF7
0EFFFF80AFFFF31907FFFC
1FFFFF80AFFF809A07FFFD
1FFFFF80AFFC04FA07FFFD
1FFFFF80AFF31DFA07FFFD
1FFFFF80AF808FFA07FFFD
1FFFFF80AC03FFFA07FFFD
1FFFFF80930CFFFA07FFFD
1FFFFF80307FFFFA07FFFD
1FFFFF9002FFFFF708FFFD
1FFFFFC0001111000BFFFD
1FFFFFFA311111139FFFFD
1FFFFFFFFFFFFFFFFFFFFD
1FFFFFFFFFFFFFFFFFFFFD
0EFFFFFFFFFFFFFFFFFFFB
0AFFFFFFFFFFFFFFFFFFF7
03FFFFFFFFFFFFFFFFFFE1
007FFFFFFFFFFFFFFFFF40
0006EFFFFFFFFFFFFFD400
000017BEFFFFFFFDA60000
ENDCHAR
STARTCHAR Ugrave
ENCODING 217
SWIDTH 578 0
DWIDTH 21 0
BBX 22 35 -1 0
BITMAP
0000000001100000000000
0000004AEFFE9100000000
000008FFFFFFFC00000000
00002FFFFFFFFF40000000
00004FFFC03FFF90000000
00002FFFF30DFFD0000000
00000AFFFA09FFF3000000
000002FFFF24FFF7000000
0000008FFF90EFFB000000
0000001EFFF3BFFD000000
00000006FFFFFFFB000000
000028CFFFFFFFFFB71000
0007FFC8EFFFFFFD8AE500
008FFF908FFFFFFC06FF50
03FFFF908FFFFFFC06FFE1
0AFFFF908FFFFFFC06FFF7
0EFFFF908FFFFFFC06FFFC
1FFFFF908FFFFFFC06FFFD
1FFFFF908FFFFFFC06FFFD
1FFFFF908FFFFFFC06FFFD
1FFFFF908FFFFFFC06FFFD
1FFFFF908FFFFFFC06FFFD
1FFFFF908FFFFFFC06FFFD
1FFFFF908FFFFFFC06FFFD
1FFFFFA06FFFFFFA06FFFD
1FFFFFD00233332009FFFD
1FFFFFFA200000017FFFFD
1FFFFFFFFFFFFFFFFFFFFD
1FFFFFFFFFFFFFFFFFFFFD
0EFFFFFFFFFFFFFFFFFFFB
0AFFFFFFFFFFFFFFFFFFF7
03FFFFFFFFFFFFFFFFFFE1
007FFFFFFFFFFFFFFFFF40
0006EFFFFFFFFFFFFFD400
000017BEFFFFFFFDA60000
ENDCHAR
STARTCHAR Uacute
ENCODING 218
SWIDTH 578 0
DWIDTH 21 0
BBX 22 35 -1 0
BITMAP
0000000000000100000000
00000000003BFFFD820000
0000000002EFFFFFFE4000
0000000008FFFFFFFFD000
000000000DFFD01FFFF000
000000003FFF908FFFC000
000000007FFF41EFFF6000
00000000CFFE16FFFD0000
00000001FFFA0DFFF40000
00000003FFF86FFFA00000
00000001FFFFFFFF200000
000028CFFFFFFFFFB71000
0007FFC8CFFFFFFE8AE500
008FFF908FFFFFFC06FF50
03FFFF908FFFFFFC06FFE1
0AFFFF908FFFFFFC06FFF7
0EFFFF908FFFFFFC06FFFC
1FFFFF908FFFFFFC06FFFD
1FFFFF908FFFFFFC06FFFD
1FFFFF908FFFFFFC06FFFD
1FFFFF908FFFFFFC06FFFD
1FFFFF908FFFFFFC06FFFD
1FFFFF908FFFFFFC06FFFD
1FFFFF908FFFFFFC06FFFD
1FFFFFA06FFFFFFA06FFFD
1FFFFFD00233332009FFFD
1FFFFFFA200000017FFFFD
1FFFFFFFFFFFFFFFFFFFFD
1FFFFFFFFFFFFFFFFFFFFD
0EFFFFFFFFFFFFFFFFFFFB
0AFFFFFFFFFFFFFFFFFFF7
03FFFFFFFFFFFFFFFFFFE1
007FFFFFFFFFFFFFFFFF40
0006EFFFFFFFFFFFFFD400
000017BEFFFFFFFDA60000
ENDCHAR
STARTCHAR Ucircumflex
ENCODING 219
SWIDTH 578 0
DWIDTH 21 0
BBX 22 35 -1 0
BITMAP
00000000029CCB50000000
000000002EFFFFF7000000
00000000BFFFFFFF200000
00000002FFFB9EFF900000
00000009FFF12AFFF10000
0000001EFFA294FFF70000
0000007FFF57D0DFFD0000
000000CFFE0CF37FFF3000
000001FFF82FF81FFF8000
000004FFF9AFFD7DFFA000
000002FFFFFFFFFFFF9000
000028FFFFFFFFFFFF4000
0007FFECFFFFFFFFCDE500
008FFF908FFFFFFC06FF50
03FFFF908FFFFFFC06FFE1
0AFFFF908FFFFFFC06FFF7
0EFFFF908FFFFFFC06FFFC
1FFFFF908FFFFFFC06FFFD
1FFFFF908FFFFFFC06FFFD
1FFFFF908FFFFFFC06FFFD
1FFFFF908FFFFFFC06FFFD
1FFFFF908FFFFFFC06FFFD
1FFFFF908FFFFFFC06FFFD
1FFFFF908FFFFFFC06FFFD
1FFFFFA06FFFFFFA06FFFD
1FFFFFD00233332009FFFD
1FFFFFFA200000017FFFFD
1FFFFFFFFFFFFFFFFFFFFD
1FFFFFFFFFFFFFFFFFFFFD
0EFFFFFFFFFFFFFFFFFFFB
0AFFFFFFFFFFFFFFFFFFF7
03FFFFFFFFFFFFFFFFFFE1
007FFFFFFFFFFFFFFFFF40
0006EFFFFFFFFFFFFFD400
000017BEFFFFFFFDA60000
ENDCHAR
STARTCHAR Udieresis
ENCODING 220
SWIDTH 578 0
DWIDTH 21 0
BBX 22 33 -1 0
BITMAP
0000000000355420000000
000000019EFFFFFD600000
0000003EFFFFFFFFFB1000
000001EFFFFFFFFFFF9000
000007FFFFFFFFFFFFF200
00000BFFB11FF617FFF500
00000AFFB00FF506FFF500
000007FFEAAFFBACFFF200
000002EFFFFFFFFFFFA000
000028FFFFFFFFFFFF2000
0007FFCAFFFFFFFFCBE500
008FFF908FFFFFFC06FF50
03FFFF908FFFFFFC06FFE1
0AFFFF908FFFFFFC06FFF7
0EFFFF908FFFFFFC06FFFC
1FFFFF908FFFFFFC06FFFD
1FFFFF908FFFFFFC06FFFD
1FFFFF908FFFFFFC06FFFD
1FFFFF908FFFFFFC06FFFD
1FFFFF908FFFFFFC06FFFD
1FFFFF908FFFFFFC06FFFD
1FFFFF908FFFFFFC06FFFD
1FFFFFA06FFFFFFA06FFFD
1FFFFFD00233332009FFFD
1FFFFFFA200000017FFFFD
1FFFFFFFFFFFFFFFFFFFFD
1FFFFFFFFFFFFFFFFFFFFD
0EFFFFFFFFFFFFFFFFFFFB
0AFFFFFFFFFFFFFFFFFFF7
03FFFFFFFFFFFFFFFFFFE1
007FFFFFFFFFFFFFFFFF40
0006EFFFFFFFFFFFFFD400
000017BEFFFFFFFDA60000
ENDCHAR
STARTCHAR Yacute
ENCODING 221
SWIDTH 578 0
DWIDTH 21 0
BBX 22 35 -1 0
BITMAP
0000000000000100000000
00000000004BFFFD820000
0000000003FFFFFFFE3000
000000000AFFFFFFFFB000
000000000EFFC02FFFE000
000000004FFF809FFFB000
000000009FFF31EFFF5000
00000000DFFE08FFFC0000
00000002FFF91EFFF30000
00000004FFF77FFF900000
00000002FFFFFFFE100000
000028CFFFFFFFFFB71000
0007FFF88FFFFFFA8BE500
008FFFF408FFFFE10CFF50
03FFFFFB02FFFF904FFFE1
0AFFFFFF20BFFF30AFFFF7
0EFFFFFF805FFC02FFFFFC
1FFFFFFFE10EF608FFFFFD
1FFFFFFFF608E01EFFFFFD
1FFFFFFFFC02806FFFFFFD
1FFFFFFFFF4010CFFFFFFD
1FFFFFFFFFA004FFFFFFFD
1FFFFFFFFFF10AFFFFFFFD
1FFFFFFFFFF40DFFFFFFFD
1FFFFFFFFFF40DFFFFFFFD
1FFFFFFFFFF40DFFFFFFFD
1FFFFFFFFFF40DFFFFFFFD
1FFFFFFFFFFFFFFFFFFFFD
1FFFFFFFFFFFFFFFFFFFFD
0EFFFFFFFFFFFFFFFFFFFB
0AFFFFFFFFFFFFFFFFFFF7
03FFFFFFFFFFFFFFFFFFE1
007FFFFFFFFFFFFFFFFF40
0006EFFFFFFFFFFFFFD400
000017BEFFFFFFFDA60000
ENDCHAR
STARTCHAR Thorn
ENCODING 222
SWIDTH 578 0
DWIDTH 21 0
BBX 22 25 -1 0
BITMAP
0000000011111110000000
000028CEEFFFFFFFB71000
0007FFF908FFFFFFFFE500
008FFFF908FFFFFFFFFF50
03FFFFF908FFFFFFFFFFE1
0AFFFFF900111114CFFFF7
0EFFFFF9011111001EFFFC
1FFFFFF908FFFFF50BFFFD
1FFFFFF908FFFFF70AFFFD
1FFFFFF908FFFFF70AFFFD
1FFFFFF908FFFFF50BFFFD
1FFFFFF9011111100DFFFD
1FFFFFF900000013BFFFFD
1FFFFFF908FFFFFFFFFFFD
1FFFFFF908FFFFFFFFFFFD
1FFFFFF908FFFFFFFFFFFD
1FFFFFF908FFFFFFFFFFFD
1FFFFFFFFFFFFFFFFFFFFD
1FFFFFFFFFFFFFFFFFFFFD
0EFFFFFFFFFFFFFFFFFFFB
0AFFFFFFFFFFFFFFFFFFF7
03FFFFFFFFFFFFFFFFFFE1
007FFFFFFFFFFFFFFFFF40
0006EFFFFFFFFFFFFFD400
000017BEFFFFFFFDA60000
ENDCHAR
STARTCHAR germandbls
ENCODING 223
SWIDTH 578 0
DWIDTH 21 0
BBX 22 25 -1 0
BITMAP
0000000011111110000000
000028CFFFFFFFFFB71000
0007FFFFA888889CFFE500
008FFFF400000001BFFF50
03FFFFC029AAA9505FFFE1
0AFFFFA07FFFFFE03FFFF7
0EFFFF908FFFFFE03FFFFC
1FFFFF908FFFFFD07FFFFD
1FFFFF908FFFE521EFFFFD
1FFFFF908FFFD0029FFFFD
1FFFFF908FFFFCB50BFFFD
1FFFFF908FFFFFFB06FFFD
1FFFFF908FFFFFFC06FFFD
1FFFFF908FFFFFFC06FFFD
1FFFFF908FFFFFFA06FFFD
1FFFFF908FB3332009FFFD
1FFFFF908FA000016FFFFD
1FFFFFFFFFFFFFFFFFFFFD
1FFFFFFFFFFFFFFFFFFFFD
0EFFFFFFFFFFFFFFFFFFFB
0AFFFFFFFFFFFFFFFFFFF7
03FFFFFFFFFFFFFFFFFFE1
007FFFFFFFFFFFFFFFFF40
0006EFFFFFFFFFFFFFD400
000017BEFFFFFFFDA60000
ENDCHAR
STARTCHAR agrave
ENCODING 224
SWIDTH 578 0
DWIDTH 21 0
BBX 22 35 -1 0
BITMAP
0000000001100000000000
0000004AEFFE9100000000
000008FFFFFFFB00000000
00003FFFFFFFFF30000000
00005FFFB03FFF80000000
00003FFFF30EFFD0000000
00000BFFFA09FFF2000000
000003FFFF25FFF6000000
0000009FFF81FFFA000000
0000001EFFE3CFFC000000
00000006FFFFFFFA000000
000028CFFFFFFFFFB71000
0007FFFCCFFFFFCEFFE500
008FFFF700000003EFFF50
03FFFFFB8AAAA930BFFFE1
0AFFFFFFFFFFFF80BFFFF7
0EFFFFFFFFFFFF90BFFFFC
1FFFFFFFFFFFFF90BFFFFD
1FFFFFFFFFFFFF90BFFFFD
1FFFFFFB86666650BFFFFD
1FFFFFA000000000BFFFFD
1FFFFF508BBBBB60BFFFFD
1FFFFF30EFFFFF90BFFFFD
1FFFFF30EFFFFF90BFFFFD
1FFFFF40CFFFFF90BFFFFD
1FFFFF7012333200BFFFFD
1FFFFFE510000021BFFFFD
1FFFFFFFFFFFFFFFFFFFFD
1FFFFFFFFFFFFFFFFFFFFD
0EFFFFFFFFFFFFFFFFFFFB
0AFFFFFFFFFFFFFFFFFFF7
03FFFFFFFFFFFFFFFFFFE1
007FFFFFFFFFFFFFFFFF40
0006EFFFFFFFFFFFFFD400
000017BEFFFFFFFDA60000
ENDCHAR
STARTCHAR aacute
ENCODING 225
SWIDTH 578 0
DWIDTH 21 0
BBX 22 35 -1 0
BITMAP
0000000000000100000000
00000000003BFFFD820000
0000000002FFFFFFFE3000
0000000009FFFFFFFFC000
000000000EFFD02FFFE000
000000003FFF908FFFC000
000000008FFF41EFFF6000
00000000CFFE07FFFC0000
00000001FFFA0DFFF40000
00000003FFF77FFFA00000
00000001FFFFFFFE200000
000028CFFFFFFFFFB71000
0007FFFC9DFFFFFEFFE500
008FFFF700000003EFFF50
03FFFFFB8AAAA930BFFFE1
0AFFFFFFFFFFFF80BFFFF7
0EFFFFFFFFFFFF90BFFFFC
1FFFFFFFFFFFFF90BFFFFD
1FFFFFFFFFFFFF90BFFFFD
1FFFFFFB86666650BFFFFD
1FFFFFA000000000BFFFFD
1FFFFF508BBBBB60BFFFFD
1FFFFF30EFFFFF90BFFFFD
1FFFFF30EFFFFF90BFFFFD
1FFFFF40CFFFFF90BFFFFD
1FFFFF7012333200BFFFFD
1FFFFFE510000021BFFFFD
1FFFFFFFFFFFFFFFFFFFFD
1FFFFFFFFFFFFFFFFFFFFD
0EFFFFFFFFFFFFFFFFFFFB
0AFFFFFFFFFFFFFFFFFFF7
03FFFFFFFFFFFFFFFFFFE1
007FFFFFFFFFFFFFFFFF40
0006EFFFFFFFFFFFFFD400
000017BEFFFFFFFDA60000
ENDCHAR
STARTCHAR acircumflex
ENCODING 226
SWIDTH 578 0
DWIDTH 21 0
BBX 22 35 -1 0
BITMAP
00000000029CCB50000000
000000003EFFFFF7000000
00000000BFFFFFFF200000
00000003FFFB9FFF900000
0000000AFFF12AFFE10000
0000001FFFA284FFF70000
0000007FFF47D0DFFC0000
000000CFFD0CF37FFF3000
000002FFF82FF82FFF7000
000004FFF9AFFD7DFFA000
000003FFFFFFFFFFFF8000
000028FFFFFFFFFFFF3000
0007FFFFDCCCCCEFFFE500
008FFFF700000003EFFF50
03FFFFFB8AAAA930BFFFE1
0AFFFFFFFFFFFF80BFFFF7
0EFFFFFFFFFFFF90BFFFFC
1FFFFFFFFFFFFF90BFFFFD
1FFFFFFFFFFFFF90BFFFFD
1FFFFFFB86666650BFFFFD
1FFFFFA000000000BFFFFD
1FFFFF508BBBBB60BFFFFD
1FFFFF30EFFFFF90BFFFFD
1FFFFF30EFFFFF90BFFFFD
1FFFFF40CFFFFF90BFFFFD
1FFFFF7012333200BFFFFD
1FFFFFE510000021BFFFFD
1FFFFFFFFFFFFFFFFFFFFD
1FFFFFFFFFFFFFFFFFFFFD
0EFFFFFFFFFFFFFFFFFFFB
0AFFFFFFFFFFFFFFFFFFF7
03FFFFFFFFFFFFFFFFFFE1
007FFFFFFFFFFFFFFFFF40
0006EFFFFFFFFFFFFFD400
000017BEFFFFFFFDA60000
ENDCHAR
STARTCHAR atilde
ENCODING 227
SWIDTH 578 0
DWIDTH 21 0
BBX 22 35 -1 0
BITMAP
0000000002688751000000
00000004CFFFFFFE910000
0000007FFFFFFFFFFD2000
000005FFFFFFFFFFFFD000
00000EFFFFFFFFFFFFF700
00004FFFFFFFFFFFFFFC00
00007FFFFFFFFFFFFFFF00
00007FFFC448EF32FFFF00
00005FFF40401403FFFD00
00001FFF45FD732AFFF800
000007FFFFFFFFFFFFE100
000028FFFFFFFFFFFF5000
0007FFFC988888AEFFE500
008FFFF700000003EFFF50
03FFFFFB8AAAA930BFFFE1
0AFFFFFFFFFFFF80BFFFF7
0EFFFFFFFFFFFF90BFFFFC
1FFFFFFFFFFFFF90BFFFFD
1FFFFFFFFFFFFF90BFFFFD
1FFFFFFB86666650BFFFFD
1FFFFFA000000000BFFFFD
1FFFFF508BBBBB60BFFFFD
1FFFFF30EFFFFF90BFFFFD
1FFFFF30EFFFFF90BFFFFD
1FFFFF40CFFFFF90BFFFFD
1FFFFF7012333200BFFFFD
1FFFFFE510000021BFFFFD
1FFFFFFFFFFFFFFFFFFFFD
1FFFFFFFFFFFFFFFFFFFFD
0EFFFFFFFFFFFFFFFFFFFB
0AFFFFFFFFFFFFFFFFFFF7
03FFFFFFFFFFFFFFFFFFE1
007FFFFFFFFFFFFFFFFF40
0006EFFFFFFFFFFFFFD400
000017BEFFFFFFFDA60000
ENDCHAR
STARTCHAR adieresis
ENCODING 228
SWIDTH 578 0
DWIDTH 21 0
BBX 22 33 -1 0
BITMAP
0000000000355420000000
000000019EFFFFFC600000
0000003EFFFFFFFFFB0000
000001EFFFFFFFFFFF9000
000008FFFFFFFFFFFFF100
00000BFFB11FF517FFF400
00000BFFA00FF406FFF400
000008FFDAAFFBACFFF100
000002EFFFFFFFFFFF9000
000028FFFFFFFFFFFF2000
0007FFFEDCCCCCEFFFE500
008FFFF700000003EFFF50
03FFFFFB8AAAA930BFFFE1
0AFFFFFFFFFFFF80BFFFF7
0EFFFFFFFFFFFF90BFFFFC
1FFFFFFFFFFFFF90BFFFFD
1FFFFFFFFFFFFF90BFFFFD
1FFFFFFB86666650BFFFFD
1FFFFFA000000000BFFFFD
1FFFFF508BBBBB60BFFFFD
1FFFFF30EFFFFF90BFFFFD
1FFFFF30EFFFFF90BFFFFD
1FFFFF40CFFFFF90BFFFFD
1FFFFF7012333200BFFFFD
1FFFFFE510000021BFFFFD
1FFFFFFFFFFFFFFFFFFFFD
1FFFFFFFFFFFFFFFFFFFFD
0EFFFFFFFFFFFFFFFFFFFB
0AFFFFFFFFFFFFFFFFFFF7
03FFFFFFFFFFFFFFFFFFE1
007FFFFFFFFFFFFFFFFF40
0006EFFFFFFFFFFFFFD400
000017BEFFFFFFFDA60000
ENDCHAR
STARTCHAR aring
ENCODING 229
SWIDTH 578 0
DWIDTH 21 0
BBX 22 35 -1 0
BITMAP
0000000000122100000000
000000003BFFFFC5000000
00000007FFFFFFFF900000
0000005FFFFFFFFFF80000
000000EFFD3003BFFF2000
000005FFF338931FFF7000
000008FFF18FFA0EFFB000
000009FFF28FF90FFFC000
000008FFF613303FFFB000
000005FFFF8668EFFF8000
000001EFFFFFFFFFFF2000
000028FFFFFFFFFFFF1000
0007FFFC988888AEFFE500
008FFFF700000003EFFF50
03FFFFFB8AAAA930BFFFE1
0AFFFFFFFFFFFF80BFFFF7
0EFFFFFFFFFFFF90BFFFFC
1FFFFFFFFFFFFF90BFFFFD
1FFFFFFFFFFFFF90BFFFFD
1FFFFFFB86666650BFFFFD
1FFFFFA000000000BFFFFD
1FFFFF508BBBBB60BFFFFD
1FFFFF30EFFFFF90BFFFFD
1FFFFF30EFFFFF90BFFFFD
1FFFFF40CFFFFF90BFFFFD
1FFFFF7012333200BFFFFD
1FFFFFE510000021BFFFFD
1FFFFFFFFFFFFFFFFFFFFD
1FFFFFFFFFFFFFFFFFFFFD
0EFFFFFFFFFFFFFFFFFFFB
0AFFFFFFFFFFFFFFFFFFF7
03FFFFFFFFFFFFFFFFFFE1
007FFFFFFFFFFFFFFFFF40
0006EFFFFFFFFFFFFFD400
000017BEFFFFFFFDA60000
ENDCHAR
STARTCHAR ae
ENCODING 230
SWIDTH 578 0
DWIDTH 21 0
BBX 22 25 -1 0
BITMAP
0000000011111110000000
000028CFFFFFFFFFB71000
0007FFFEB97777777AE500
008FFFE40000000006FF50
03FFFFB038A10AAAACFFE1
0AFFFF908FF20FFFFFFFF7
0EFFFF809FF20FFFFFFFFC
1FFFFF60BFF20FFFFFFFFD
1FFFFF40CFF20BBBBDFFFD
1FFFFF30EFF2000006FFFD
1FFFFF10FFF206666AFFFD
1FFFFE02FFF20FFFFFFFFD
1FFFFD03CCC10FFFFFFFFD
1FFFFB0000000FFFFFFFFD
1FFFF90366610FFFFFFFFD
1FFFF809FFF2022227FFFD
1FFFF71BFFF3111117FFFD
1FFFFFFFFFFFFFFFFFFFFD
1FFFFFFFFFFFFFFFFFFFFD
0EFFFFFFFFFFFFFFFFFFFB
0AFFFFFFFFFFFFFFFFFFF7
03FFFFFFFFFFFFFFFFFFE1
007FFFFFFFFFFFFFFFFF40
0006EFFFFFFFFFFFFFD400
000017BEFFFFFFFDA60000
ENDCHAR
STARTCHAR ccedilla
ENCODING 231
SWIDTH 578 0
DWIDTH 21 0
BBX 22 25 -1 0
BITMAP
0000000011111110000000
000028CFFFFFFFFFB71000
0007FFFEA988889BFFE500
008FFFE200000003FFFF50
03FFFF9049AAAA89FFFFE1
0AFFFF70AFFFFFFFFFFFF7
0EFFFF70AFFFFFFFFFFFFC
1FFFFF70AFFFFFFFFFFFFD
1FFFFF70AFFFFFFFFFFFFD
1FFFFF70AFFFFFFFFFFFFD
1FFFFF70AFFFFFFFFFFFFD
1FFFFF70AFFFFFFFFFFFFD
1FFFFF70AFFFFFFFFFFFFD
1FFFFF70AFFFFFFFFFFFFD
1FFFFF808FFFFFFFFFFFFD
1FFFFFB002333315FFFFFD
1FFFFFF810000014FFFFFD
1FFFFFFFFE937FFFFFFFFD
1FFFFFFFF4007FFFFFFFFD
0EFFFFFFD06CEFFFFFFFFB
0AFFFFFFD06FFFFFFFFFF7
03FFFFFFF3006FFFFFFFE1
007FFFFFFE869FFFFFFF40
0006EFFFFFFFFFFFFFD400
000017BEFFFFFFFDA60000
ENDCHAR
STARTCHAR egrave
ENCODING 232
SWIDTH 578 0
DWIDTH 21 0
BBX 22 36 -1 0
BITMAP
0000000001000000000000
0000005BEFFD8100000000
00000AFFFFFFFA00000000
00004FFFFFFFFF20000000
00007FFF905FFF70000000
00004FFFF11FFFB0000000
00000DFFF80BFFF1000000
000004FFFE17FFF5000000
000000BFFF72FFF9000000
0000002FFFD3DFFB000000
00000008FFFFFFF8000000
00000001EFFFFFE2000000
000028CFFFFFFFFFB71000
0007FFFD988888AEFFE500
008FFFD100000003EFFF50
03FFFF705AAAA930BFFFE1
0AFFFF50CFFFFF809FFFF7
0EFFFF50CFFFFF809FFFFC
1FFFFF50BDDDDD709FFFFD
1FFFFF50000000009FFFFD
1FFFFF5034444444AFFFFD
1FFFFF50CFFFFFFFFFFFFD
1FFFFF50CFFFFFFFFFFFFD
1FFFFF50CFFFFFFFFFFFFD
1FFFFF50BFFFFFFFFFFFFD
1FFFFF7049999979FFFFFD
1FFFFFD200000003FFFFFD
1FFFFFFDA888889BFFFFFD
1FFFFFFFFFFFFFFFFFFFFD
1FFFFFFFFFFFFFFFFFFFFD
0EFFFFFFFFFFFFFFFFFFFB
0AFFFFFFFFFFFFFFFFFFF7
03FFFFFFFFFFFFFFFFFFE1
007FFFFFFFFFFFFFFFFF40
0006EFFFFFFFFFFFFFD400
000017BEFFFFFFFDA60000
ENDCHAR
STARTCHAR eacute
ENCODING 233
SWIDTH 578 0
DWIDTH 21 0
BBX 22 36 -1 0
BITMAP
0000000000000100000000
00000000008DFFEB500000
0000000009FFFFFFFA0000
000000001FFFFFFFFF5000
000000006FFF609FFF7000
00000000BFFF11EFFF5000
00000001FFFC07FFFD0000
00000004FFF70EFFF50000
00000008FFF36FFFB00000
0000000AFFE3DFFF300000
00000008FFFFFFF9000000
00000001EFFFFFF1000000
000028CFFFFFFFFFB71000
0007FFFD988888AEFFE500
008FFFD100000003EFFF50
03FFFF705AAAA930BFFFE1
0AFFFF50CFFFFF809FFFF7
0EFFFF50CFFFFF809FFFFC
1FFFFF50BDDDDD709FFFFD
1FFFFF50000000009FFFFD
1FFFFF5034444444AFFFFD
1FFFFF50CFFFFFFFFFFFFD
1FFFFF50CFFFFFFFFFFFFD
1FFFFF50CFFFFFFFFFFFFD
1FFFFF50BFFFFFFFFFFFFD
1FFFFF7049999979FFFFFD
1FFFFFD200000003FFFFFD
1FFFFFFDA888889BFFFFFD
1FFFFFFFFFFFFFFFFFFFFD
1FFFFFFFFFFFFFFFFFFFFD
0EFFFFFFFFFFFFFFFFFFFB
0AFFFFFFFFFFFFFFFFFFF7
03FFFFFFFFFFFFFFFFFFE1
007FFFFFFFFFFFFFFFFF40
0006EFFFFFFFFFFFFFD400
000017BEFFFFFFFDA60000
ENDCHAR
STARTCHAR ecircumflex
ENCODING 234
SWIDTH 578 0
DWIDTH 21 0
BBX 22 35 -1 0
BITMAP
0000000017BCB700000000
00000001CFFFFFB0000000
00000007FFFFFFF5000000
0000000EFFC9DFFC000000
0000006FFF526FFF400000
000000CFFE0A1EFFB00000
000003FFF83F2AFFF10000
000008FFF28F74FFF70000
00000DFFB0DFB0DFFB0000
00000FFFB8FFF7BFFD0000
00000EFFFFFFFFFFFC0000
00002FFFFFFFFFFFFC1000
0007FFFFDCCCCCEFFFE500
008FFFD100000003EFFF50
03FFFF705AAAA930BFFFE1
0AFFFF50CFFFFF809FFFF7
0EFFFF50CFFFFF809FFFFC
1FFFFF50BDDDDD709FFFFD
1FFFFF50000000009FFFFD
1FFFFF5034444444AFFFFD
1FFFFF50CFFFFFFFFFFFFD
1FFFFF50CFFFFFFFFFFFFD
1FFFFF50CFFFFFFFFFFFFD
1FFFFF50BFFFFFFFFFFFFD
1FFFFF7049999979FFFFFD
1FFFFFD200000003FFFFFD
1FFFFFFDA888889BFFFFFD
1FFFFFFFFFFFFFFFFFFFFD
1FFFFFFFFFFFFFFFFFFFFD
0EFFFFFFFFFFFFFFFFFFFB
0AFFFFFFFFFFFFFFFFFFF7
03FFFFFFFFFFFFFFFFFFE1
007FFFFFFFFFFFFFFFFF40
0006EFFFFFFFFFFFFFD400
000017BEFFFFFFFDA60000
ENDCHAR
STARTCHAR edieresis
ENCODING 235
SWIDTH 578 0
DWIDTH 21 0
BBX 22 33 -1 0
BITMAP
0000000003554200000000
00000019EFFFFFD6000000
000003EFFFFFFFFFB10000
00001EFFFFFFFFFFF90000
00007FFFFFFFFFFFFF2000
0000BFFB11FF617FFF5000
0000AFFB00FF506FFF5000
00007FFEAAFFBACFFF2000
00002EFFFFFFFFFFFA0000
00002DFFFFFFFFFFF81000
0007FFFFDCCCCCEFFFE500
008FFFD100000003EFFF50
03FFFF705AAAA930BFFFE1
0AFFFF50CFFFFF809FFFF7
0EFFFF50CFFFFF809FFFFC
1FFFFF50BDDDDD709FFFFD
1FFFFF50000000009FFFFD
1FFFFF5034444444AFFFFD
1FFFFF50CFFFFFFFFFFFFD
1FFFFF50CFFFFFFFFFFFFD
1FFFFF50CFFFFFFFFFFFFD
1FFFFF50BFFFFFFFFFFFFD
1FFFFF7049999979FFFFFD
1FFFFFD200000003FFFFFD
1FFFFFFDA888889BFFFFFD
1FFFFFFFFFFFFFFFFFFFFD
1FFFFFFFFFFFFFFFFFFFFD
0EFFFFFFFFFFFFFFFFFFFB
0AFFFFFFFFFFFFFFFFFFF7
03FFFFFFFFFFFFFFFFFFE1
007FFFFFFFFFFFFFFFFF40
0006EFFFFFFFFFFFFFD400
000017BEFFFFFFFDA60000
ENDCHAR
STARTCHAR igrave
ENCODING 236
SWIDTH 578 0
DWIDTH 21 0
BBX 22 35 -1 0
BITMAP
0000000001100000000000
0000004AEFFE9100000000
000007FFFFFFFC00000000
00002FFFFFFFFF50000000
00004FFFC02FFF90000000
00002FFFF40DFFE0000000
00000AFFFB08FFF3000000
000002FFFF34FFF8000000
0000008FFF90EFFB000000
0000001DFFF3BFFE000000
00000005FFFFFFFB000000
000028CFFFFFFFFFB71000
0007FFFAAFFFFFB88CE500
008FFFF40000000008FF50
03FFFFFBAAA406AAADFFE1
0AFFFFFFFFF70AFFFFFFF7
0EFFFFFFFFF70AFFFFFFFC
1FFFFFFFFFF70AFFFFFFFD
1FFFFFFFFFF70AFFFFFFFD
1FFFFFFFFFF70AFFFFFFFD
1FFFFFFFFFF70AFFFFFFFD
1FFFFFFFFFF70AFFFFFFFD
1FFFFFFFFFF70AFFFFFFFD
1FFFFFFFFFF70AFFFFFFFD
1FFFFFFFFFF70AFFFFFFFD
1FFFFFF63331023339FFFD
1FFFFFF40000000008FFFD
1FFFFFFFFFFFFFFFFFFFFD
1FFFFFFFFFFFFFFFFFFFFD
0EFFFFFFFFFFFFFFFFFFFB
0AFFFFFFFFFFFFFFFFFFF7
03FFFFFFFFFFFFFFFFFFE1
007FFFFFFFFFFFFFFFFF40
0006EFFFFFFFFFFFFFD400
000017BEFFFFFFFDA60000
ENDCHAR
STARTCHAR iacute
ENCODING 237
SWIDTH 578 0
DWIDTH 21 0
BBX 22 35 -1 0
BITMAP
0000000000000100000000
00000000003BEFFD920000
0000000002EFFFFFFE4000
0000000008FFFFFFFFD000
000000000DFFE01EFFF000
000000002FFF907FFFD000
000000007FFF50EFFF7000
00000000BFFF16FFFD0000
00000000FFFB0DFFF50000
00000002FFF86FFFB00000
00000000FFFFFFFF200000
000028CFFFFFFFFFB71000
0007FFFA8CFFFFF88CE500
008FFFF40000000008FF50
03FFFFFBAAA406AAADFFE1
0AFFFFFFFFF70AFFFFFFF7
0EFFFFFFFFF70AFFFFFFFC
1FFFFFFFFFF70AFFFFFFFD
1FFFFFFFFFF70AFFFFFFFD
1FFFFFFFFFF70AFFFFFFFD
1FFFFFFFFFF70AFFFFFFFD
1FFFFFFFFFF70AFFFFFFFD
1FFFFFFFFFF70AFFFFFFFD
1FFFFFFFFFF70AFFFFFFFD
1FFFFFFFFFF70AFFFFFFFD
1FFFFFF63331023339FFFD
1FFFFFF40000000008FFFD
1FFFFFFFFFFFFFFFFFFFFD
1FFFFFFFFFFFFFFFFFFFFD
0EFFFFFFFFFFFFFFFFFFFB
0AFFFFFFFFFFFFFFFFFFF7
03FFFFFFFFFFFFFFFFFFE1
007FFFFFFFFFFFFFFFFF40
0006EFFFFFFFFFFFFFD400
000017BEFFFFFFFDA60000
ENDCHAR
STARTCHAR icircumflex
ENCODING 238
SWIDTH 578 0
DWIDTH 21 0
BBX 22 35 -1 0
BITMAP
00000000028CCB60000000
000000002EFFFFF8000000
00000000AFFFFFFF300000
00000002FFFB9EFFA00000
00000008FFF229FFF20000
0000001EFFB193FFF80000
0000006FFF56E0CFFD0000
000000BFFE0BF46FFF4000
000001FFF91FF91EFF8000
000003FFF99FFE7DFFB000
000002FFFFFFFFFFFF9000
000028FFFFFFFFFFFF4000
0007FFFECCCCCCCCCEE500
008FFFF40000000008FF50
03FFFFFBAAA406AAADFFE1
0AFFFFFFFFF70AFFFFFFF7
0EFFFFFFFFF70AFFFFFFFC
1FFFFFFFFFF70AFFFFFFFD
1FFFFFFFFFF70AFFFFFFFD
1FFFFFFFFFF70AFFFFFFFD
1FFFFFFFFFF70AFFFFFFFD
1FFFFFFFFFF70AFFFFFFFD
1FFFFFFFFFF70AFFFFFFFD
1FFFFFFFFFF70AFFFFFFFD
1FFFFFFFFFF70AFFFFFFFD
1FFFFFF63331023339FFFD
1FFFFFF40000000008FFFD
1FFFFFFFFFFFFFFFFFFFFD
1FFFFFFFFFFFFFFFFFFFFD
0EFFFFFFFFFFFFFFFFFFFB
0AFFFFFFFFFFFFFFFFFFF7
03FFFFFFFFFFFFFFFFFFE1
007FFFFFFFFFFFFFFFFF40
0006EFFFFFFFFFFFFFD400
000017BEFFFFFFFDA60000
ENDCHAR
STARTCHAR idieresis
ENCODING 239
SWIDTH 578 0
DWIDTH 21 0
BBX 22 33 -1 0
BITMAP
0000000000355420000000
000000018EFFFFFD600000
0000003EFFFFFFFFFB1000
000001DFFFFFFFFFFFA000
000007FFFFFFFFFFFFF200
00000AFFC11EF616FFF500
00000AFFB00EF505FFF500
000007FFEAAFFCABFFF200
000001EFFFFFFFFFFFA000
000028FFFFFFFFFFFF2000
0007FFFCCCCCCCCCCCE500
008FFFF40000000008FF50
03FFFFFBAAA406AAADFFE1
0AFFFFFFFFF70AFFFFFFF7
0EFFFFFFFFF70AFFFFFFFC
1FFFFFFFFFF70AFFFFFFFD
1FFFFFFFFFF70AFFFFFFFD
1FFFFFFFFFF70AFFFFFFFD
1FFFFFFFFFF70AFFFFFFFD
1FFFFFFFFFF70AFFFFFFFD
1FFFFFFFFFF70AFFFFFFFD
1FFFFFFFFFF70AFFFFFFFD
1FFFFFFFFFF70AFFFFFFFD
1FFFFFF63331023339FFFD
1FFFFFF40000000008FFFD
1FFFFFFFFFFFFFFFFFFFFD
1FFFFFFFFFFFFFFFFFFFFD
0EFFFFFFFFFFFFFFFFFFFB
0AFFFFFFFFFFFFFFFFFFF7
03FFFFFFFFFFFFFFFFFFE1
007FFFFFFFFFFFFFFFFF40
0006EFFFFFFFFFFFFFD400
000017BEFFFFFFFDA60000
ENDCHAR
STARTCHAR eth
ENCODING 240
SWIDTH 578 0
DWIDTH 21 0
BBX 22 25 -1 0
BITMAP
0000000011111110000000
000028CFFFFFFFFFB71000
0007FFD888888889DFE500
008FFFC0000000001CFF50
03FFFFC04AAAAA9606FFE1
0AFFFFC06FFFFFFD04FFF7
0EFFFFC06FFFFFFE04FFFC
1FFFFFC06FFFFFFE04FFFD
1FFFFFC06FFFFFFE04FFFD
1FFFF81001EFFFFE04FFFD
1FFFFE905CFFFFFE04FFFD
1FFFFFC06FFFFFFE04FFFD
1FFFFFC06FFFFFFE04FFFD
1FFFFFC06FFFFFFE04FFFD
1FFFFFC06FFFFFFC04FFFD
1FFFFFC01333332007FFFD
1FFFFFC0000000015FFFFD
1FFFFFFFFFFFFFFFFFFFFD
1FFFFFFFFFFFFFFFFFFFFD
0EFFFFFFFFFFFFFFFFFFFB
0AFFFFFFFFFFFFFFFFFFF7
03FFFFFFFFFFFFFFFFFFE1
007FFFFFFFFFFFFFFFFF40
0006EFFFFFFFFFFFFFD400
000017BEFFFFFFFDA60000
ENDCHAR
STARTCHAR ntilde
ENCODING 241
SWIDTH 578 0
DWIDTH 21 0
BBX 22 35 -1 0
BITMAP
0000000015788620000000
0000002AFFFFFFFB300000
000004EFFFFFFFFFE50000
00002EFFFFFFFFFFFF3000
0000AFFFFFFFFFFFFFB000
0001EFFFFFFFFFFFFFF200
0003FFFFFFFFFFFFFFF400
0003FFFE547CF70CFFF400
0001FFF80310400EFFF200
0000BFF72EE9427FFFC000
00003FFFFFFFFFFFFF5000
00002EFFFFFFFFFFFE1000
0007FFFCA888888AEFE500
008FFFA0000000004EFF50
03FFFFA039AAAA930BFFE1
0AFFFFA07FFFFFF709FFF7
0EFFFFA07FFFFFF809FFFC
1FFFFFA07FFFFFF809FFFD
1FFFFFA07FFFFFF809FFFD
1FFFFFA07FFFFFF809FFFD
1FFFFFA07FFFFFF809FFFD
1FFFFFA07FFFFFF809FFFD
1FFFFFA07FFFFFF809FFFD
1FFFFFA07FFFFFF809FFFD
1FFFFFA07FFFFFF809FFFD
1FFFFFA07FFFFFF809FFFD
1FFFFFA07FFFFFF809FFFD
1FFFFFFFFFFFFFFFFFFFFD
1FFFFFFFFFFFFFFFFFFFFD
0EFFFFFFFFFFFFFFFFFFFB
0AFFFFFFFFFFFFFFFFFFF7
03FFFFFFFFFFFFFFFFFFE1
007FFFFFFFFFFFFFFFFF40
0006EFFFFFFFFFFFFFD400
000017BEFFFFFFFDA60000
ENDCHAR
STARTCHAR oacute
ENCODING 243
SWIDTH 578 0
DWIDTH 21 0
BBX 22 35 -1 0
BITMAP
0000000000000100000000
00000000007DFFEC600000
0000000008FFFFFFFB0000
000000001FFFFFFFFF6000
000000005FFF708FFF8000
00000000AFFF21EFFF5000
00000000EFFD06FFFE1000
00000003FFF80DFFF60000
00000007FFF45FFFC00000
00000009FFE3CFFF300000
00000007FFFFFFFA000000
000028CFFFFFFFFFB71000
0007FFFFCFFFFFC9DFE500
008FFFF5000000001CFF50
03FFFFD028AAAA9506FFE1
0AFFFFB06FFFFFFD04FFF7
0EFFFFB07FFFFFFD04FFFC
1FFFFFB07FFFFFFD04FFFD
1FFFFFB07FFFFFFD04FFFD
1FFFFFB07FFFFFFD04FFFD
1FFFFFB07FFFFFFD04FFFD
1FFFFFB07FFFFFFD04FFFD
1FFFFFB07FFFFFFD04FFFD
1FFFFFB07FFFFFFD04FFFD
1FFFFFC04FFFFFFB05FFFD
1FFFFFE00233332008FFFD
1FFFFFFB200000015FFFFD
1FFFFFFFFFFFFFFFFFFFFD
1FFFFFFFFFFFFFFFFFFFFD
0EFFFFFFFFFFFFFFFFFFFB
0AFFFFFFFFFFFFFFFFFFF7
03FFFFFFFFFFFFFFFFFFE1
007FFFFFFFFFFFFFFFFF40
0006EFFFFFFFFFFFFFD400
000017BEFFFFFFFDA60000
ENDCHAR
STARTCHAR ocircumflex
ENCODING 244
SWIDTH 578 0
DWIDTH 21 0
BBX 22 35 -1 0
BITMAP
00000000029CCB50000000
000000002EFFFFF7000000
00000000BFFFFFFF200000
00000003FFFB9FFF900000
00000009FFF12AFFE10000
0000001FFFA284FFF70000
0000007FFF47D0DFFD0000
000000CFFD0CF37FFF3000
000001FFF82FF82FFF7000
000004FFF9AFFD7DFFA000
000003FFFFFFFFFFFF8000
000028FFFFFFFFFFFF3000
0007FFFFFDCCCCCEFFE500
008FFFF5000000001CFF50
03FFFFD028AAAA9506FFE1
0AFFFFB06FFFFFFD04FFF7
0EFFFFB07FFFFFFD04FFFC
1FFFFFB07FFFFFFD04FFFD
1FFFFFB07FFFFFFD04FFFD
1FFFFFB07FFFFFFD04FFFD
1FFFFFB07FFFFFFD04FFFD
1FFFFFB07FFFFFFD04FFFD
1FFFFFB07FFFFFFD04FFFD
1FFFFFB07FFFFFFD04FFFD
1FFFFFC04FFFFFFB05FFFD
1FFFFFE00233332008FFFD
1FFFFFFB200000015FFFFD
1FFFFFFFFFFFFFFFFFFFFD
1FFFFFFFFFFFFFFFFFFFFD
0EFFFFFFFFFFFFFFFFFFFB
0AFFFFFFFFFFFFFFFFFFF7
03FFFFFFFFFFFFFFFFFFE1
007FFFFFFFFFFFFFFFFF40
0006EFFFFFFFFFFFFFD400
000017BEFFFFFFFDA60000
ENDCHAR
STARTCHAR otilde
ENCODING 245
SWIDTH 578 0
DWIDTH 21 0
BBX 22 35 -1 0
BITMAP
0000000003788740000000
00000006DFFFFFFE700000
000000AFFFFFFFFFFB1000
000008FFFFFFFFFFFFA000
00002FFFFFFFFFFFFFF400
00007FFFFFFFFFFFFFF900
0000AFFFFFFFFFFFFFFC00
0000AFFFA459EE15FFFC00
00008FFF11401306FFFA00
00003FFE28FC633CFFF500
00000AFFFFFFFFFFFFC000
000029FFFFFFFFFFFF3000
0007FFFFA8888889DFE500
008FFFF5000000001CFF50
03FFFFD028AAAA9506FFE1
0AFFFFB06FFFFFFD04FFF7
0EFFFFB07FFFFFFD04FFFC
1FFFFFB07FFFFFFD04FFFD
1FFFFFB07FFFFFFD04FFFD
1FFFFFB07FFFFFFD04FFFD
1FFFFFB07FFFFFFD04FFFD
1FFFFFB07FFFFFFD04FFFD
1FFFFFB07FFFFFFD04FFFD
1FFFFFB07FFFFFFD04FFFD
1FFFFFC04FFFFFFB05FFFD
1FFFFFE00233332008FFFD
1FFFFFFB200000015FFFFD
1FFFFFFFFFFFFFFFFFFFFD
1FFFFFFFFFFFFFFFFFFFFD
0EFFFFFFFFFFFFFFFFFFFB
0AFFFFFFFFFFFFFFFFFFF7
03FFFFFFFFFFFFFFFFFFE1
007FFFFFFFFFFFFFFFFF40
0006EFFFFFFFFFFFFFD400
000017BEFFFFFFFDA60000
ENDCHAR
STARTCHAR odieresis
ENCODING 246
SWIDTH 578 0
DWIDTH 21 0
BBX 22 33 -1 0
BITMAP
0000000000355420000000
000000019EFFFFFD600000
0000003EFFFFFFFFFB1000
000001EFFFFFFFFFFF9000
000007FFFFFFFFFFFFF200
00000BFFB11FF617FFF500
00000AFFB00FF506FFF500
000007FFEAAFFBACFFF200
000002EFFFFFFFFFFFA000
000028FFFFFFFFFFFF2000
0007FFFFFDCCCCCEFFE500
008FFFF5000000001CFF50
03FFFFD028AAAA9506FFE1
0AFFFFB06FFFFFFD04FFF7
0EFFFFB07FFFFFFD04FFFC
1FFFFFB07FFFFFFD04FFFD
1FFFFFB07FFFFFFD04FFFD
1FFFFFB07FFFFFFD04FFFD
1FFFFFB07FFFFFFD04FFFD
1FFFFFB07FFFFFFD04FFFD
1FFFFFB07FFFFFFD04FFFD
1FFFFFB07FFFFFFD04FFFD
1FFFFFC04FFFFFFB05FFFD
1FFFFFE00233332008FFFD
1FFFFFFB200000015FFFFD
1FFFFFFFFFFFFFFFFFFFFD
1FFFFFFFFFFFFFFFFFFFFD
0EFFFFFFFFFFFFFFFFFFFB
0AFFFFFFFFFFFFFFFFFFF7
03FFFFFFFFFFFFFFFFFFE1
007FFFFFFFFFFFFFFFFF40
0006EFFFFFFFFFFFFFD400
000017BEFFFFFFFDA60000
ENDCHAR
STARTCHAR divide
ENCODING 247
SWIDTH 428 0
DWIDTH 15 0
BBX 17 25 -1 0
BITMAP
000000001000000000
000028CFFFEA400000
0007FFFFFFFFFB1000
008FFFFFEEFFFFD100
03FFFFF802FFFFF900
0AFFFFF802FFFFFF10
0EFFFFFDCCFFFFFF50
1FFFF6000000FFFF70
1FFFF7222222FFFF70
1FFFFFFDBCFFFFFF70
1FFFFFF802FFFFFF70
1FFFFFF802FFFFFF70
1FFFFFFFFFFFFFFF70
1FFFFFFFFFFFFFFF70
1FFFFFFFFFFFFFFF70
1FFFFFFFFFFFFFFF70
1FFFFFFFFFFFFFFF70
1FFFFFFFFFFFFFFF70
1FFFFFFFFFFFFFFF70
0EFFFFFFFFFFFFFF50
0AFFFFFFFFFFFFFF10
03FFFFFFFFFFFFF900
007FFFFFFFFFFFC100
0006EFFFFFFFFA1000
000017BEFEC9300000
ENDCHAR
STARTCHAR oslash
ENCODING 248
SWIDTH 578 0
DWIDTH 21 0
BBX 22 25 -1 0
BITMAP
0000000011111110000000
000028CFFFFFFFFFB71000
0007FFFEA877778AEFE500
008FFFE3000000002EFF50
03FFFFA049AAAA4009FFE1
0AFFFF809FFFFC0107FFF7
0EFFFF80AFFFF31907FFFC
1FFFFF80AFFF809A07FFFD
1FFFFF80AFFC04FA07FFFD
1FFFFF80AFF31DFA07FFFD
1FFFFF80AF808FFA07FFFD
1FFFFF80AC03FFFA07FFFD
1FFFFF80930CFFFA07FFFD
1FFFFF80307FFFFA07FFFD
1FFFFF9002FFFFF708FFFD
1FFFFFC0001111000BFFFD
1FFFFFFA311111139FFFFD
1FFFFFFFFFFFFFFFFFFFFD
1FFFFFFFFFFFFFFFFFFFFD
0EFFFFFFFFFFFFFFFFFFFB
0AFFFFFFFFFFFFFFFFFFF7
03FFFFFFFFFFFFFFFFFFE1
007FFFFFFFFFFFFFFFFF40
0006EFFFFFFFFFFFFFD400
000017BEFFFFFFFDA60000
ENDCHAR
STARTCHAR ugrave
ENCODING 249
SWIDTH 578 0
DWIDTH 21 0
BBX 22 35 -1 0
BITMAP
0000000001100000000000
0000004AEFFE9100000000
000007FFFFFFFC00000000
00002FFFFFFFFF50000000
00004FFFC02FFF90000000
00002FFFF40DFFE0000000
00000AFFFB08FFF3000000
000002FFFF34FFF8000000
0000008FFF90EFFB000000
0000001DFFF3BFFE000000
00000005FFFFFFFB000000
000028CFFFFFFFFFB71000
0007FFC8EFFFFFFD8AE500
008FFF908FFFFFFC06FF50
03FFFF908FFFFFFC06FFE1
0AFFFF908FFFFFFC06FFF7
0EFFFF908FFFFFFC06FFFC
1FFFFF908FFFFFFC06FFFD
1FFFFF908FFFFFFC06FFFD
1FFFFF908FFFFFFC06FFFD
1FFFFF908FFFFFFC06FFFD
1FFFFF908FFFFFFC06FFFD
1FFFFF908FFFFFFC06FFFD
1FFFFF908FFFFFFC06FFFD
1FFFFFA06FFFFFFA06FFFD
1FFFFFD00233332009FFFD
1FFFFFFA200000017FFFFD
1FFFFFFFFFFFFFFFFFFFFD
1FFFFFFFFFFFFFFFFFFFFD
0EFFFFFFFFFFFFFFFFFFFB
0AFFFFFFFFFFFFFFFFFFF7
03FFFFFFFFFFFFFFFFFFE1
007FFFFFFFFFFFFFFFFF40
0006EFFFFFFFFFFFFFD400
000017BEFFFFFFFDA60000
ENDCHAR
STARTCHAR uacute
ENCODING 250
SWIDTH 578 0
DWIDTH 21 0
BBX 22 35 -1 0
BITMAP
0000000000000100000000
00000000003BEFFD920000
0000000002EFFFFFFE4000
0000000008FFFFFFFFD000
000000000DFFE01EFFF000
000000002FFF907FFFD000
000000007FFF50EFFF7000
00000000BFFF16FFFD0000
00000000FFFB0DFFF50000
00000002FFF86FFFB00000
00000000FFFFFFFF200000
000028CFFFFFFFFFB71000
0007FFC8CFFFFFFE8AE500
008FFF908FFFFFFC06FF50
03FFFF908FFFFFFC06FFE1
0AFFFF908FFFFFFC06FFF7
0EFFFF908FFFFFFC06FFFC
1FFFFF908FFFFFFC06FFFD
1FFFFF908FFFFFFC06FFFD
1FFFFF908FFFFFFC06FFFD
1FFFFF908FFFFFFC06FFFD
1FFFFF908FFFFFFC06FFFD
1FFFFF908FFFFFFC06FFFD
1FFFFF908FFFFFFC06FFFD
1FFFFFA06FFFFFFA06FFFD
1FFFFFD00233332009FFFD
1FFFFFFA200000017FFFFD
1FFFFFFFFFFFFFFFFFFFFD
1FFFFFFFFFFFFFFFFFFFFD
0EFFFFFFFFFFFFFFFFFFFB
0AFFFFFFFFFFFFFFFFFFF7
03FFFFFFFFFFFFFFFFFFE1
007FFFFFFFFFFFFFFFFF40
0006EFFFFFFFFFFFFFD400
000017BEFFFFFFFDA60000
ENDCHAR
STARTCHAR ucircumflex
ENCODING 251
SWIDTH 578 0
DWIDTH 21 0
BBX 22 35 -1 0
BITMAP
00000000028CCB60000000
000000002EFFFFF8000000
00000000AFFFFFFF300000
00000002FFFB9EFFA00000
00000008FFF229FFF20000
0000001EFFB193FFF80000
0000006FFF56E0CFFD0000
000000BFFE0BF46FFF4000
000001FFF91FF91EFF8000
000003FFF99FFE7DFFB000
000002FFFFFFFFFFFF9000
000028FFFFFFFFFFFF4000
0007FFDCFFFFFFFFCDE500
008FFF908FFFFFFC06FF50
03FFFF908FFFFFFC06FFE1
0AFFFF908FFFFFFC06FFF7
0EFFFF908FFFFFFC06FFFC
1FFFFF908FFFFFFC06FFFD
1FFFFF908FFFFFFC06FFFD
1FFFFF908FFFFFFC06FFFD
1FFFFF908FFFFFFC06FFFD
1FFFFF908FFFFFFC06FFFD
1FFFFF908FFFFFFC06FFFD
1FFFFF908FFFFFFC06FFFD
1FFFFFA06FFFFFFA06FFFD
1FFFFFD00233332009FFFD
1FFFFFFA200000017FFFFD
1FFFFFFFFFFFFFFFFFFFFD
1FFFFFFFFFFFFFFFFFFFFD
0EFFFFFFFFFFFFFFFFFFFB
0AFFFFFFFFFFFFFFFFFFF7
03FFFFFFFFFFFFFFFFFFE1
007FFFFFFFFFFFFFFFFF40
0006EFFFFFFFFFFFFFD400
000017BEFFFFFFFDA60000
ENDCHAR
STARTCHAR udieresis
ENCODING 252
SWIDTH 578 0
DWIDTH 21 0
BBX 22 33 -1 0
BITMAP
0000000000355420000000
000000018EFFFFFD600000
0000003EFFFFFFFFFB1000
000001DFFFFFFFFFFFA000
000007FFFFFFFFFFFFF200
00000AFFC11EF616FFF500
00000AFFB00EF505FFF500
000007FFEAAFFCABFFF200
000001EFFFFFFFFFFFA000
000028FFFFFFFFFFFF2000
0007FFCAFFFFFFFFCBE500
008FFF908FFFFFFC06FF50
03FFFF908FFFFFFC06FFE1
0AFFFF908FFFFFFC06FFF7
0EFFFF908FFFFFFC06FFFC
1FFFFF908FFFFFFC06FFFD
1FFFFF908FFFFFFC06FFFD
1FFFFF908FFFFFFC06FFFD
1FFFFF908FFFFFFC06FFFD
1FFFFF908FFFFFFC06FFFD
1FFFFF908FFFFFFC06FFFD
1FFFFF908FFFFFFC06FFFD
1FFFFFA06FFFFFFA06FFFD
1FFFFFD00233332009FFFD
1FFFFFFA200000017FFFFD
1FFFFFFFFFFFFFFFFFFFFD
1FFFFFFFFFFFFFFFFFFFFD
0EFFFFFFFFFFFFFFFFFFFB
0AFFFFFFFFFFFFFFFFFFF7
03FFFFFFFFFFFFFFFFFFE1
007FFFFFFFFFFFFFFFFF40
0006EFFFFFFFFFFFFFD400
000017BEFFFFFFFDA60000
ENDCHAR
STARTCHAR yacute
ENCODING 253
SWIDTH 578 0
DWIDTH 21 0
BBX 22 35 -1 0
BITMAP
0000000000000100000000
00000000004BFFFD820000
0000000003FFFFFFFE3000
000000000AFFFFFFFFB000
000000000EFFC02FFFE000
000000004FFF809FFFB000
000000009FFF31EFFF5000
00000000DFFE08FFFC0000
00000002FFF91EFFF30000
00000004FFF77FFF900000
00000002FFFFFFFE100000
000028CFFFFFFFFFB71000
0007FFF88FFFFFFA8BE500
008FFFF408FFFFE10CFF50
03FFFFFB02FFFF904FFFE1
0AFFFFFF20BFFF30AFFFF7
0EFFFFFF805FFC02FFFFFC
1FFFFFFFE10EF608FFFFFD
1FFFFFFFF608E01EFFFFFD
1FFFFFFFFC02806FFFFFFD
1FFFFFFFFF4010CFFFFFFD
1FFFFFFFFFA004FFFFFFFD
1FFFFFFFFFF10AFFFFFFFD
1FFFFFFFFFF40DFFFFFFFD
1FFFFFFFFFF40DFFFFFFFD
1FFFFFFFFFF40DFFFFFFFD
1FFFFFFFFFF40DFFFFFFFD
1FFFFFFFFFFFFFFFFFFFFD
1FFFFFFFFFFFFFFFFFFFFD
0EFFFFFFFFFFFFFFFFFFFB
0AFFFFFFFFFFFFFFFFFFF7
03FFFFFFFFFFFFFFFFFFE1
007FFFFFFFFFFFFFFFFF40
0006EFFFFFFFFFFFFFD400
000017BEFFFFFFFDA60000
ENDCHAR
STARTCHAR thorn
ENCODING 254
SWIDTH 578 0
DWIDTH 21 0
BBX 22 25 -1 0
BITMAP
0000000011111110000000
000028CEEFFFFFFFB71000
0007FFF908FFFFFFFFE500
008FFFF908FFFFFFFFFF50
03FFFFF908FFFFFFFFFFE1
0AFFFFF900111114CFFFF7
0EFFFFF9011111001EFFFC
1FFFFFF908FFFFF50BFFFD
1FFFFFF908FFFFF70AFFFD
1FFFFFF908FFFFF70AFFFD
1FFFFFF908FFFFF50BFFFD
1FFFFFF9011111100DFFFD
1FFFFFF900000013BFFFFD
1FFFFFF908FFFFFFFFFFFD
1FFFFFF908FFFFFFFFFFFD
1FFFFFF908FFFFFFFFFFFD
1FFFFFF908FFFFFFFFFFFD
1FFFFFFFFFFFFFFFFFFFFD
1FFFFFFFFFFFFFFFFFFFFD
0EFFFFFFFFFFFFFFFFFFFB
0AFFFFFFFFFFFFFFFFFFF7
03FFFFFFFFFFFFFFFFFFE1
007FFFFFFFFFFFFFFFFF40
0006EFFFFFFFFFFFFFD400
000017BEFFFFFFFDA60000
ENDCHAR
STARTCHAR ydieresis
ENCODING 255
SWIDTH 578 0
DWIDTH 21 0
BBX 22 33 -1 0
BITMAP
0000000000355420000000
000000029EFFFFFC500000
0000004EFFFFFFFFFA0000
000002EFFFFFFFFFFF8000
000008FFFFFFFFFFFFF100
00000CFFA12FF518FFF400
00000BFFA01FF407FFF300
000008FFDAAFFBACFFF100
000002FFFFFFFFFFFF9000
000028FFFFFFFFFFFF2000
0007FFFACFFFFFFECCE500
008FFFF408FFFFE10CFF50
03FFFFFB02FFFF904FFFE1
0AFFFFFF20BFFF30AFFFF7
0EFFFFFF805FFC02FFFFFC
1FFFFFFFE10EF608FFFFFD
1FFFFFFFF608E01EFFFFFD
1FFFFFFFFC02806FFFFFFD
1FFFFFFFFF4010CFFFFFFD
1FFFFFFFFFA004FFFFFFFD
1FFFFFFFFFF10AFFFFFFFD
1FFFFFFFFFF40DFFFFFFFD
1FFFFFFFFFF40DFFFFFFFD
1FFFFFFFFFF40DFFFFFFFD
1FFFFFFFFFF40DFFFFFFFD
1FFFFFFFFFFFFFFFFFFFFD
1FFFFFFFFFFFFFFFFFFFFD
0EFFFFFFFFFFFFFFFFFFFB
0AFFFFFFFFFFFFFFFFFFF7
03FFFFFFFFFFFFFFFFFFE1
007FFFFFFFFFFFFFFFFF40
0006EFFFFFFFFFFFFFD400
000017BEFFFFFFFDA60000
ENDCHAR
STARTCHAR Amacron
ENCODING 256
SWIDTH 578 0
DWIDTH 21 0
BBX 22 33 -1 0
BITMAP
0000000004677630000000
00000018EFFFFFFE710000
000003EFFFFFFFFFFD2000
00001EFFFFFFFFFFFFD000
00008FFFFFFFFFFFFFF600
0000CFFFA666666FFFFA00
0000CFFF6000000FFFFA00
0000AFFFCAAAAAAFFFF800
00004FFFFFFFFFFFFFF200
00002FFFFFFFFFFFFF7000
0007FFFFFFFFFFFFFFE500
008FFFFE20000003EFFF50
03FFFFF8048AA8309FFFE1
0AFFFFF70AFFFF907FFFF7
0EFFFFF50CFFFFA06FFFFC
1FFFFFF30DFFFFC04FFFFD
1FFFFFF20EFFFFE03FFFFD
1FFFFFF01FFFFFF01FFFFD
1FFFFFE0000000000EFFFD
1FFFFFC0155555510DFFFD
1FFFFFA05FFFFFF50BFFFD
1FFFFF907FFFFFF60AFFFD
1FFFFF708FFFFFF808FFFD
1FFFFF509FFFFFF906FFFD
1FFFFF40AFFFFFFA05FFFD
1FFFFFFFFFFFFFFFFFFFFD
1FFFFFFFFFFFFFFFFFFFFD
0EFFFFFFFFFFFFFFFFFFFB
0AFFFFFFFFFFFFFFFFFFF7
03FFFFFFFFFFFFFFFFFFE1
007FFFFFFFFFFFFFFFFF40
0006EFFFFFFFFFFFFFD400
000017BEFFFFFFFDA60000
ENDCHAR
STARTCHAR amacron
ENCODING 257
SWIDTH 578 0
DWIDTH 21 0
BBX 22 33 -1 0
BITMAP
0000000002677641000000
00000006DFFFFFFFA20000
000001BFFFFFFFFFFF5000
00000AFFFFFFFFFFFFF300
00003FFFFFFFFFFFFFFB00
00007FFFD666666CFFFF00
00007FFFB000000AFFFF00
00005FFFEAAAAAADFFFD00
00000DFFFFFFFFFFFFF600
00002CFFFFFFFFFFFFC000
0007FFFFFFFFFFFFFFF500
008FFFF700000003EFFF50
03FFFFFB8AAAA930BFFFE1
0AFFFFFFFFFFFF80BFFFF7
0EFFFFFFFFFFFF90BFFFFC
1FFFFFFFFFFFFF90BFFFFD
1FFFFFFFFFFFFF90BFFFFD
1FFFFFFB86666650BFFFFD
1FFFFFA000000000BFFFFD
1FFFFF508BBBBB60BFFFFD
1FFFFF30EFFFFF90BFFFFD
1FFFFF30EFFFFF90BFFFFD
1FFFFF40CFFFFF90BFFFFD
1FFFFF7012333200BFFFFD
1FFFFFE510000021BFFFFD
1FFFFFFFFFFFFFFFFFFFFD
1FFFFFFFFFFFFFFFFFFFFD
0EFFFFFFFFFFFFFFFFFFFB
0AFFFFFFFFFFFFFFFFFFF7
03FFFFFFFFFFFFFFFFFFE1
007FFFFFFFFFFFFFFFFF40
0006EFFFFFFFFFFFFFD400
000017BEFFFFFFFDA60000
ENDCHAR
STARTCHAR Abreve
ENCODING 258
SWIDTH 578 0
DWIDTH 21 0
BBX 22 34 -1 0
BITMAP
0000000004677630000000
00000018EFFFFFFE710000
000003EFFFFFFFFFFD2000
00001EFFFFFFFFFFFFD000
00008FFFFFFFFFFFFFF600
0000CFFFEBEFFEBEFFFA00
0000CFFFC09FF80DFFFA00
0000AFFFE202202FFFF800
00004FFFFD6446DFFFF200
000008FFFFFFFFFFFF6000
000028FFFFFFFFFFFC1000
0007FFFFEB9889BEFFE500
008FFFFE20000003EFFF50
03FFFFF8048AA8309FFFE1
0AFFFFF70AFFFF907FFFF7
0EFFFFF50CFFFFA06FFFFC
1FFFFFF30DFFFFC04FFFFD
1FFFFFF20EFFFFE03FFFFD
1FFFFFF01FFFFFF01FFFFD
1FFFFFE0000000000EFFFD
1FFFFFC0155555510DFFFD
1FFFFFA05FFFFFF50BFFFD
1FFFFF907FFFFFF60AFFFD
1FFFFF708FFFFFF808FFFD
1FFFFF509FFFFFF906FFFD
1FFFFF40AFFFFFFA05FFFD
1FFFFFFFFFFFFFFFFFFFFD
1FFFFFFFFFFFFFFFFFFFFD
0EFFFFFFFFFFFFFFFFFFFB
0AFFFFFFFFFFFFFFFFFFF7
03FFFFFFFFFFFFFFFFFFE1
007FFFFFFFFFFFFFFFFF40
0006EFFFFFFFFFFFFFD400
000017BEFFFFFFFDA60000
ENDCHAR
STARTCHAR abreve
ENCODING 259
SWIDTH 578 0
DWIDTH 21 0
BBX 22 34 -1 0
BITMAP
0000000002677641000000
00000006DFFFFFFFA20000
000001BFFFFFFFFFFF5000
00000AFFFFFFFFFFFFF300
00003FFFFFFFFFFFFFFB00
00007FFFFCDFFFBDFFFF00
00007FFFF24FFC08FFFF00
00005FFFF601200CFFFD00
00000DFFFF7545BFFFF600
000004FFFFFFFFFFFFB000
000028FFFFFFFFFFFF1000
0007FFFC988888AEFFE500
008FFFF700000003EFFF50
03FFFFFB8AAAA930BFFFE1
0AFFFFFFFFFFFF80BFFFF7
0EFFFFFFFFFFFF90BFFFFC
1FFFFFFFFFFFFF90BFFFFD
1FFFFFFFFFFFFF90BFFFFD
1FFFFFFB86666650BFFFFD
1FFFFFA000000000BFFFFD
1FFFFF508BBBBB60BFFFFD
1FFFFF30EFFFFF90BFFFFD
1FFFFF30EFFFFF90BFFFFD
1FFFFF40CFFFFF90BFFFFD
1FFFFF7012333200BFFFFD
1FFFFFE510000021BFFFFD
1FFFFFFFFFFFFFFFFFFFFD
1FFFFFFFFFFFFFFFFFFFFD
0EFFFFFFFFFFFFFFFFFFFB
0AFFFFFFFFFFFFFFFFFFF7
03FFFFFFFFFFFFFFFFFFE1
007FFFFFFFFFFFFFFFFF40
0006EFFFFFFFFFFFFFD400
000017BEFFFFFFFDA60000
ENDCHAR
STARTCHAR Aogonek
ENCODING 260
SWIDTH 578 0
DWIDTH 21 0
BBX 22 25 -1 0
BITMAP
0000000011111110000000
000028CFFFFFFFFFB71000
0007FFFFEB9889BEFFE500
008FFFFE20000003EFFF50
03FFFFF8048AA8309FFFE1
0AFFFFF70AFFFF907FFFF7
0EFFFFF50CFFFFA06FFFFC
1FFFFFF30DFFFFC04FFFFD
1FFFFFF20EFFFFE03FFFFD
1FFFFFF01FFFFFF01FFFFD
1FFFFFE0000000000EFFFD
1FFFFFC0155555510DFFFD
1FFFFFA05FFFFFF50BFFFD
1FFFFF907FFFFFF60AFFFD
1FFFFF708FFFFFF808FFFD
1FFFFF509FFFFFF906FFFD
1FFFFF40AFFFFFFA05FFFD
1FFFFFFFFFFFFFF71CFFFD
1FFFFFFFFFFFFF50BFFFFD
0EFFFFFFFFFFFE06FFFFFB
0AFFFFFFFFFFFE06FFFFF7
03FFFFFFFFFFFF3006FFE1
007FFFFFFFFFFFE769FF40
0006EFFFFFFFFFFFFFD400
000017BEFFFFFFFDA60000
ENDCHAR
STARTCHAR aogonek
ENCODING 261
SWIDTH 578 0
DWIDTH 21 0
BBX 22 25 -1 0
BITMAP
0000000011111110000000
000028CFFFFFFFFFB71000
0007FFFC988888AEFFE500
008FFFF700000003EFFF50
03FFFFFB8AAAA930AFFFE1
0AFFFFFFFFFFFF808FFFF7
0EFFFFFFFFFFFF908FFFFC
1FFFFFFFFFFFFF908FFFFD
1FFFFFFFFFFFFF908FFFFD
1FFFFFFB866666508FFFFD
1FFFFFA0000000008FFFFD
1FFFFF508BBBBB608FFFFD
1FFFFF30EFFFFF908FFFFD
1FFFFF30EFFFFF908FFFFD
1FFFFF40CFFFFF808FFFFD
1FFFFF70123332008FFFFD
1FFFFFE5100000129FFFFD
1FFFFFFFFFD52EFFFFFFFD
1FFFFFFFFE21DFFFFFFFFD
0EFFFFFFFB0AFFFFFFFFFB
0AFFFFFFFA09FFFFFFFFF7
03FFFFFFFD100AFFFFFFE1
007FFFFFFFC76BFFFFFF40
0006EFFFFFFFFFFFFFD400
000017BEFFFFFFFDA60000
ENDCHAR
STARTCHAR Cacute
ENCODING 262
SWIDTH 578 0
DWIDTH 21 0
BBX 22 35 -1 0
BITMAP
0000000000000110000000
00000000002AEFFE930000
0000000001DFFFFFFF5000
0000000006FFFFFFFFE100
000000000BFFF10DFFF200
000000001FFFB06FFFE000
000000005FFF70CFFF8000
00000000AFFF24FFFE1000
00000000DFFD0BFFF60000
00000000FFFA5FFFC00000
00000000EFFFFFFF400000
000028CFFFFFFFFFB71000
0007FFFE9CFFFFFCFFE500
008FFFE200000003FFFF50
03FFFF9049AAAA89FFFFE1
0AFFFF70AFFFFFFFFFFFF7
0EFFFF70AFFFFFFFFFFFFC
1FFFFF70AFFFFFFFFFFFFD
1FFFFF70AFFFFFFFFFFFFD
1FFFFF70AFFFFFFFFFFFFD
1FFFFF70AFFFFFFFFFFFFD
1FFFFF70AFFFFFFFFFFFFD
1FFFFF70AFFFFFFFFFFFFD
1FFFFF70AFFFFFFFFFFFFD
1FFFFF808FFFFFFFFFFFFD
1FFFFFB002333315FFFFFD
1FFFFFF810000014FFFFFD
1FFFFFFFFFFFFFFFFFFFFD
1FFFFFFFFFFFFFFFFFFFFD
0EFFFFFFFFFFFFFFFFFFFB
0AFFFFFFFFFFFFFFFFFFF7
03FFFFFFFFFFFFFFFFFFE1
007FFFFFFFFFFFFFFFFF40
0006EFFFFFFFFFFFFFD400
000017BEFFFFFFFDA60000
ENDCHAR
STARTCHAR cacute
ENCODING 263
SWIDTH 578 0
DWIDTH 21 0
BBX 22 35 -1 0
BITMAP
0000000000000100000000
00000000003BFFFD820000
0000000002EFFFFFFE4000
0000000008FFFFFFFFD000
000000000DFFD01FFFF000
000000003FFF908FFFC000
000000007FFF41EFFF6000
00000000CFFE16FFFD0000
00000001FFFA0DFFF40000
00000003FFF86FFFA00000
00000001FFFFFFFF200000
000028CFFFFFFFFFB71000
0007FFFE9DFFFFFBFFE500
008FFFE200000003FFFF50
03FFFF9049AAAA89FFFFE1
0AFFFF70AFFFFFFFFFFFF7
0EFFFF70AFFFFFFFFFFFFC
1FFFFF70AFFFFFFFFFFFFD
1FFFFF70AFFFFFFFFFFFFD
1FFFFF70AFFFFFFFFFFFFD
1FFFFF70AFFFFFFFFFFFFD
1FFFFF70AFFFFFFFFFFFFD
1FFFFF70AFFFFFFFFFFFFD
1FFFFF70AFFFFFFFFFFFFD
1FFFFF808FFFFFFFFFFFFD
1FFFFFB002333315FFFFFD
1FFFFFF810000014FFFFFD
1FFFFFFFFFFFFFFFFFFFFD
1FFFFFFFFFFFFFFFFFFFFD
0EFFFFFFFFFFFFFFFFFFFB
0AFFFFFFFFFFFFFFFFFFF7
03FFFFFFFFFFFFFFFFFFE1
007FFFFFFFFFFFFFFFFF40
0006EFFFFFFFFFFFFFD400
000017BEFFFFFFFDA60000
ENDCHAR
STARTCHAR Ccircumflex
ENCODING 264
SWIDTH 578 0
DWIDTH 21 0
BBX 22 35 -1 0
BITMAP
0000000004ACCA30000000
000000006FFFFFF4000000
00000001EFFFFFFD000000
00000007FFF9AFFF500000
0000000DFFC11EFFC00000
0000005FFF6658FFF30000
000000BFFF1B92FFF90000
000001FFFA1FE0BFFE0000
000005FFF46FF45FFF3000
000008FFF7CFFB8FFF6000
000007FFFFFFFFFFFF4000
00002AFFFFFFFFFFFF1000
0007FFFFECCCCCDFFFE500
008FFFE200000003FFFF50
03FFFF9049AAAA89FFFFE1
0AFFFF70AFFFFFFFFFFFF7
0EFFFF70AFFFFFFFFFFFFC
1FFFFF70AFFFFFFFFFFFFD
1FFFFF70AFFFFFFFFFFFFD
1FFFFF70AFFFFFFFFFFFFD
1FFFFF70AFFFFFFFFFFFFD
1FFFFF70AFFFFFFFFFFFFD
1FFFFF70AFFFFFFFFFFFFD
1FFFFF70AFFFFFFFFFFFFD
1FFFFF808FFFFFFFFFFFFD
1FFFFFB002333315FFFFFD
1FFFFFF810000014FFFFFD
1FFFFFFFFFFFFFFFFFFFFD
1FFFFFFFFFFFFFFFFFFFFD
0EFFFFFFFFFFFFFFFFFFFB
0AFFFFFFFFFFFFFFFFFFF7
03FFFFFFFFFFFFFFFFFFE1
007FFFFFFFFFFFFFFFFF40
0006EFFFFFFFFFFFFFD400
000017BEFFFFFFFDA60000
ENDCHAR
STARTCHAR ccircumflex
ENCODING 265
SWIDTH 578 0
DWIDTH 21 0
BBX 22 35 -1 0
BITMAP
0000000004ACC930000000
000000007FFFFFE3000000
00000001EFFFFFFC000000
00000008FFF9AFFF400000
0000000EFFB21EFFB00000
0000006FFF5749FFF20000
000000CFFE0C83FFF80000
000002FFF92FD0CFFD0000
000006FFF37FF36FFF3000
000009FFE7DFFB8FFF5000
000008FFFFFFFFFFFF3000
00002AFFFFFFFFFFFF1000
0007FFFFECCCCCDFFFE500
008FFFE200000003FFFF50
03FFFF9049AAAA89FFFFE1
0AFFFF70AFFFFFFFFFFFF7
0EFFFF70AFFFFFFFFFFFFC
1FFFFF70AFFFFFFFFFFFFD
1FFFFF70AFFFFFFFFFFFFD
1FFFFF70AFFFFFFFFFFFFD
1FFFFF70AFFFFFFFFFFFFD
1FFFFF70AFFFFFFFFFFFFD
1FFFFF70AFFFFFFFFFFFFD
1FFFFF70AFFFFFFFFFFFFD
1FFFFF808FFFFFFFFFFFFD
1FFFFFB002333315FFFFFD
1FFFFFF810000014FFFFFD
1FFFFFFFFFFFFFFFFFFFFD
1FFFFFFFFFFFFFFFFFFFFD
0EFFFFFFFFFFFFFFFFFFFB
0AFFFFFFFFFFFFFFFFFFF7
03FFFFFFFFFFFFFFFFFFE1
007FFFFFFFFFFFFFFFFF40
0006EFFFFFFFFFFFFFD400
000017BEFFFFFFFDA60000
ENDCHAR
STARTCHAR Cdotaccent
ENCODING 266
SWIDTH 578 0
DWIDTH 21 0
BBX 22 33 -1 0
BITMAP
0000000036776410000000
0000007DFFFFFFE9100000
00002CFFFFFFFFFFE30000
0000CFFFFFFFFFFFFE2000
0005FFFFFFFFFFFFFF8000
0009FFFFFE66DFFFFFC000
000AFFFFFD00CFFFFFD000
0008FFFFFE55DFFFFFB000
0004FFFFFFFFFFFFFF7000
0000EFFFFFFFFFFFFF2000
0007FFFFFFFFFFFFFFE500
008FFFE200000003FFFF50
03FFFF9049AAAA89FFFFE1
0AFFFF70AFFFFFFFFFFFF7
0EFFFF70AFFFFFFFFFFFFC
1FFFFF70AFFFFFFFFFFFFD
1FFFFF70AFFFFFFFFFFFFD
1FFFFF70AFFFFFFFFFFFFD
1FFFFF70AFFFFFFFFFFFFD
1FFFFF70AFFFFFFFFFFFFD
1FFFFF70AFFFFFFFFFFFFD
1FFFFF70AFFFFFFFFFFFFD
1FFFFF808FFFFFFFFFFFFD
1FFFFFB002333315FFFFFD
1FFFFFF810000014FFFFFD
1FFFFFFFFFFFFFFFFFFFFD
1FFFFFFFFFFFFFFFFFFFFD
0EFFFFFFFFFFFFFFFFFFFB
0AFFFFFFFFFFFFFFFFFFF7
03FFFFFFFFFFFFFFFFFFE1
007FFFFFFFFFFFFFFFFF40
0006EFFFFFFFFFFFFFD400
000017BEFFFFFFFDA60000
ENDCHAR
STARTCHAR cdotaccent
ENCODING 267
SWIDTH 578 0
DWIDTH 21 0
BBX 22 33 -1 0
BITMAP
0000000025777510000000
0000004CFFFFFFFB300000
000009FFFFFFFFFFF70000
00007FFFFFFFFFFFFF6000
0001EFFFFFFFFFFFFFD000
0004FFFFFF86AFFFFFF200
0004FFFFFF407FFFFFF300
0002FFFFFF75AFFFFFF100
0000DFFFFFFFFFFFFFC000
00009FFFFFFFFFFFFF6000
0007FFFFFFFFFFFFFFE500
008FFFE200000003FFFF50
03FFFF9049AAAA89FFFFE1
0AFFFF70AFFFFFFFFFFFF7
0EFFFF70AFFFFFFFFFFFFC
1FFFFF70AFFFFFFFFFFFFD
1FFFFF70AFFFFFFFFFFFFD
1FFFFF70AFFFFFFFFFFFFD
1FFFFF70AFFFFFFFFFFFFD
1FFFFF70AFFFFFFFFFFFFD
1FFFFF70AFFFFFFFFFFFFD
1FFFFF70AFFFFFFFFFFFFD
1FFFFF808FFFFFFFFFFFFD
1FFFFFB002333315FFFFFD
1FFFFFF810000014FFFFFD
1FFFFFFFFFFFFFFFFFFFFD
1FFFFFFFFFFFFFFFFFFFFD
0EFFFFFFFFFFFFFFFFFFFB
0AFFFFFFFFFFFFFFFFFFF7
03FFFFFFFFFFFFFFFFFFE1
007FFFFFFFFFFFFFFFFF40
0006EFFFFFFFFFFFFFD400
000017BEFFFFFFFDA60000
ENDCHAR
STARTCHAR Ccaron
ENCODING 268
SWIDTH 578 0
DWIDTH 21 0
BBX 22 34 -1 0
BITMAP
0000005ABB418CC9200000
000008FFFFFEFFFFE10000
00002FFFFFFFFFFFF70000
00004FFF78FFC5DFF90000
00003FFF91FF73FFF90000
00000FFFE0BF28FFF70000
00000BFFF57C0EFFF30000
000007FFFB285FFFE00000
000002FFFF21BFFF900000
000000CFFFECFFFF400000
000028FFFFFFFFFFC71000
0007FFFFECCCCCDEFFE500
008FFFE200000003FFFF50
03FFFF9049AAAA89FFFFE1
0AFFFF70AFFFFFFFFFFFF7
0EFFFF70AFFFFFFFFFFFFC
1FFFFF70AFFFFFFFFFFFFD
1FFFFF70AFFFFFFFFFFFFD
1FFFFF70AFFFFFFFFFFFFD
1FFFFF70AFFFFFFFFFFFFD
1FFFFF70AFFFFFFFFFFFFD
1FFFFF70AFFFFFFFFFFFFD
1FFFFF70AFFFFFFFFFFFFD
1FFFFF808FFFFFFFFFFFFD
1FFFFFB002333315FFFFFD
1FFFFFF810000014FFFFFD
1FFFFFFFFFFFFFFFFFFFFD
1FFFFFFFFFFFFFFFFFFFFD
0EFFFFFFFFFFFFFFFFFFFB
0AFFFFFFFFFFFFFFFFFFF7
03FFFFFFFFFFFFFFFFFFE1
007FFFFFFFFFFFFFFFFF40
0006EFFFFFFFFFFFFFD400
000017BEFFFFFFFDA60000
ENDCHAR
STARTCHAR ccaron
ENCODING 269
SWIDTH 578 0
DWIDTH 21 0
BBX 22 34 -1 0
BITMAP
00000028BB705BCA400000
000004FFFFFEFFFFF40000
00000CFFFFFFFFFFFC0000
00000EFFA5FFF5AFFE0000
00000DFFD0CFC0DFFE0000
00000AFFF47F74FFFB0000
000007FFFA2F2AFFF80000
000002FFFF191EFFF40000
000000DFFF616FFFE00000
0000008FFFFCFFFF900000
000028FFFFFFFFFFF71000
0007FFFFECCCCCDFFFE500
008FFFE200000003FFFF50
03FFFF9049AAAA89FFFFE1
0AFFFF70AFFFFFFFFFFFF7
0EFFFF70AFFFFFFFFFFFFC
1FFFFF70AFFFFFFFFFFFFD
1FFFFF70AFFFFFFFFFFFFD
1FFFFF70AFFFFFFFFFFFFD
1FFFFF70AFFFFFFFFFFFFD
1FFFFF70AFFFFFFFFFFFFD
1FFFFF70AFFFFFFFFFFFFD
1FFFFF70AFFFFFFFFFFFFD
1FFFFF808FFFFFFFFFFFFD
1FFFFFB002333315FFFFFD
1FFFFFF810000014FFFFFD
1FFFFFFFFFFFFFFFFFFFFD
1FFFFFFFFFFFFFFFFFFFFD
0EFFFFFFFFFFFFFFFFFFFB
0AFFFFFFFFFFFFFFFFFFF7
03FFFFFFFFFFFFFFFFFFE1
007FFFFFFFFFFFFFFFFF40
0006EFFFFFFFFFFFFFD400
000017BEFFFFFFFDA60000
ENDCHAR
STARTCHAR Dcaron
ENCODING 270
SWIDTH 578 0
DWIDTH 21 0
BBX 22 35 -1 0
BITMAP
00000039BB606BCA300000
000006FFFFFEFFFFF30000
00000DFFFFFFFFFFFA0000
00001FFF96FFE5BFFD0000
00000FFFC0DFA0EFFC0000
00000CFFF28F55FFFA0000
000008FFF83F1BFFF60000
000004FFFE092FFFF20000
000000EFFF518FFFC00000
0000009FFFDBEFFF700000
0000004FFFFFFFFF200000
000028CFFFFFFFFFB71000
0007FFD888888889DFE500
008FFFC0000000001CFF50
03FFFFC04AAAAA9606FFE1
0AFFFFC06FFFFFFD04FFF7
0EFFFFC06FFFFFFE04FFFC
1FFFFFC06FFFFFFE04FFFD
1FFFFFC06FFFFFFE04FFFD
1FFFFFC06FFFFFFE04FFFD
1FFFFFC06FFFFFFE04FFFD
1FFFFFC06FFFFFFE04FFFD
1FFFFFC06FFFFFFE04FFFD
1FFFFFC06FFFFFFE04FFFD
1FFFFFC06FFFFFFC04FFFD
1FFFFFC01333332007FFFD
1FFFFFC0000000015FFFFD
1FFFFFFFFFFFFFFFFFFFFD
1FFFFFFFFFFFFFFFFFFFFD
0EFFFFFFFFFFFFFFFFFFFB
0AFFFFFFFFFFFFFFFFFFF7
03FFFFFFFFFFFFFFFFFFE1
007FFFFFFFFFFFFFFFFF40
0006EFFFFFFFFFFFFFD400
000017BEFFFFFFFDA60000
ENDCHAR
STARTCHAR dcaron
ENCODING 271
SWIDTH 578 0
DWIDTH 21 0
BBX 22 25 -1 0
BITMAP
0000000011111110000000
000028CFFFFFFFFFB71000
0007FA8888888AEF889500
008FF5000000002D006F50
03FFF508AAAA9408406FE1
0AFFF50DFFFFFA07C0BFF7
0EFFF50DFFFFFA07A4FFFC
1FFFF50DFFFFFA07FFFFFD
1FFFF50DFFFFFA07FFFFFD
1FFFF50DFFFFFA07FFFFFD
1FFFF50DFFFFFA07FFFFFD
1FFFF50DFFFFFA07FFFFFD
1FFFF50DFFFFFA07FFFFFD
1FFFF50DFFFFFA07FFFFFD
1FFFF50DFFFFF808FFFFFD
1FFFF5023333200BFFFFFD
1FFFF5000000017FFFFFFD
1FFFFFFFFFFFFFFFFFFFFD
1FFFFFFFFFFFFFFFFFFFFD
0EFFFFFFFFFFFFFFFFFFFB
0AFFFFFFFFFFFFFFFFFFF7
03FFFFFFFFFFFFFFFFFFE1
007FFFFFFFFFFFFFFFFF40
0006EFFFFFFFFFFFFFD400
000017BEFFFFFFFDA60000
ENDCHAR
STARTCHAR Dcroat
ENCODING 272
SWIDTH 578 0
DWIDTH 21 0
BBX 22 25 -1 0
BITMAP
0000000011111110000000
000028CFFFFFFFFFB71000
0007FFD888888889DFE500
008FFFC0000000001CFF50
03FFFFC04AAAAA9606FFE1
0AFFFFC06FFFFFFD04FFF7
0EFFFFC06FFFFFFE04FFFC
1FFFFFC06FFFFFFE04FFFD
1FFFA430144DFFFE04FFFD
1FFF8000000CFFFE04FFFD
1FFFEDA05DDFFFFE04FFFD
1FFFFFC06FFFFFFE04FFFD
1FFFFFC06FFFFFFE04FFFD
1FFFFFC06FFFFFFE04FFFD
1FFFFFC06FFFFFFC04FFFD
1FFFFFC01333332007FFFD
1FFFFFC0000000015FFFFD
1FFFFFFFFFFFFFFFFFFFFD
1FFFFFFFFFFFFFFFFFFFFD
0EFFFFFFFFFFFFFFFFFFFB
0AFFFFFFFFFFFFFFFFFFF7
03FFFFFFFFFFFFFFFFFFE1
007FFFFFFFFFFFFFFFFF40
0006EFFFFFFFFFFFFFD400
000017BEFFFFFFFDA60000
ENDCHAR
STARTCHAR dcroat
ENCODING 273
SWIDTH 578 0
DWIDTH 21 0
BBX 22 25 -1 0
BITMAP
0000000011111110000000
000028CFFFFFFFFFB71000
0007FFD888888889DFE500
008FFFC0000000001CFF50
03FFFFC04AAAAA9606FFE1
0AFFFFC06FFFFFFD04FFF7
0EFFFFC06FFFFFFE04FFFC
1FFFFFC06FFFFFFE04FFFD
1FFFA430144DFFFE04FFFD
1FFF8000000CFFFE04FFFD
1FFFEDA05DDFFFFE04FFFD
1FFFFFC06FFFFFFE04FFFD
1FFFFFC06FFFFFFE04FFFD
1FFFFFC06FFFFFFE04FFFD
1FFFFFC06FFFFFFC04FFFD
1FFFFFC01333332007FFFD
1FFFFFC0000000015FFFFD
1FFFFFFFFFFFFFFFFFFFFD
1FFFFFFFFFFFFFFFFFFFFD
0EFFFFFFFFFFFFFFFFFFFB
0AFFFFFFFFFFFFFFFFFFF7
03FFFFFFFFFFFFFFFFFFE1
007FFFFFFFFFFFFFFFFF40
0006EFFFFFFFFFFFFFD400
000017BEFFFFFFFDA60000
ENDCHAR
STARTCHAR Emacron
ENCODING 274
SWIDTH 578 0
DWIDTH 21 0
BBX 22 33 -1 0
BITMAP
0000000002577741000000
00000005CFFFFFFFA20000
000001AFFFFFFFFFFF6000
000009FFFFFFFFFFFFF400
00002FFFFFFFFFFFFFFC00
00006FFFD666666CFFFF00
00006FFFC0000009FFFF10
00004FFFEAAAAAADFFFD00
00000DFFFFFFFFFFFFF700
00002BFFFFFFFFFFFFC000
0007FFFFFFFFFFFFFFF500
008FFFFF100000005FFF50
03FFFFFF11AAAAAABFFFE1
0AFFFFFF12FFFFFFFFFFF7
0EFFFFFF12FFFFFFFFFFFC
1FFFFFFF12FFFFFFFFFFFD
1FFFFFFF11DDDDDDFFFFFD
1FFFFFFF10000004FFFFFD
1FFFFFFF10444447FFFFFD
1FFFFFFF12FFFFFFFFFFFD
1FFFFFFF12FFFFFFFFFFFD
1FFFFFFF12FFFFFFFFFFFD
1FFFFFFF12FFFFFFFFFFFD
1FFFFFFF103333334FFFFD
1FFFFFFF100000001FFFFD
1FFFFFFFFFFFFFFFFFFFFD
1FFFFFFFFFFFFFFFFFFFFD
0EFFFFFFFFFFFFFFFFFFFB
0AFFFFFFFFFFFFFFFFFFF7
03FFFFFFFFFFFFFFFFFFE1
007FFFFFFFFFFFFFFFFF40
0006EFFFFFFFFFFFFFD400
000017BEFFFFFFFDA60000
ENDCHAR
STARTCHAR emacron
ENCODING 275
SWIDTH 578 0
DWIDTH 21 0
BBX 22 33 -1 0
BITMAP
0000000025777510000000
0000005CFFFFFFFB300000
000009FFFFFFFFFFF70000
00008FFFFFFFFFFFFF5000
0001FFFFFFFFFFFFFFD000
0005FFFE666666BFFFF200
0005FFFD0000008FFFF200
0002FFFEAAAAAADFFFE000
0000CFFFFFFFFFFFFF9000
00004FFFFFFFFFFFFF2000
0007FFFFFFFFFFFFFFE500
008FFFD100000003EFFF50
03FFFF705AAAA930BFFFE1
0AFFFF50CFFFFF809FFFF7
0EFFFF50CFFFFF809FFFFC
1FFFFF50BDDDDD709FFFFD
1FFFFF50000000009FFFFD
1FFFFF5034444444AFFFFD
1FFFFF50CFFFFFFFFFFFFD
1FFFFF50CFFFFFFFFFFFFD
1FFFFF50CFFFFFFFFFFFFD
1FFFFF50BFFFFFFFFFFFFD
1FFFFF7049999979FFFFFD
1FFFFFD200000003FFFFFD
1FFFFFFDA888889BFFFFFD
1FFFFFFFFFFFFFFFFFFFFD
1FFFFFFFFFFFFFFFFFFFFD
0EFFFFFFFFFFFFFFFFFFFB
0AFFFFFFFFFFFFFFFFFFF7
03FFFFFFFFFFFFFFFFFFE1
007FFFFFFFFFFFFFFFFF40
0006EFFFFFFFFFFFFFD400
000017BEFFFFFFFDA60000
ENDCHAR
STARTCHAR Ebreve
ENCODING 276
SWIDTH 578 0
DWIDTH 21 0
BBX 22 34 -1 0
BITMAP
0000000002577741000000
00000005CFFFFFFFA20000
000001AFFFFFFFFFFF6000
000009FFFFFFFFFFFFF400
00002FFFFFFFFFFFFFFC00
00006FFFFCCFFFBDFFFF00
00006FFFF33FFD08FFFF10
00004FFFF701200BFFFD00
00000DFFFF8545AFFFF700
000003EFFFFFFFFFFFB000
000028FFFFFFFFFFFF2000
0007FFFF88888888AFE500
008FFFFF100000005FFF50
03FFFFFF11AAAAAABFFFE1
0AFFFFFF12FFFFFFFFFFF7
0EFFFFFF12FFFFFFFFFFFC
1FFFFFFF12FFFFFFFFFFFD
1FFFFFFF11DDDDDDFFFFFD
1FFFFFFF10000004FFFFFD
1FFFFFFF10444447FFFFFD
1FFFFFFF12FFFFFFFFFFFD
1FFFFFFF12FFFFFFFFFFFD
1FFFFFFF12FFFFFFFFFFFD
1FFFFFFF12FFFFFFFFFFFD
1FFFFFFF103333334FFFFD
1FFFFFFF100000001FFFFD
1FFFFFFFFFFFFFFFFFFFFD
1FFFFFFFFFFFFFFFFFFFFD
0EFFFFFFFFFFFFFFFFFFFB
0AFFFFFFFFFFFFFFFFFFF7
03FFFFFFFFFFFFFFFFFFE1
007FFFFFFFFFFFFFFFFF40
0006EFFFFFFFFFFFFFD400
000017BEFFFFFFFDA60000
ENDCHAR
STARTCHAR ebreve
ENCODING 277
SWIDTH 578 0
DWIDTH 21 0
BBX 22 34 -1 0
BITMAP
0000000025777510000000
0000005CFFFFFFFB300000
000009FFFFFFFFFFF70000
00008FFFFFFFFFFFFF5000
0001FFFFFFFFFFFFFFD000
0005FFFFCCFFFCDFFFF200
0005FFFF42FFE06FFFF200
0002FFFF801200AFFFE000
0000CFFFF8545AFFFF9000
00002EFFFFFFFFFFFC1000
00002AFFFFFFFFFFF81000
0007FFFD988888AEFFE500
008FFFD100000003EFFF50
03FFFF705AAAA930BFFFE1
0AFFFF50CFFFFF809FFFF7
0EFFFF50CFFFFF809FFFFC
1FFFFF50BDDDDD709FFFFD
1FFFFF50000000009FFFFD
1FFFFF5034444444AFFFFD
1FFFFF50CFFFFFFFFFFFFD
1FFFFF50CFFFFFFFFFFFFD
1FFFFF50CFFFFFFFFFFFFD
1FFFFF50BFFFFFFFFFFFFD
1FFFFF7049999979FFFFFD
1FFFFFD200000003FFFFFD
1FFFFFFDA888889BFFFFFD
1FFFFFFFFFFFFFFFFFFFFD
1FFFFFFFFFFFFFFFFFFFFD
0EFFFFFFFFFFFFFFFFFFFB
0AFFFFFFFFFFFFFFFFFFF7
03FFFFFFFFFFFFFFFFFFE1
007FFFFFFFFFFFFFFFFF40
0006EFFFFFFFFFFFFFD400
000017BEFFFFFFFDA60000
ENDCHAR
STARTCHAR Edotaccent
ENCODING 278
SWIDTH 578 0
DWIDTH 21 0
BBX 22 34 -1 0
BITMAP
0000000002577741000000
00000005CFFFFFFFA20000
000001AFFFFFFFFFFF6000
000009FFFFFFFFFFFFF400
00002FFFFFFFFFFFFFFC00
00006FFFFFF76BFFFFFF00
00006FFFFFF109FFFFFF10
00005FFFFFF65BFFFFFE00
00001FFFFFFFFFFFFFFA00
000009FFFFFFFFFFFFF400
000029FFFFFFFFFFFF8000
0007FFFF88888888AFE500
008FFFFF100000005FFF50
03FFFFFF11AAAAAABFFFE1
0AFFFFFF12FFFFFFFFFFF7
0EFFFFFF12FFFFFFFFFFFC
1FFFFFFF12FFFFFFFFFFFD
1FFFFFFF11DDDDDDFFFFFD
1FFFFFFF10000004FFFFFD
1FFFFFFF10444447FFFFFD
1FFFFFFF12FFFFFFFFFFFD
1FFFFFFF12FFFFFFFFFFFD
1FFFFFFF12FFFFFFFFFFFD
1FFFFFFF12FFFFFFFFFFFD
1FFFFFFF103333334FFFFD
1FFFFFFF100000001FFFFD
1FFFFFFFFFFFFFFFFFFFFD
1FFFFFFFFFFFFFFFFFFFFD
0EFFFFFFFFFFFFFFFFFFFB
0AFFFFFFFFFFFFFFFFFFF7
03FFFFFFFFFFFFFFFFFFE1
007FFFFFFFFFFFFFFFFF40
0006EFFFFFFFFFFFFFD400
000017BEFFFFFFFDA60000
ENDCHAR
STARTCHAR edotaccent
ENCODING 279
SWIDTH 578 0
DWIDTH 21 0
BBX 22 34 -1 0
BITMAP
0000000025777510000000
0000005CFFFFFFFB300000
000009FFFFFFFFFFF70000
00008FFFFFFFFFFFFF5000
0001FFFFFFFFFFFFFFD000
0005FFFFFF86AFFFFFF200
0005FFFFFF308FFFFFF200
0003FFFFFF75AFFFFFF100
0000EFFFFFFFFFFFFFC000
00008FFFFFFFFFFFFF5000
00002FFFFFFFFFFFFF1000
0007FFFD988888AEFFE500
008FFFD100000003EFFF50
03FFFF705AAAA930BFFFE1
0AFFFF50CFFFFF809FFFF7
0EFFFF50CFFFFF809FFFFC
1FFFFF50BDDDDD709FFFFD
1FFFFF50000000009FFFFD
1FFFFF5034444444AFFFFD
1FFFFF50CFFFFFFFFFFFFD
1FFFFF50CFFFFFFFFFFFFD
1FFFFF50CFFFFFFFFFFFFD
1FFFFF50BFFFFFFFFFFFFD
1FFFFF7049999979FFFFFD
1FFFFFD200000003FFFFFD
1FFFFFFDA888889BFFFFFD
1FFFFFFFFFFFFFFFFFFFFD
1FFFFFFFFFFFFFFFFFFFFD
0EFFFFFFFFFFFFFFFFFFFB
0AFFFFFFFFFFFFFFFFFFF7
03FFFFFFFFFFFFFFFFFFE1
007FFFFFFFFFFFFFFFFF40
0006EFFFFFFFFFFFFFD400
000017BEFFFFFFFDA60000
ENDCHAR
STARTCHAR Eogonek
ENCODING 280
SWIDTH 578 0
DWIDTH 21 0
BBX 22 25 -1 0
BITMAP
0000000011111110000000
000028CFFFFFFFFFB71000
0007FFFF88888888AFE500
008FFFFF100000005FFF50
03FFFFFF11AAAAAABFFFE1
0AFFFFFF12FFFFFFFFFFF7
0EFFFFFF12FFFFFFFFFFFC
1FFFFFFF12FFFFFFFFFFFD
1FFFFFFF11DDDDDDFFFFFD
1FFFFFFF10000004FFFFFD
1FFFFFFF10444447FFFFFD
1FFFFFFF12FFFFFFFFFFFD
1FFFFFFF12FFFFFFFFFFFD
1FFFFFFF12FFFFFFFFFFFD
1FFFFFFF12FFFFFFFFFFFD
1FFFFFFF103333334FFFFD
1FFFFFFF100000001FFFFD
1FFFFFFFFFFFFF91AFFFFD
1FFFFFFFFFFFF808FFFFFD
0EFFFFFFFFFFF23FFFFFFB
0AFFFFFFFFFFF23FFFFFF7
03FFFFFFFFFFF6003FFFE1
007FFFFFFFFFFF867FFF40
0006EFFFFFFFFFFFFFD400
000017BEFFFFFFFDA60000
ENDCHAR
STARTCHAR eogonek
ENCODING 281
SWIDTH 578 0
DWIDTH 21 0
BBX 22 25 -1 0
BITMAP
0000000011111110000000
000028CFFFFFFFFFB71000
0007FFFD988888AEFFE500
008FFFD100000003EFFF50
03FFFF705AAAA930BFFFE1
0AFFFF50CFFFFF809FFFF7
0EFFFF50CFFFFF809FFFFC
1FFFFF50BDDDDD709FFFFD
1FFFFF50000000009FFFFD
1FFFFF5034444444AFFFFD
1FFFFF50CFFFFFFFFFFFFD
1FFFFF50CFFFFFFFFFFFFD
1FFFFF50CFFFFFFFFFFFFD
1FFFFF50BFFFFFFFFFFFFD
1FFFFF7049999979FFFFFD
1FFFFFD200000003FFFFFD
1FFFFFFDA888329BFFFFFD
1FFFFFFFFFE41CFFFFFFFD
1FFFFFFFFF70BFFFFFFFFD
0EFFFFFFFF60FFFFFFFFFB
0AFFFFFFFF7057EFFFFFF7
03FFFFFFFFE400DFFFFFE1
007FFFFFFFFFFEFFFFFF40
0006EFFFFFFFFFFFFFD400
000017BEFFFFFFFDA60000
ENDCHAR
STARTCHAR Ecaron
ENCODING 282
SWIDTH 578 0
DWIDTH 21 0
BBX 22 34 -1 0
BITMAP
000000039BB606BC930000
0000006FFFFFEFFFFF3000
000000EFFFFFFFFFFFA000
000001FFF96FFE5BFFC000
000000FFFB0DFA1EFFC000
000000CFFF29F56FFF9000
0000008FFF84F1BFFF6000
0000004FFFE092FFFF2000
0000000EFFF518FFFC0000
0000000AFFFECFFFF70000
000028CFFFFFFFFFF91000
0007FFFFCCCCCCCCEFE500
008FFFFF100000005FFF50
03FFFFFF11AAAAAABFFFE1
0AFFFFFF12FFFFFFFFFFF7
0EFFFFFF12FFFFFFFFFFFC
1FFFFFFF12FFFFFFFFFFFD
1FFFFFFF11DDDDDDFFFFFD
1FFFFFFF10000004FFFFFD
1FFFFFFF10444447FFFFFD
1FFFFFFF12FFFFFFFFFFFD
1FFFFFFF12FFFFFFFFFFFD
1FFFFFFF12FFFFFFFFFFFD
1FFFFFFF12FFFFFFFFFFFD
1FFFFFFF103333334FFFFD
1FFFFFFF100000001FFFFD
1FFFFFFFFFFFFFFFFFFFFD
1FFFFFFFFFFFFFFFFFFFFD
0EFFFFFFFFFFFFFFFFFFFB
0AFFFFFFFFFFFFFFFFFFF7
03FFFFFFFFFFFFFFFFFFE1
007FFFFFFFFFFFFFFFFF40
0006EFFFFFFFFFFFFFD400
000017BEFFFFFFFDA60000
ENDCHAR
STARTCHAR ecaron
ENCODING 283
SWIDTH 578 0
DWIDTH 21 0
BBX 22 34 -1 0
BITMAP
00000039BB606BCA300000
000006FFFFFEFFFFF30000
00000DFFFFFFFFFFFA0000
00001FFF96FFE5BFFD0000
00000FFFC0DFA0EFFC0000
00000CFFF28F55FFFA0000
000008FFF83F1BFFF60000
000004FFFE092FFFF20000
000000EFFF518FFFC00000
0000009FFFFCFFFF700000
000028FFFFFFFFFFD71000
0007FFFFDCCCCCEFFFE500
008FFFD100000003EFFF50
03FFFF705AAAA930BFFFE1
0AFFFF50CFFFFF809FFFF7
0EFFFF50CFFFFF809FFFFC
1FFFFF50BDDDDD709FFFFD
1FFFFF50000000009FFFFD
1FFFFF5034444444AFFFFD
1FFFFF50CFFFFFFFFFFFFD
1FFFFF50CFFFFFFFFFFFFD
1FFFFF50CFFFFFFFFFFFFD
1FFFFF50BFFFFFFFFFFFFD
1FFFFF7049999979FFFFFD
1FFFFFD200000003FFFFFD
1FFFFFFDA888889BFFFFFD
1FFFFFFFFFFFFFFFFFFFFD
1FFFFFFFFFFFFFFFFFFFFD
0EFFFFFFFFFFFFFFFFFFFB
0AFFFFFFFFFFFFFFFFFFF7
03FFFFFFFFFFFFFFFFFFE1
007FFFFFFFFFFFFFFFFF40
0006EFFFFFFFFFFFFFD400
000017BEFFFFFFFDA60000
ENDCHAR
STARTCHAR Gcircumflex
ENCODING 284
SWIDTH 578 0
DWIDTH 21 0
BBX 22 35 -1 0
BITMAP
0000000005ACC920000000
000000008FFFFFE2000000
00000002FFFFFFFA000000
00000009FFE9BFFF200000
0000001FFF922FFF900000
0000007FFF492AFFE10000
000000DFFD0D75FFF60000
000004FFF73FC0EFFC0000
000008FFF18FF18FFF1000
00000AFFD7DFFA9FFF3000
000009FFFFFFFFFFFF2000
00002CFFFFFFFFFFFF1000
0007FFFFFDCCCCCDFFE500
008FFFFA000000003FFF50
03FFFFF207AAAAA89FFFE1
0AFFFFF01FFFFFFFFFFFF7
0EFFFFF02FFFFFFFFFFFFC
1FFFFFF02FFFFFFFFFFFFD
1FFFFFF02FFFFFFFFFFFFD
1FFFFFF02FFFD9999AFFFD
1FFFFFF02FFFA00004FFFD
1FFFFFF02FFFC88704FFFD
1FFFFFF02FFFFFFD04FFFD
1FFFFFF02FFFFFFD04FFFD
1FFFFFF10EFFFFFB05FFFD
1FFFFFF40133332008FFFD
1FFFFFFE410000016FFFFD
1FFFFFFFFFFFFFFFFFFFFD
1FFFFFFFFFFFFFFFFFFFFD
0EFFFFFFFFFFFFFFFFFFFB
0AFFFFFFFFFFFFFFFFFFF7
03FFFFFFFFFFFFFFFFFFE1
007FFFFFFFFFFFFFFFFF40
0006EFFFFFFFFFFFFFD400
000017BEFFFFFFFDA60000
ENDCHAR
STARTCHAR gcircumflex
ENCODING 285
SWIDTH 578 0
DWIDTH 21 0
BBX 22 35 -1 0
BITMAP
0000000005ACC920000000
000000008FFFFFE2000000
00000002FFFFFFFA000000
00000009FFE9BFFF200000
0000001FFF922FFF900000
0000007FFF492AFFE10000
000000DFFD0D75FFF60000
000004FFF73FC0EFFC0000
000008FFF18FF18FFF1000
00000AFFD7DFFA9FFF3000
000009FFFFFFFFFFFF2000
00002CFFFFFFFFFFFF1000
0007FFFFFDCCCCCDFFE500
008FFFFA000000003FFF50
03FFFFF207AAAAA89FFFE1
0AFFFFF01FFFFFFFFFFFF7
0EFFFFF02FFFFFFFFFFFFC
1FFFFFF02FFFFFFFFFFFFD
1FFFFFF02FFFFFFFFFFFFD
1FFFFFF02FFFD9999AFFFD
1FFFFFF02FFFA00004FFFD
1FFFFFF02FFFC88704FFFD
1FFFFFF02FFFFFFD04FFFD
1FFFFFF02FFFFFFD04FFFD
1FFFFFF10EFFFFFB05FFFD
1FFFFFF40133332008FFFD
1FFFFFFE410000016FFFFD
1FFFFFFFFFFFFFFFFFFFFD
1FFFFFFFFFFFFFFFFFFFFD
0EFFFFFFFFFFFFFFFFFFFB
0AFFFFFFFFFFFFFFFFFFF7
03FFFFFFFFFFFFFFFFFFE1
007FFFFFFFFFFFFFFFFF40
0006EFFFFFFFFFFFFFD400
000017BEFFFFFFFDA60000
ENDCHAR
STARTCHAR Gbreve
ENCODING 286
SWIDTH 578 0
DWIDTH 21 0
BBX 22 34 -1 0
BITMAP
0000000014677630000000
0000002AFFFFFFFD600000
000005EFFFFFFFFFFB1000
00003FFFFFFFFFFFFFA000
0000AFFFFFFFFFFFFFF300
0000EFFFDBEFFDBFFFF700
0000EFFFA0BFF51FFFF700
0000CFFFD102104FFFF500
00006FFFFB6447EFFFE000
00000BFFFFFFFFFFFF4000
000028FFFFFFFFFFFB1000
0007FFFFC9888889BFE500
008FFFFA000000003FFF50
03FFFFF207AAAAA89FFFE1
0AFFFFF01FFFFFFFFFFFF7
0EFFFFF02FFFFFFFFFFFFC
1FFFFFF02FFFFFFFFFFFFD
1FFFFFF02FFFFFFFFFFFFD
1FFFFFF02FFFD9999AFFFD
1FFFFFF02FFFA00004FFFD
1FFFFFF02FFFC88704FFFD
1FFFFFF02FFFFFFD04FFFD
1FFFFFF02FFFFFFD04FFFD
1FFFFFF10EFFFFFB05FFFD
1FFFFFF40133332008FFFD
1FFFFFFE410000016FFFFD
1FFFFFFFFFFFFFFFFFFFFD
1FFFFFFFFFFFFFFFFFFFFD
0EFFFFFFFFFFFFFFFFFFFB
0AFFFFFFFFFFFFFFFFFFF7
03FFFFFFFFFFFFFFFFFFE1
007FFFFFFFFFFFFFFFFF40
0006EFFFFFFFFFFFFFD400
000017BEFFFFFFFDA60000
ENDCHAR
STARTCHAR gbreve
ENCODING 287
SWIDTH 578 0
DWIDTH 21 0
BBX 22 34 -1 0
BITMAP
0000000025777510000000
0000005CFFFFFFFB300000
000009FFFFFFFFFFF70000
00008FFFFFFFFFFFFF5000
0001FFFFFFFFFFFFFFD000
0005FFFFCCFFFCDFFFF200
0005FFFF42FFE06FFFF200
0002FFFF801200AFFFE000
0000CFFFF8545AFFFF9000
00002EFFFFFFFFFFFC1000
00002AFFFFFFFFFFF81000
0007FFFFC9888889BFE500
008FFFFA000000003FFF50
03FFFFF207AAAAA89FFFE1
0AFFFFF01FFFFFFFFFFFF7
0EFFFFF02FFFFFFFFFFFFC
1FFFFFF02FFFFFFFFFFFFD
1FFFFFF02FFFFFFFFFFFFD
1FFFFFF02FFFD9999AFFFD
1FFFFFF02FFFA00004FFFD
1FFFFFF02FFFC88704FFFD
1FFFFFF02FFFFFFD04FFFD
1FFFFFF02FFFFFFD04FFFD
1FFFFFF10EFFFFFB05FFFD
1FFFFFF40133332008FFFD
1FFFFFFE410000016FFFFD
1FFFFFFFFFFFFFFFFFFFFD
1FFFFFFFFFFFFFFFFFFFFD
0EFFFFFFFFFFFFFFFFFFFB
0AFFFFFFFFFFFFFFFFFFF7
03FFFFFFFFFFFFFFFFFFE1
007FFFFFFFFFFFFFFFFF40
0006EFFFFFFFFFFFFFD400
000017BEFFFFFFFDA60000
ENDCHAR
STARTCHAR Gdotaccent
ENCODING 288
SWIDTH 578 0
DWIDTH 21 0
BBX 22 34 -1 0
BITMAP
0000000025777510000000
0000005CFFFFFFFB300000
000009FFFFFFFFFFF70000
00008FFFFFFFFFFFFF5000
0001FFFFFFFFFFFFFFD000
0005FFFFFF86AFFFFFF200
0005FFFFFF308FFFFFF200
0003FFFFFF75AFFFFFF100
0000EFFFFFFFFFFFFFC000
00008FFFFFFFFFFFFF5000
00002FFFFFFFFFFFFF1000
0007FFFFC9888889BFE500
008FFFFA000000003FFF50
03FFFFF207AAAAA89FFFE1
0AFFFFF01FFFFFFFFFFFF7
0EFFFFF02FFFFFFFFFFFFC
1FFFFFF02FFFFFFFFFFFFD
1FFFFFF02FFFFFFFFFFFFD
1FFFFFF02FFFD9999AFFFD
1FFFFFF02FFFA00004FFFD
1FFFFFF02FFFC88704FFFD
1FFFFFF02FFFFFFD04FFFD
1FFFFFF02FFFFFFD04FFFD
1FFFFFF10EFFFFFB05FFFD
1FFFFFF40133332008FFFD
1FFFFFFE410000016FFFFD
1FFFFFFFFFFFFFFFFFFFFD
1FFFFFFFFFFFFFFFFFFFFD
0EFFFFFFFFFFFFFFFFFFFB
0AFFFFFFFFFFFFFFFFFFF7
03FFFFFFFFFFFFFFFFFFE1
007FFFFFFFFFFFFFFFFF40
0006EFFFFFFFFFFFFFD400
000017BEFFFFFFFDA60000
ENDCHAR
STARTCHAR gdotaccent
ENCODING 289
SWIDTH 578 0
DWIDTH 21 0
BBX 22 34 -1 0
BITMAP
0000000025777510000000
0000005CFFFFFFFB300000
000009FFFFFFFFFFF70000
00008FFFFFFFFFFFFF5000
0001FFFFFFFFFFFFFFD000
0005FFFFFF86AFFFFFF200
0005FFFFFF308FFFFFF200
0003FFFFFF75AFFFFFF100
0000EFFFFFFFFFFFFFC000
00008FFFFFFFFFFFFF5000
00002FFFFFFFFFFFFF1000
0007FFFFC9888889BFE500
008FFFFA000000003FFF50
03FFFFF207AAAAA89FFFE1
0AFFFFF01FFFFFFFFFFFF7
0EFFFFF02FFFFFFFFFFFFC
1FFFFFF02FFFFFFFFFFFFD
1FFFFFF02FFFFFFFFFFFFD
1FFFFFF02FFFD9999AFFFD
1FFFFFF02FFFA00004FFFD
1FFFFFF02FFFC88704FFFD
1FFFFFF02FFFFFFD04FFFD
1FFFFFF02FFFFFFD04FFFD
1FFFFFF10EFFFFFB05FFFD
1FFFFFF40133332008FFFD
1FFFFFFE410000016FFFFD
1FFFFFFFFFFFFFFFFFFFFD
1FFFFFFFFFFFFFFFFFFFFD
0EFFFFFFFFFFFFFFFFFFFB
0AFFFFFFFFFFFFFFFFFFF7
03FFFFFFFFFFFFFFFFFFE1
007FFFFFFFFFFFFFFFFF40
0006EFFFFFFFFFFFFFD400
000017BEFFFFFFFDA60000
ENDCHAR
STARTCHAR Gcommaaccent
ENCODING 290
SWIDTH 578 0
DWIDTH 21 0
BBX 22 25 -1 0
BITMAP
0000000011111110000000
000028CFFFFFFFFFB71000
0007FFFFC9888889BFE500
008FFFFA000000003FFF50
03FFFFF207AAAAA89FFFE1
0AFFFFF01FFFFFFFFFFFF7
0EFFFFF02FFFFFFFFFFFFC
1FFFFFF02FFFFFFFFFFFFD
1FFFFFF02FFFFFFFFFFFFD
1FFFFFF02FFFD9999AFFFD
1FFFFFF02FFFA00004FFFD
1FFFFFF02FFFC88704FFFD
1FFFFFF02FFFFFFD04FFFD
1FFFFFF02FFFFFFD04FFFD
1FFFFFF10EFFFFFB05FFFD
1FFFFFF40133332008FFFD
1FFFFFFE410000016FFFFD
1FFFFFFFFFFFFFFFFFFFFD
1FFFFFFFFFF768FFFFFFFD
0EFFFFFFFFF203FFFFFFFB
0AFFFFFFFFF714FFFFFFF7
03FFFFFFFFFE09FFFFFFE1
007FFFFFFFFC4FFFFFFF40
0006EFFFFFFFFFFFFFD400
000017BEFFFFFFFDA60000
ENDCHAR
STARTCHAR gcommaaccent
ENCODING 291
SWIDTH 578 0
DWIDTH 21 0
BBX 22 25 -1 0
BITMAP
0000000011111110000000
000028CFFFFFFFFFB71000
0007FFFFC9888889BFE500
008FFFFA000000003FFF50
03FFFFF207AAAAA89FFFE1
0AFFFFF01FFFFFFFFFFFF7
0EFFFFF02FFFFFFFFFFFFC
1FFFFFF02FFFFFFFFFFFFD
1FFFFFF02FFFFFFFFFFFFD
1FFFFFF02FFFD9999AFFFD
1FFFFFF02FFFA00004FFFD
1FFFFFF02FFFC88704FFFD
1FFFFFF02FFFFFFD04FFFD
1FFFFFF02FFFFFFD04FFFD
1FFFFFF10EFFFFFB05FFFD
1FFFFFF40133332008FFFD
1FFFFFFE410000016FFFFD
1FFFFFFFFFFFFFFFFFFFFD
1FFFFFFFFFF768FFFFFFFD
0EFFFFFFFFF203FFFFFFFB
0AFFFFFFFFF714FFFFFFF7
03FFFFFFFFFE09FFFFFFE1
007FFFFFFFFC4FFFFFFF40
0006EFFFFFFFFFFFFFD400
000017BEFFFFFFFDA60000
ENDCHAR
STARTCHAR Hcircumflex
ENCODING 292
SWIDTH 578 0
DWIDTH 21 0
BBX 22 35 -1 0
BITMAP
0000000005ACC920000000
000000007FFFFFE3000000
00000001FFFFFFFB000000
00000008FFF9BFFF300000
0000001EFFB21EFFA00000
0000006FFF5839FFF20000
000000CFFE0C83FFF70000
000002FFF82FD0DFFD0000
000007FFF27FF37FFF2000
000009FFE7DFFA8FFF4000
000008FFFFFFFFFFFF3000
00002BFFFFFFFFFFFF1000
0007FFFCFFFFFFFFCAE500
008FFFC06FFFFFFE04FF50
03FFFFC06FFFFFFE04FFE1
0AFFFFC06FFFFFFE04FFF7
0EFFFFC06FFFFFFE04FFFC
1FFFFFC06FFFFFFE04FFFD
1FFFFFC04AAAAAA904FFFD
1FFFFFC00000000004FFFD
1FFFFFC03888888704FFFD
1FFFFFC06FFFFFFE04FFFD
1FFFFFC06FFFFFFE04FFFD
1FFFFFC06FFFFFFE04FFFD
1FFFFFC06FFFFFFE04FFFD
1FFFFFC06FFFFFFE04FFFD
1FFFFFC06FFFFFFE04FFFD
1FFFFFFFFFFFFFFFFFFFFD
1FFFFFFFFFFFFFFFFFFFFD
0EFFFFFFFFFFFFFFFFFFFB
0AFFFFFFFFFFFFFFFFFFF7
03FFFFFFFFFFFFFFFFFFE1
007FFFFFFFFFFFFFFFFF40
0006EFFFFFFFFFFFFFD400
000017BEFFFFFFFDA60000
ENDCHAR
STARTCHAR hcircumflex
ENCODING 293
SWIDTH 578 0
DWIDTH 21 0
BBX 22 35 -1 0
BITMAP
0000000004ACCA30000000
000000005FFFFFF4000000
00000000EFFFFFFD000000
00000006FFFAAFFF600000
0000000DFFD11DFFC00000
0000004FFF7557FFF40000
000000AFFF1AA2FFF90000
000001FFFA1EE0BFFE1000
000005FFF55FF55FFF4000
000007FFF7CFFB7FFF7000
000006FFFFFFFFFFFF5000
000029FFFFFFFFFFFF2000
0007FFFCFFFFFFFFCBE500
008FFFC06FFFFFFE04FF50
03FFFFC06FFFFFFE04FFE1
0AFFFFC06FFFFFFE04FFF7
0EFFFFC06FFFFFFE04FFFC
1FFFFFC06FFFFFFE04FFFD
1FFFFFC04AAAAAA904FFFD
1FFFFFC00000000004FFFD
1FFFFFC03888888704FFFD
1FFFFFC06FFFFFFE04FFFD
1FFFFFC06FFFFFFE04FFFD
1FFFFFC06FFFFFFE04FFFD
1FFFFFC06FFFFFFE04FFFD
1FFFFFC06FFFFFFE04FFFD
1FFFFFC06FFFFFFE04FFFD
1FFFFFFFFFFFFFFFFFFFFD
1FFFFFFFFFFFFFFFFFFFFD
0EFFFFFFFFFFFFFFFFFFFB
0AFFFFFFFFFFFFFFFFFFF7
03FFFFFFFFFFFFFFFFFFE1
007FFFFFFFFFFFFFFFFF40
0006EFFFFFFFFFFFFFD400
000017BEFFFFFFFDA60000
ENDCHAR
STARTCHAR Hbar
ENCODING 294
SWIDTH 578 0
DWIDTH 21 0
BBX 22 34 -1 0
BITMAP
0000000014677630000000
0000002AFFFFFFFD600000
000005EFFFFFFFFFFB1000
00003FFFFFFFFFFFFFA000
0000AFFFFFFFFFFFFFF300
0000EFFF8666668FFFF700
0000EFFF3000003FFFF700
0000CFFFBAAAAABFFFF500
00006FFFFFFFFFFFFFE000
00000BFFFFFFFFFFFF4000
000028FFFFFFFFFFFB1000
0007FFD8AFFFFFFF89E500
008FFFC06FFFFFFE04FF50
03FFFFC06FFFFFFE04FFE1
0AFFFFC06FFFFFFE04FFF7
0EFFFFC06FFFFFFE04FFFC
1FFFFFC06FFFFFFE04FFFD
1FFFFFC04AAAAAA904FFFD
1FFFFFC00000000004FFFD
1FFFFFC03888888704FFFD
1FFFFFC06FFFFFFE04FFFD
1FFFFFC06FFFFFFE04FFFD
1FFFFFC06FFFFFFE04FFFD
1FFFFFC06FFFFFFE04FFFD
1FFFFFC06FFFFFFE04FFFD
1FFFFFC06FFFFFFE04FFFD
1FFFFFFFFFFFFFFFFFFFFD
1FFFFFFFFFFFFFFFFFFFFD
0EFFFFFFFFFFFFFFFFFFFB
0AFFFFFFFFFFFFFFFFFFF7
03FFFFFFFFFFFFFFFFFFE1
007FFFFFFFFFFFFFFFFF40
0006EFFFFFFFFFFFFFD400
000017BEFFFFFFFDA60000
ENDCHAR
STARTCHAR hbar
ENCODING 295
SWIDTH 578 0
DWIDTH 21 0
BBX 22 25 -1 0
BITMAP
0000000011111110000000
000028CFFFFFFFFFB71000
0007FFD8AFFFFFFF89E500
008FFFC06FFFFFFE04FF50
03FFFFA05DDDDDDC03EFE1
0AFFFF0000000000005FF7
0EFFFF603888888702AFFC
1FFFFFC06FFFFFFE04FFFD
1FFFFFC04AAAAAA904FFFD
1FFFFFC00000000004FFFD
1FFFFFC03888888704FFFD
1FFFFFC06FFFFFFE04FFFD
1FFFFFC06FFFFFFE04FFFD
1FFFFFC06FFFFFFE04FFFD
1FFFFFC06FFFFFFE04FFFD
1FFFFFC06FFFFFFE04FFFD
1FFFFFC06FFFFFFE04FFFD
1FFFFFFFFFFFFFFFFFFFFD
1FFFFFFFFFFFFFFFFFFFFD
0EFFFFFFFFFFFFFFFFFFFB
0AFFFFFFFFFFFFFFFFFFF7
03FFFFFFFFFFFFFFFFFFE1
007FFFFFFFFFFFFFFFFF40
0006EFFFFFFFFFFFFFD400
000017BEFFFFFFFDA60000
ENDCHAR
STARTCHAR Itilde
ENCODING 296
SWIDTH 578 0
DWIDTH 21 0
BBX 22 35 -1 0
BITMAP
0000000002688751000000
00000003BFFFFFFFA20000
0000005EFFFFFFFFFE4000
000003FFFFFFFFFFFFE200
00000BFFFFFFFFFFFFFA00
00002FFFFFFFFFFFFFFE10
00004FFFFFFFFFFFFFFF30
00004FFFD447DF50EFFF30
00002FFF70310400FFFF10
00000DFF63FE8428FFFB00
000005FFFFFFFFFFFFF300
000028FFFFFFFFFFFF7000
0007FFFA888888888CE500
008FFFF40000000008FF50
03FFFFFBAAA406AAADFFE1
0AFFFFFFFFF70AFFFFFFF7
0EFFFFFFFFF70AFFFFFFFC
1FFFFFFFFFF70AFFFFFFFD
1FFFFFFFFFF70AFFFFFFFD
1FFFFFFFFFF70AFFFFFFFD
1FFFFFFFFFF70AFFFFFFFD
1FFFFFFFFFF70AFFFFFFFD
1FFFFFFFFFF70AFFFFFFFD
1FFFFFFFFFF70AFFFFFFFD
1FFFFFFFFFF70AFFFFFFFD
1FFFFFF63331023339FFFD
1FFFFFF40000000008FFFD
1FFFFFFFFFFFFFFFFFFFFD
1FFFFFFFFFFFFFFFFFFFFD
0EFFFFFFFFFFFFFFFFFFFB
0AFFFFFFFFFFFFFFFFFFF7
03FFFFFFFFFFFFFFFFFFE1
007FFFFFFFFFFFFFFFFF40
0006EFFFFFFFFFFFFFD400
000017BEFFFFFFFDA60000
ENDCHAR
STARTCHAR itilde
ENCODING 297
SWIDTH 578 0
DWIDTH 21 0
BBX 22 35 -1 0
BITMAP
0000000002688751000000
00000003BFFFFFFF910000
0000006FFFFFFFFFFE3000
000004FFFFFFFFFFFFD100
00000DFFFFFFFFFFFFF800
00003FFFFFFFFFFFFFFD00
00006FFFFFFFFFFFFFFF10
00006FFFC448DF41FFFF10
00004FFF50410402FFFE00
00000EFF54FE7329FFF900
000006FFFFFFFFFFFFF200
000028FFFFFFFFFFFF6000
0007FFFA888888888CE500
008FFFF40000000008FF50
03FFFFFBAAA406AAADFFE1
0AFFFFFFFFF70AFFFFFFF7
0EFFFFFFFFF70AFFFFFFFC
1FFFFFFFFFF70AFFFFFFFD
1FFFFFFFFFF70AFFFFFFFD
1FFFFFFFFFF70AFFFFFFFD
1FFFFFFFFFF70AFFFFFFFD
1FFFFFFFFFF70AFFFFFFFD
1FFFFFFFFFF70AFFFFFFFD
1FFFFFFFFFF70AFFFFFFFD
1FFFFFFFFFF70AFFFFFFFD
1FFFFFF63331023339FFFD
1FFFFFF40000000008FFFD
1FFFFFFFFFFFFFFFFFFFFD
1FFFFFFFFFFFFFFFFFFFFD
0EFFFFFFFFFFFFFFFFFFFB
0AFFFFFFFFFFFFFFFFFFF7
03FFFFFFFFFFFFFFFFFFE1
007FFFFFFFFFFFFFFFFF40
0006EFFFFFFFFFFFFFD400
000017BEFFFFFFFDA60000
ENDCHAR
STARTCHAR Imacron
ENCODING 298
SWIDTH 578 0
DWIDTH 21 0
BBX 22 34 -1 0
BITMAP
0000000003677641000000
00000006DFFFFFFF920000
000001BFFFFFFFFFFE5000
00000BFFFFFFFFFFFFF300
00004FFFFFFFFFFFFFFA00
00007FFFC666666DFFFE00
00008FFFA000000BFFFE00
00005FFFDAAAAAAEFFFC00
00001EFFFFFFFFFFFFF600
000004FFFFFFFFFFFFA000
000028FFFFFFFFFFFF1000
0007FFFA888888888CE500
008FFFF40000000008FF50
03FFFFFBAAA406AAADFFE1
0AFFFFFFFFF70AFFFFFFF7
0EFFFFFFFFF70AFFFFFFFC
1FFFFFFFFFF70AFFFFFFFD
1FFFFFFFFFF70AFFFFFFFD
1FFFFFFFFFF70AFFFFFFFD
1FFFFFFFFFF70AFFFFFFFD
1FFFFFFFFFF70AFFFFFFFD
1FFFFFFFFFF70AFFFFFFFD
1FFFFFFFFFF70AFFFFFFFD
1FFFFFFFFFF70AFFFFFFFD
1FFFFFF63331023339FFFD
1FFFFFF40000000008FFFD
1FFFFFFFFFFFFFFFFFFFFD
1FFFFFFFFFFFFFFFFFFFFD
0EFFFFFFFFFFFFFFFFFFFB
0AFFFFFFFFFFFFFFFFFFF7
03FFFFFFFFFFFFFFFFFFE1
007FFFFFFFFFFFFFFFFF40
0006EFFFFFFFFFFFFFD400
000017BEFFFFFFFDA60000
ENDCHAR
STARTCHAR imacron
ENCODING 299
SWIDTH 578 0
DWIDTH 21 0
BBX 22 34 -1 0
BITMAP
0000000003677641000000
00000007DFFFFFFE910000
000001CFFFFFFFFFFE4000
00000CFFFFFFFFFFFFE200
00004FFFFFFFFFFFFFF900
00008FFFC666666DFFFD00
00009FFF9000000CFFFD00
00006FFFDAAAAAAEFFFB00
00001EFFFFFFFFFFFFF500
000005FFFFFFFFFFFF9000
000028FFFFFFFFFFFF1000
0007FFFA888888888CE500
008FFFF40000000008FF50
03FFFFFBAAA406AAADFFE1
0AFFFFFFFFF70AFFFFFFF7
0EFFFFFFFFF70AFFFFFFFC
1FFFFFFFFFF70AFFFFFFFD
1FFFFFFFFFF70AFFFFFFFD
1FFFFFFFFFF70AFFFFFFFD
1FFFFFFFFFF70AFFFFFFFD
1FFFFFFFFFF70AFFFFFFFD
1FFFFFFFFFF70AFFFFFFFD
1FFFFFFFFFF70AFFFFFFFD
1FFFFFFFFFF70AFFFFFFFD
1FFFFFF63331023339FFFD
1FFFFFF40000000008FFFD
1FFFFFFFFFFFFFFFFFFFFD
1FFFFFFFFFFFFFFFFFFFFD
0EFFFFFFFFFFFFFFFFFFFB
0AFFFFFFFFFFFFFFFFFFF7
03FFFFFFFFFFFFFFFFFFE1
007FFFFFFFFFFFFFFFFF40
0006EFFFFFFFFFFFFFD400
000017BEFFFFFFFDA60000
ENDCHAR
STARTCHAR Ibreve
ENCODING 300
SWIDTH 578 0
DWIDTH 21 0
BBX 22 34 -1 0
BITMAP
0000000002577751000000
00000004CFFFFFFFB30000
0000009FFFFFFFFFFF7000
000007FFFFFFFFFFFFF600
00001EFFFFFFFFFFFFFD00
00004FFFFCCFFFCCFFFF20
00004FFFF51FFF15FFFF30
00002FFFF9012109FFFF10
00000BFFFF95459FFFF900
000002EFFFFFFFFFFFD100
000028EFFFFFFFFFFF2000
0007FFFA888888888CE500
008FFFF40000000008FF50
03FFFFFBAAA406AAADFFE1
0AFFFFFFFFF70AFFFFFFF7
0EFFFFFFFFF70AFFFFFFFC
1FFFFFFFFFF70AFFFFFFFD
1FFFFFFFFFF70AFFFFFFFD
1FFFFFFFFFF70AFFFFFFFD
1FFFFFFFFFF70AFFFFFFFD
1FFFFFFFFFF70AFFFFFFFD
1FFFFFFFFFF70AFFFFFFFD
1FFFFFFFFFF70AFFFFFFFD
1FFFFFFFFFF70AFFFFFFFD
1FFFFFF63331023339FFFD
1FFFFFF40000000008FFFD
1FFFFFFFFFFFFFFFFFFFFD
1FFFFFFFFFFFFFFFFFFFFD
0EFFFFFFFFFFFFFFFFFFFB
0AFFFFFFFFFFFFFFFFFFF7
03FFFFFFFFFFFFFFFFFFE1
007FFFFFFFFFFFFFFFFF40
0006EFFFFFFFFFFFFFD400
000017BEFFFFFFFDA60000
ENDCHAR
STARTCHAR ibreve
ENCODING 301
SWIDTH 578 0
DWIDTH 21 0
BBX 22 34 -1 0
BITMAP
0000000002577741000000
00000005CFFFFFFFA30000
000000AFFFFFFFFFFF6000
000009FFFFFFFFFFFFF400
00002FFFFFFFFFFFFFFC00
00006FFFFCCFFFBDFFFF10
00006FFFF42FFE07FFFF10
00003FFFF701200BFFFE00
00000DFFFF8545AFFFF800
000003EFFFFFFFFFFFC100
000028FFFFFFFFFFFF2000
0007FFFA888888888CE500
008FFFF40000000008FF50
03FFFFFBAAA406AAADFFE1
0AFFFFFFFFF70AFFFFFFF7
0EFFFFFFFFF70AFFFFFFFC
1FFFFFFFFFF70AFFFFFFFD
1FFFFFFFFFF70AFFFFFFFD
1FFFFFFFFFF70AFFFFFFFD
1FFFFFFFFFF70AFFFFFFFD
1FFFFFFFFFF70AFFFFFFFD
1FFFFFFFFFF70AFFFFFFFD
1FFFFFFFFFF70AFFFFFFFD
1FFFFFFFFFF70AFFFFFFFD
1FFFFFF63331023339FFFD
1FFFFFF40000000008FFFD
1FFFFFFFFFFFFFFFFFFFFD
1FFFFFFFFFFFFFFFFFFFFD
0EFFFFFFFFFFFFFFFFFFFB
0AFFFFFFFFFFFFFFFFFFF7
03FFFFFFFFFFFFFFFFFFE1
007FFFFFFFFFFFFFFFFF40
0006EFFFFFFFFFFFFFD400
000017BEFFFFFFFDA60000
ENDCHAR
STARTCHAR Iogonek
ENCODING 302
SWIDTH 578 0
DWIDTH 21 0
BBX 22 25 -1 0
BITMAP
0000000011111110000000
000028CFFFFFFFFFB71000
0007FFFA888888888CE500
008FFFF40000000008FF50
03FFFFFBAAA406AAADFFE1
0AFFFFFFFFF70AFFFFFFF7
0EFFFFFFFFF70AFFFFFFFC
1FFFFFFFFFF70AFFFFFFFD
1FFFFFFFFFF70AFFFFFFFD
1FFFFFFFFFF70AFFFFFFFD
1FFFFFFFFFF70AFFFFFFFD
1FFFFFFFFFF70AFFFFFFFD
1FFFFFFFFFF70AFFFFFFFD
1FFFFFFFFFF70AFFFFFFFD
1FFFFFFFFFF70AFFFFFFFD
1FFFFFF63331023339FFFD
1FFFFFF40000000008FFFD
1FFFFFFFFFFFFFE52DFFFD
1FFFFFFFFFFFFE31CFFFFD
0EFFFFFFFFFFFB09FFFFFB
0AFFFFFFFFFFFB09FFFFF7
03FFFFFFFFFFFE2009FFE1
007FFFFFFFFFFFD76AFF40
0006EFFFFFFFFFFFFFD400
000017BEFFFFFFFDA60000
ENDCHAR
STARTCHAR iogonek
ENCODING 303
SWIDTH 578 0
DWIDTH 21 0
BBX 22 25 -1 0
BITMAP
0000000011111110000000
000028CFFFFFFFFFB71000
0007FFFA888888888CE500
008FFFF40000000008FF50
03FFFFFBAAA406AAADFFE1
0AFFFFFFFFF70AFFFFFFF7
0EFFFFFFFFF70AFFFFFFFC
1FFFFFFFFFF70AFFFFFFFD
1FFFFFFFFFF70AFFFFFFFD
1FFFFFFFFFF70AFFFFFFFD
1FFFFFFFFFF70AFFFFFFFD
1FFFFFFFFFF70AFFFFFFFD
1FFFFFFFFFF70AFFFFFFFD
1FFFFFFFFFF70AFFFFFFFD
1FFFFFFFFFF70AFFFFFFFD
1FFFFFF63331023339FFFD
1FFFFFF40000000008FFFD
1FFFFFFFFFFFFFE62DFFFD
1FFFFFFFFFFFFF31CFFFFD
0EFFFFFFFFFFFC09FFFFFB
0AFFFFFFFFFFFC08FFFFF7
03FFFFFFFFFFFE2008FFE1
007FFFFFFFFFFFD76AFF40
0006EFFFFFFFFFFFFFD400
000017BEFFFFFFFDA60000
ENDCHAR
STARTCHAR Idotaccent
ENCODING 304
SWIDTH 578 0
DWIDTH 21 0
BBX 22 34 -1 0
BITMAP
0000000014677630000000
00000029FFFFFFFD600000
000005EFFFFFFFFFFB1000
00003FFFFFFFFFFFFFB000
0000AFFFFFFFFFFFFFF400
0000EFFFFFB67FFFFFF700
0000EFFFFF802FFFFFF800
0000DFFFFFB56FFFFFF600
00009FFFFFFFFFFFFFF200
00002FFFFFFFFFFFFFB000
00002EFFFFFFFFFFFF3000
0007FFFA888888888CE500
008FFFF40000000008FF50
03FFFFFBAAA406AAADFFE1
0AFFFFFFFFF70AFFFFFFF7
0EFFFFFFFFF70AFFFFFFFC
1FFFFFFFFFF70AFFFFFFFD
1FFFFFFFFFF70AFFFFFFFD
1FFFFFFFFFF70AFFFFFFFD
1FFFFFFFFFF70AFFFFFFFD
1FFFFFFFFFF70AFFFFFFFD
1FFFFFFFFFF70AFFFFFFFD
1FFFFFFFFFF70AFFFFFFFD
1FFFFFFFFFF70AFFFFFFFD
1FFFFFF63331023339FFFD
1FFFFFF40000000008FFFD
1FFFFFFFFFFFFFFFFFFFFD
1FFFFFFFFFFFFFFFFFFFFD
0EFFFFFFFFFFFFFFFFFFFB
0AFFFFFFFFFFFFFFFFFFF7
03FFFFFFFFFFFFFFFFFFE1
007FFFFFFFFFFFFFFFFF40
0006EFFFFFFFFFFFFFD400
000017BEFFFFFFFDA60000
ENDCHAR
STARTCHAR dotlessi
ENCODING 305
SWIDTH 578 0
DWIDTH 21 0
BBX 22 25 -1 0
BITMAP
0000000011111110000000
000028CFFFFFFFFFB71000
0007FFFA888888888CE500
008FFFF40000000008FF50
03FFFFFBAAA406AAADFFE1
0AFFFFFFFFF70AFFFFFFF7
0EFFFFFFFFF70AFFFFFFFC
1FFFFFFFFFF70AFFFFFFFD
1FFFFFFFFFF70AFFFFFFFD
1FFFFFFFFFF70AFFFFFFFD
1FFFFFFFFFF70AFFFFFFFD
1FFFFFFFFFF70AFFFFFFFD
1FFFFFFFFFF70AFFFFFFFD
1FFFFFFFFFF70AFFFFFFFD
1FFFFFFFFFF70AFFFFFFFD
1FFFFFF63331023339FFFD
1FFFFFF40000000008FFFD
1FFFFFFFFFFFFFFFFFFFFD
1FFFFFFFFFFFFFFFFFFFFD
0EFFFFFFFFFFFFFFFFFFFB
0AFFFFFFFFFFFFFFFFFFF7
03FFFFFFFFFFFFFFFFFFE1
007FFFFFFFFFFFFFFFFF40
0006EFFFFFFFFFFFFFD400
000017BEFFFFFFFDA60000
ENDCHAR
STARTCHAR IJ
ENCODING 306
SWIDTH 578 0
DWIDTH 21 0
BBX 22 25 -1 0
BITMAP
0000000011111110000000
000028CFFFFFFFFFB71000
00078888888CFFFFC8B500
008F30000008FFFF909F50
03FFBA803AADFFFF909FE1
0AFFFFD04FFFFFFF909FF7
0EFFFFD04FFFFFFF909FFC
1FFFFFD04FFFFFFF909FFD
1FFFFFD04FFFFFFF909FFD
1FFFFFD04FFFFFFF909FFD
1FFFFFD04FFFFFFF909FFD
1FFFFFD04FFFFFFF909FFD
1FFFFFD04FFFFFFF909FFD
1FFFFFD04FFFFFFF909FFD
1FFFFFD04FFFFFFF709FFD
1FFF5320133AA332009FFD
1FFF30000008800028FFFD
1FFFFFFFFFFFFFFFFFFFFD
1FFFFFFFFFFFFFFFFFFFFD
0EFFFFFFFFFFFFFFFFFFFB
0AFFFFFFFFFFFFFFFFFFF7
03FFFFFFFFFFFFFFFFFFE1
007FFFFFFFFFFFFFFFFF40
0006EFFFFFFFFFFFFFD400
000017BEFFFFFFFDA60000
ENDCHAR
STARTCHAR ij
ENCODING 307
SWIDTH 578 0
DWIDTH 21 0
BBX 22 25 -1 0
BITMAP
0000000011111110000000
000028CFFFFFFFFFB71000
00078888888CFFFFC8B500
008F30000008FFFF909F50
03FFBA803AADFFFF909FE1
0AFFFFD04FFFFFFF909FF7
0EFFFFD04FFFFFFF909FFC
1FFFFFD04FFFFFFF909FFD
1FFFFFD04FFFFFFF909FFD
1FFFFFD04FFFFFFF909FFD
1FFFFFD04FFFFFFF909FFD
1FFFFFD04FFFFFFF909FFD
1FFFFFD04FFFFFFF909FFD
1FFFFFD04FFFFFFF909FFD
1FFFFFD04FFFFFFF709FFD
1FFF5320133AA332009FFD
1FFF30000008800028FFFD
1FFFFFFFFFFFFFFFFFFFFD
1FFFFFFFFFFFFFFFFFFFFD
0EFFFFFFFFFFFFFFFFFFFB
0AFFFFFFFFFFFFFFFFFFF7
03FFFFFFFFFFFFFFFFFFE1
007FFFFFFFFFFFFFFFFF40
0006EFFFFFFFFFFFFFD400
000017BEFFFFFFFDA60000
ENDCHAR
STARTCHAR Jcircumflex
ENCODING 308
SWIDTH 578 0
DWIDTH 21 0
BBX 22 35 -1 0
BITMAP
00000000039CCA50000000
000000003FFFFFF6000000
00000000CFFFFFFE100000
00000004FFFB9FFF800000
0000000AFFE12BFFE10000
0000002FFF9375FFF60000
0000008FFF38C0EFFC0000
000000DFFC0DF28FFF2000
000003FFF73FF73FFF6000
000005FFF8BFFD7EFF9000
000004FFFFFFFFFFFF7000
000028FFFFFFFFFFFF3000
0007FFFFFFFFFCDFFFE500
008FFFFFFFFFF03FFFFF50
03FFFFFFFFFFF03FFFFFE1
0AFFFFFFFFFFF03FFFFFF7
0EFFFFFFFFFFF03FFFFFFC
1FFFFFFFFFFFF03FFFFFFD
1FFFFFFFFFFFF03FFFFFFD
1FFFFFFFFFFFF03FFFFFFD
1FFFFFFFFFFFF03FFFFFFD
1FFFFFFFFFFFF03FFFFFFD
1FFFFFFFFFFFF03FFFFFFD
1FFFFFFFFFFFF03FFFFFFD
1FFFFFFFFFFFD03FFFFFFD
1FFFFFFFF332003FFFFFFD
1FFFFFFFF00014EFFFFFFD
1FFFFFFFFFFFFFFFFFFFFD
1FFFFFFFFFFFFFFFFFFFFD
0EFFFFFFFFFFFFFFFFFFFB
0AFFFFFFFFFFFFFFFFFFF7
03FFFFFFFFFFFFFFFFFFE1
007FFFFFFFFFFFFFFFFF40
0006EFFFFFFFFFFFFFD400
000017BEFFFFFFFDA60000
ENDCHAR
STARTCHAR jcircumflex
ENCODING 309
SWIDTH 578 0
DWIDTH 21 0
BBX 22 35 -1 0
BITMAP
00000000039CCA50000000
000000003FFFFFF6000000
00000000CFFFFFFE100000
00000004FFFB9FFF800000
0000000AFFE12BFFE10000
0000002FFF9375FFF60000
0000008FFF38C0EFFC0000
000000DFFC0DF28FFF2000
000003FFF73FF73FFF6000
000005FFF8BFFD7EFF9000
000004FFFFFFFFFFFF7000
000028FFFFFFFFFFFF3000
0007FFFFFFFFFCDFFFE500
008FFFFFFFFFF03FFFFF50
03FFFFFFFFFFF03FFFFFE1
0AFFFFFFFFFFF03FFFFFF7
0EFFFFFFFFFFF03FFFFFFC
1FFFFFFFFFFFF03FFFFFFD
1FFFFFFFFFFFF03FFFFFFD
1FFFFFFFFFFFF03FFFFFFD
1FFFFFFFFFFFF03FFFFFFD
1FFFFFFFFFFFF03FFFFFFD
1FFFFFFFFFFFF03FFFFFFD
1FFFFFFFFFFFF03FFFFFFD
1FFFFFFFFFFFD03FFFFFFD
1FFFFFFFF332003FFFFFFD
1FFFFFFFF00014EFFFFFFD
1FFFFFFFFFFFFFFFFFFFFD
1FFFFFFFFFFFFFFFFFFFFD
0EFFFFFFFFFFFFFFFFFFFB
0AFFFFFFFFFFFFFFFFFFF7
03FFFFFFFFFFFFFFFFFFE1
007FFFFFFFFFFFFFFFFF40
0006EFFFFFFFFFFFFFD400
000017BEFFFFFFFDA60000
ENDCHAR
STARTCHAR Kcommaaccent
ENCODING 310
SWIDTH 578 0
DWIDTH 21 0
BBX 22 25 -1 0
BITMAP
0000000011111110000000
000028CFFFFFFFFFB71000
0007FFFF98FFFFFFB5E500
008FFFFF30FFFFFB00AF50
03FFFFFF30FFFFB007FFE1
0AFFFFFF30FFFB008FFFF7
0EFFFFFF30FFA008FFFFFC
1FFFFFFF30FA008FFFFFFD
1FFFFFFF30A008FFFFFFFD
1FFFFFFF30004FFFFFFFFD
1FFFFFFF301109FFFFFFFD
1FFFFFFF30CB00AFFFFFFD
1FFFFFFF30FFA01CFFFFFD
1FFFFFFF30FFF701DFFFFD
1FFFFFFF30FFFF502EFFFD
1FFFFFFF30FFFFF303EFFD
1FFFFFFF30FFFFFE24EFFD
1FFFFFFFFFFFFFFFDFFFFD
1FFFFFFFFFF768FFFFFFFD
0EFFFFFFFFF203FFFFFFFB
0AFFFFFFFFF714FFFFFFF7
03FFFFFFFFFE09FFFFFFE1
007FFFFFFFFC4FFFFFFF40
0006EFFFFFFFFFFFFFD400
000017BEFFFFFFFDA60000
ENDCHAR
STARTCHAR kcommaaccent
ENCODING 311
SWIDTH 578 0
DWIDTH 21 0
BBX 22 25 -1 0
BITMAP
0000000011111110000000
000028CFFFFFFFFFB71000
0007FFFF98FFFFFFB5E500
008FFFFF30FFFFFB00AF50
03FFFFFF30FFFFB007FFE1
0AFFFFFF30FFFB008FFFF7
0EFFFFFF30FFA008FFFFFC
1FFFFFFF30FA008FFFFFFD
1FFFFFFF30A008FFFFFFFD
1FFFFFFF30004FFFFFFFFD
1FFFFFFF301109FFFFFFFD
1FFFFFFF30CB00AFFFFFFD
1FFFFFFF30FFA01CFFFFFD
1FFFFFFF30FFF701DFFFFD
1FFFFFFF30FFFF502EFFFD
1FFFFFFF30FFFFF303EFFD
1FFFFFFF30FFFFFE24EFFD
1FFFFFFFFFFFFFFFDFFFFD
1FFFFFFFFFF768FFFFFFFD
0EFFFFFFFFF203FFFFFFFB
0AFFFFFFFFF714FFFFFFF7
03FFFFFFFFFE09FFFFFFE1
007FFFFFFFFC4FFFFFFF40
0006EFFFFFFFFFFFFFD400
000017BEFFFFFFFDA60000
ENDCHAR
STARTCHAR kgreenlandic
ENCODING 312
SWIDTH 578 0
DWIDTH 21 0
BBX 22 25 -1 0
BITMAP
0000000011111110000000
000028CFFFFFFFFFB71000
0007FFFF98FFFFFFB5E500
008FFFFF30FFFFFB00AF50
03FFFFFF30FFFFB007FFE1
0AFFFFFF30FFFB008FFFF7
0EFFFFFF30FFA008FFFFFC
1FFFFFFF30FA008FFFFFFD
1FFFFFFF30A008FFFFFFFD
1FFFFFFF30004FFFFFFFFD
1FFFFFFF301109FFFFFFFD
1FFFFFFF30CB00AFFFFFFD
1FFFFFFF30FFA01CFFFFFD
1FFFFFFF30FFF701DFFFFD
1FFFFFFF30FFFF502EFFFD
1FFFFFFF30FFFFF303EFFD
1FFFFFFF30FFFFFE24EFFD
1FFFFFFFFFFFFFFFDFFFFD
1FFFFFFFFFFFFFFFFFFFFD
0EFFFFFFFFFFFFFFFFFFFB
0AFFFFFFFFFFFFFFFFFFF7
03FFFFFFFFFFFFFFFFFFE1
007FFFFFFFFFFFFFFFFF40
0006EFFFFFFFFFFFFFD400
000017BEFFFFFFFDA60000
ENDCHAR
STARTCHAR Lacute
ENCODING 313
SWIDTH 578 0
DWIDTH 21 0
BBX 22 36 -1 0
BITMAP
0000000000010000000000
000000003BFFFD82000000
00000002FFFFFFFE400000
00000009FFFFFFFFC00000
0000000DFFD01FFFF00000
0000003FFF908FFFC00000
0000008FFF41EFFF600000
000000CFFE07FFFC000000
000001FFFA0DFFF4000000
000003FFF86FFFA0000000
000001FFFFFFFE20000000
0000007FFFFFF810000000
000028CFFFFFFFFFB71000
0007FFFFE89FFFFFFFE500
008FFFFFD04FFFFFFFFF50
03FFFFFFD04FFFFFFFFFE1
0AFFFFFFD04FFFFFFFFFF7
0EFFFFFFD04FFFFFFFFFFC
1FFFFFFFD04FFFFFFFFFFD
1FFFFFFFD04FFFFFFFFFFD
1FFFFFFFD04FFFFFFFFFFD
1FFFFFFFD04FFFFFFFFFFD
1FFFFFFFD04FFFFFFFFFFD
1FFFFFFFD04FFFFFFFFFFD
1FFFFFFFD04FFFFFFFFFFD
1FFFFFFFD04FFFFFFFFFFD
1FFFFFFFD0133333DFFFFD
1FFFFFFFD0000000DFFFFD
1FFFFFFFFFFFFFFFFFFFFD
1FFFFFFFFFFFFFFFFFFFFD
0EFFFFFFFFFFFFFFFFFFFB
0AFFFFFFFFFFFFFFFFFFF7
03FFFFFFFFFFFFFFFFFFE1
007FFFFFFFFFFFFFFFFF40
0006EFFFFFFFFFFFFFD400
000017BEFFFFFFFDA60000
ENDCHAR
STARTCHAR lacute
ENCODING 314
SWIDTH 578 0
DWIDTH 21 0
BBX 22 36 -1 0
BITMAP
0000000000010000000000
000000003BFFFD82000000
00000002FFFFFFFE400000
00000009FFFFFFFFC00000
0000000DFFD01FFFF00000
0000003FFF908FFFC00000
0000008FFF41EFFF600000
000000CFFE07FFFC000000
000001FFFA0DFFF4000000
000003FFF86FFFA0000000
000001FFFFFFFE20000000
0000007FFFFFF810000000
000028CFFFFFFFFFB71000
0007FFFFE89FFFFFFFE500
008FFFFFD04FFFFFFFFF50
03FFFFFFD04FFFFFFFFFE1
0AFFFFFFD04FFFFFFFFFF7
0EFFFFFFD04FFFFFFFFFFC
1FFFFFFFD04FFFFFFFFFFD
1FFFFFFFD04FFFFFFFFFFD
1FFFFFFFD04FFFFFFFFFFD
1FFFFFFFD04FFFFFFFFFFD
1FFFFFFFD04FFFFFFFFFFD
1FFFFFFFD04FFFFFFFFFFD
1FFFFFFFD04FFFFFFFFFFD
1FFFFFFFD04FFFFFFFFFFD
1FFFFFFFD0133333DFFFFD
1FFFFFFFD0000000DFFFFD
1FFFFFFFFFFFFFFFFFFFFD
1FFFFFFFFFFFFFFFFFFFFD
0EFFFFFFFFFFFFFFFFFFFB
0AFFFFFFFFFFFFFFFFFFF7
03FFFFFFFFFFFFFFFFFFE1
007FFFFFFFFFFFFFFFFF40
0006EFFFFFFFFFFFFFD400
000017BEFFFFFFFDA60000
ENDCHAR
STARTCHAR Lcommaaccent
ENCODING 315
SWIDTH 578 0
DWIDTH 21 0
BBX 22 25 -1 0
BITMAP
0000000011111110000000
000028CFFFFFFFFFB71000
0007FFFFE89FFFFFFFE500
008FFFFFD04FFFFFFFFF50
03FFFFFFD04FFFFFFFFFE1
0AFFFFFFD04FFFFFFFFFF7
0EFFFFFFD04FFFFFFFFFFC
1FFFFFFFD04FFFFFFFFFFD
1FFFFFFFD04FFFFFFFFFFD
1FFFFFFFD04FFFFFFFFFFD
1FFFFFFFD04FFFFFFFFFFD
1FFFFFFFD04FFFFFFFFFFD
1FFFFFFFD04FFFFFFFFFFD
1FFFFFFFD04FFFFFFFFFFD
1FFFFFFFD04FFFFFFFFFFD
1FFFFFFFD0133333DFFFFD
1FFFFFFFD0000000DFFFFD
1FFFFFFFFFFFFFFFFFFFFD
1FFFFFFFFFF768FFFFFFFD
0EFFFFFFFFF203FFFFFFFB
0AFFFFFFFFF714FFFFFFF7
03FFFFFFFFFE09FFFFFFE1
007FFFFFFFFC4FFFFFFF40
0006EFFFFFFFFFFFFFD400
000017BEFFFFFFFDA60000
ENDCHAR
STARTCHAR lcommaaccent
ENCODING 316
SWIDTH 578 0
DWIDTH 21 0
BBX 22 25 -1 0
BITMAP
0000000011111110000000
000028CFFFFFFFFFB71000
0007FFFFE89FFFFFFFE500
008FFFFFD04FFFFFFFFF50
03FFFFFFD04FFFFFFFFFE1
0AFFFFFFD04FFFFFFFFFF7
0EFFFFFFD04FFFFFFFFFFC
1FFFFFFFD04FFFFFFFFFFD
1FFFFFFFD04FFFFFFFFFFD
1FFFFFFFD04FFFFFFFFFFD
1FFFFFFFD04FFFFFFFFFFD
1FFFFFFFD04FFFFFFFFFFD
1FFFFFFFD04FFFFFFFFFFD
1FFFFFFFD04FFFFFFFFFFD
1FFFFFFFD04FFFFFFFFFFD
1FFFFFFFD0133333DFFFFD
1FFFFFFFD0000000DFFFFD
1FFFFFFFFFFFFFFFFFFFFD
1FFFFFFFFFF768FFFFFFFD
0EFFFFFFFFF203FFFFFFFB
0AFFFFFFFFF714FFFFFFF7
03FFFFFFFFFE09FFFFFFE1
007FFFFFFFFC4FFFFFFF40
0006EFFFFFFFFFFFFFD400
000017BEFFFFFFFDA60000
ENDCHAR
STARTCHAR Lcaron
ENCODING 317
SWIDTH 578 0
DWIDTH 21 0
BBX 22 25 -1 0
BITMAP
0000000011111110000000
000028CFFFFFFFFFB71000
0007FFFFE89FF889FFE500
008FFFFFD04FF203FFFF50
03FFFFFFD04FF513FFFFE1
0AFFFFFFD04FFE18FFFFF7
0EFFFFFFD04FFC3EFFFFFC
1FFFFFFFD04FFFFFFFFFFD
1FFFFFFFD04FFFFFFFFFFD
1FFFFFFFD04FFFFFFFFFFD
1FFFFFFFD04FFFFFFFFFFD
1FFFFFFFD04FFFFFFFFFFD
1FFFFFFFD04FFFFFFFFFFD
1FFFFFFFD04FFFFFFFFFFD
1FFFFFFFD04FFFFFFFFFFD
1FFFFFFFD0133333DFFFFD
1FFFFFFFD0000000DFFFFD
1FFFFFFFFFFFFFFFFFFFFD
1FFFFFFFFFFFFFFFFFFFFD
0EFFFFFFFFFFFFFFFFFFFB
0AFFFFFFFFFFFFFFFFFFF7
03FFFFFFFFFFFFFFFFFFE1
007FFFFFFFFFFFFFFFFF40
0006EFFFFFFFFFFFFFD400
000017BEFFFFFFFDA60000
ENDCHAR
STARTCHAR lcaron
ENCODING 318
SWIDTH 578 0
DWIDTH 21 0
BBX 22 25 -1 0
BITMAP
0000000011111110000000
000028CFFFFFFFFFB71000
0007FFFFE89FF889FFE500
008FFFFFD04FF203FFFF50
03FFFFFFD04FF513FFFFE1
0AFFFFFFD04FFE18FFFFF7
0EFFFFFFD04FFC3EFFFFFC
1FFFFFFFD04FFFFFFFFFFD
1FFFFFFFD04FFFFFFFFFFD
1FFFFFFFD04FFFFFFFFFFD
1FFFFFFFD04FFFFFFFFFFD
1FFFFFFFD04FFFFFFFFFFD
1FFFFFFFD04FFFFFFFFFFD
1FFFFFFFD04FFFFFFFFFFD
1FFFFFFFD04FFFFFFFFFFD
1FFFFFFFD0133333DFFFFD
1FFFFFFFD0000000DFFFFD
1FFFFFFFFFFFFFFFFFFFFD
1FFFFFFFFFFFFFFFFFFFFD
0EFFFFFFFFFFFFFFFFFFFB
0AFFFFFFFFFFFFFFFFFFF7
03FFFFFFFFFFFFFFFFFFE1
007FFFFFFFFFFFFFFFFF40
0006EFFFFFFFFFFFFFD400
000017BEFFFFFFFDA60000
ENDCHAR
STARTCHAR Ldot
ENCODING 319
SWIDTH 578 0
DWIDTH 21 0
BBX 22 25 -1 0
BITMAP
0000000011111110000000
000028CFFFFFFFFFB71000
0007FFFFE89FFFFFFFE500
008FFFFFD04FFFFFFFFF50
03FFFFFFD04FFFFFFFFFE1
0AFFFFFFD04FFFFFFFFFF7
0EFFFFFFD04FFFFFFFFFFC
1FFFFFFFD04F605FFFFFFD
1FFFFFFFD04F605FFFFFFD
1FFFFFFFD04FDCDFFFFFFD
1FFFFFFFD04FFFFFFFFFFD
1FFFFFFFD04FFFFFFFFFFD
1FFFFFFFD04FFFFFFFFFFD
1FFFFFFFD04FFFFFFFFFFD
1FFFFFFFD04FFFFFFFFFFD
1FFFFFFFD0133333DFFFFD
1FFFFFFFD0000000DFFFFD
1FFFFFFFFFFFFFFFFFFFFD
1FFFFFFFFFFFFFFFFFFFFD
0EFFFFFFFFFFFFFFFFFFFB
0AFFFFFFFFFFFFFFFFFFF7
03FFFFFFFFFFFFFFFFFFE1
007FFFFFFFFFFFFFFFFF40
0006EFFFFFFFFFFFFFD400
000017BEFFFFFFFDA60000
ENDCHAR
STARTCHAR ldot
ENCODING 320
SWIDTH 578 0
DWIDTH 21 0
BBX 22 25 -1 0
BITMAP
0000000011111110000000
000028CFFFFFFFFFB71000
0007FFFFE89FFFFFFFE500
008FFFFFD04FFFFFFFFF50
03FFFFFFD04FFFFFFFFFE1
0AFFFFFFD04FFFFFFFFFF7
0EFFFFFFD04FFFFFFFFFFC
1FFFFFFFD04F605FFFFFFD
1FFFFFFFD04F605FFFFFFD
1FFFFFFFD04FDCDFFFFFFD
1FFFFFFFD04FFFFFFFFFFD
1FFFFFFFD04FFFFFFFFFFD
1FFFFFFFD04FFFFFFFFFFD
1FFFFFFFD04FFFFFFFFFFD
1FFFFFFFD04FFFFFFFFFFD
1FFFFFFFD0133333DFFFFD
1FFFFFFFD0000000DFFFFD
1FFFFFFFFFFFFFFFFFFFFD
1FFFFFFFFFFFFFFFFFFFFD
0EFFFFFFFFFFFFFFFFFFFB
0AFFFFFFFFFFFFFFFFFFF7
03FFFFFFFFFFFFFFFFFFE1
007FFFFFFFFFFFFFFFFF40
0006EFFFFFFFFFFFFFD400
000017BEFFFFFFFDA60000
ENDCHAR
STARTCHAR Lslash
ENCODING 321
SWIDTH 578 0
DWIDTH 21 0
BBX 22 25 -1 0
BITMAP
0000000011111110000000
000028CFFFFFFFFFB71000
0007FFFFE89FFFFFFFE500
008FFFFFD04FFFFFFFFF50
03FFFFFFD04FFFFFFFFFE1
0AFFFFFFD04FFFFFFFFFF7
0EFFFFFFD04FFFFFFFFFFC
1FFFFFFFD0386FFFFFFFFD
1FFFFFFFD003BFFFFFFFFD
1FFFFFFC403FFFFFFFFFFD
1FFFFFD1504FFFFFFFFFFD
1FFFFFFED04FFFFFFFFFFD
1FFFFFFFD04FFFFFFFFFFD
1FFFFFFFD04FFFFFFFFFFD
1FFFFFFFD04FFFFFFFFFFD
1FFFFFFFD0133333DFFFFD
1FFFFFFFD0000000DFFFFD
1FFFFFFFFFFFFFFFFFFFFD
1FFFFFFFFFFFFFFFFFFFFD
0EFFFFFFFFFFFFFFFFFFFB
0AFFFFFFFFFFFFFFFFFFF7
03FFFFFFFFFFFFFFFFFFE1
007FFFFFFFFFFFFFFFFF40
0006EFFFFFFFFFFFFFD400
000017BEFFFFFFFDA60000
ENDCHAR
STARTCHAR lslash
ENCODING 322
SWIDTH 578 0
DWIDTH 21 0
BBX 22 25 -1 0
BITMAP
0000000011111110000000
000028CFFFFFFFFFB71000
0007FFFFE89FFFFFFFE500
008FFFFFD04FFFFFFFFF50
03FFFFFFD04FFFFFFFFFE1
0AFFFFFFD04FFFFFFFFFF7
0EFFFFFFD04FFFFFFFFFFC
1FFFFFFFD0386FFFFFFFFD
1FFFFFFFD003BFFFFFFFFD
1FFFFFFC403FFFFFFFFFFD
1FFFFFD1504FFFFFFFFFFD
1FFFFFFED04FFFFFFFFFFD
1FFFFFFFD04FFFFFFFFFFD
1FFFFFFFD04FFFFFFFFFFD
1FFFFFFFD04FFFFFFFFFFD
1FFFFFFFD0133333DFFFFD
1FFFFFFFD0000000DFFFFD
1FFFFFFFFFFFFFFFFFFFFD
1FFFFFFFFFFFFFFFFFFFFD
0EFFFFFFFFFFFFFFFFFFFB
0AFFFFFFFFFFFFFFFFFFF7
03FFFFFFFFFFFFFFFFFFE1
007FFFFFFFFFFFFFFFFF40
0006EFFFFFFFFFFFFFD400
000017BEFFFFFFFDA60000
ENDCHAR
STARTCHAR Nacute
ENCODING 323
SWIDTH 578 0
DWIDTH 21 0
BBX 22 36 -1 0
BITMAP
0000000000000100000000
00000000008DFFEB500000
0000000009FFFFFFFA0000
000000001FFFFFFFFF5000
000000006FFF609FFF7000
00000000BFFF11EFFF5000
00000001FFFC07FFFD0000
00000004FFF70EFFF50000
00000008FFF36FFFB00000
0000000AFFE3DFFF300000
00000008FFFFFFF9000000
00000001EFFFFFF1000000
000028CFFFFFFFFFB71000
0007FFFCA888888AEFE500
008FFFA0000000004EFF50
03FFFFA039AAAA930BFFE1
0AFFFFA07FFFFFF709FFF7
0EFFFFA07FFFFFF809FFFC
1FFFFFA07FFFFFF809FFFD
1FFFFFA07FFFFFF809FFFD
1FFFFFA07FFFFFF809FFFD
1FFFFFA07FFFFFF809FFFD
1FFFFFA07FFFFFF809FFFD
1FFFFFA07FFFFFF809FFFD
1FFFFFA07FFFFFF809FFFD
1FFFFFA07FFFFFF809FFFD
1FFFFFA07FFFFFF809FFFD
1FFFFFA07FFFFFF809FFFD
1FFFFFFFFFFFFFFFFFFFFD
1FFFFFFFFFFFFFFFFFFFFD
0EFFFFFFFFFFFFFFFFFFFB
0AFFFFFFFFFFFFFFFFFFF7
03FFFFFFFFFFFFFFFFFFE1
007FFFFFFFFFFFFFFFFF40
0006EFFFFFFFFFFFFFD400
000017BEFFFFFFFDA60000
ENDCHAR
STARTCHAR nacute
ENCODING 324
SWIDTH 578 0
DWIDTH 21 0
BBX 22 36 -1 0
BITMAP
0000000000000100000000
00000000008DFFEB500000
0000000009FFFFFFFA0000
000000001FFFFFFFFF5000
000000006FFF609FFF7000
00000000BFFF11EFFF5000
00000001FFFC07FFFD0000
00000004FFF70EFFF50000
00000008FFF36FFFB00000
0000000AFFE3DFFF300000
00000008FFFFFFF9000000
00000001EFFFFFF1000000
000028CFFFFFFFFFB71000
0007FFFCA888888AEFE500
008FFFA0000000004EFF50
03FFFFA039AAAA930BFFE1
0AFFFFA07FFFFFF709FFF7
0EFFFFA07FFFFFF809FFFC
1FFFFFA07FFFFFF809FFFD
1FFFFFA07FFFFFF809FFFD
1FFFFFA07FFFFFF809FFFD
1FFFFFA07FFFFFF809FFFD
1FFFFFA07FFFFFF809FFFD
1FFFFFA07FFFFFF809FFFD
1FFFFFA07FFFFFF809FFFD
1FFFFFA07FFFFFF809FFFD
1FFFFFA07FFFFFF809FFFD
1FFFFFA07FFFFFF809FFFD
1FFFFFFFFFFFFFFFFFFFFD
1FFFFFFFFFFFFFFFFFFFFD
0EFFFFFFFFFFFFFFFFFFFB
0AFFFFFFFFFFFFFFFFFFF7
03FFFFFFFFFFFFFFFFFFE1
007FFFFFFFFFFFFFFFFF40
0006EFFFFFFFFFFFFFD400
000017BEFFFFFFFDA60000
ENDCHAR
STARTCHAR Ncommaaccent
ENCODING 325
SWIDTH 578 0
DWIDTH 21 0
BBX 22 25 -1 0
BITMAP
0000000011111110000000
000028CFFFFFFFFFB71000
0007FFFCA888888AEFE500
008FFFA0000000004EFF50
03FFFFA039AAAA930BFFE1
0AFFFFA07FFFFFF709FFF7
0EFFFFA07FFFFFF809FFFC
1FFFFFA07FFFFFF809FFFD
1FFFFFA07FFFFFF809FFFD
1FFFFFA07FFFFFF809FFFD
1FFFFFA07FFFFFF809FFFD
1FFFFFA07FFFFFF809FFFD
1FFFFFA07FFFFFF809FFFD
1FFFFFA07FFFFFF809FFFD
1FFFFFA07FFFFFF809FFFD
1FFFFFA07FFFFFF809FFFD
1FFFFFA07FFFFFF809FFFD
1FFFFFFFFFFFFFFFFFFFFD
1FFFFFFFFFF768FFFFFFFD
0EFFFFFFFFF203FFFFFFFB
0AFFFFFFFFF714FFFFFFF7
03FFFFFFFFFE09FFFFFFE1
007FFFFFFFFC4FFFFFFF40
0006EFFFFFFFFFFFFFD400
000017BEFFFFFFFDA60000
ENDCHAR
STARTCHAR ncommaaccent
ENCODING 326
SWIDTH 578 0
DWIDTH 21 0
BBX 22 25 -1 0
BITMAP
0000000011111110000000
000028CFFFFFFFFFB71000
0007FFFCA888888AEFE500
008FFFA0000000004EFF50
03FFFFA039AAAA930BFFE1
0AFFFFA07FFFFFF709FFF7
0EFFFFA07FFFFFF809FFFC
1FFFFFA07FFFFFF809FFFD
1FFFFFA07FFFFFF809FFFD
1FFFFFA07FFFFFF809FFFD
1FFFFFA07FFFFFF809FFFD
1FFFFFA07FFFFFF809FFFD
1FFFFFA07FFFFFF809FFFD
1FFFFFA07FFFFFF809FFFD
1FFFFFA07FFFFFF809FFFD
1FFFFFA07FFFFFF809FFFD
1FFFFFA07FFFFFF809FFFD
1FFFFFFFFFFFFFFFFFFFFD
1FFFFFFFFFF768FFFFFFFD
0EFFFFFFFFF203FFFFFFFB
0AFFFFFFFFF714FFFFFFF7
03FFFFFFFFFE09FFFFFFE1
007FFFFFFFFC4FFFFFFF40
0006EFFFFFFFFFFFFFD400
000017BEFFFFFFFDA60000
ENDCHAR
STARTCHAR Ncaron
ENCODING 327
SWIDTH 578 0
DWIDTH 21 0
BBX 22 34 -1 0
BITMAP
00000039BB606BCA300000
000006FFFFFEFFFFF30000
00000DFFFFFFFFFFFA0000
00001FFF96FFE5BFFD0000
00000FFFC0DFA0EFFC0000
00000CFFF28F55FFFA0000
000008FFF83F1BFFF60000
000004FFFE092FFFF20000
000000EFFF518FFFC00000
0000009FFFFCFFFF700000
000028FFFFFFFFFFD71000
0007FFFFFCCCCCCDEFE500
008FFFA0000000004EFF50
03FFFFA039AAAA930BFFE1
0AFFFFA07FFFFFF709FFF7
0EFFFFA07FFFFFF809FFFC
1FFFFFA07FFFFFF809FFFD
1FFFFFA07FFFFFF809FFFD
1FFFFFA07FFFFFF809FFFD
1FFFFFA07FFFFFF809FFFD
1FFFFFA07FFFFFF809FFFD
1FFFFFA07FFFFFF809FFFD
1FFFFFA07FFFFFF809FFFD
1FFFFFA07FFFFFF809FFFD
1FFFFFA07FFFFFF809FFFD
1FFFFFA07FFFFFF809FFFD
1FFFFFFFFFFFFFFFFFFFFD
1FFFFFFFFFFFFFFFFFFFFD
0EFFFFFFFFFFFFFFFFFFFB
0AFFFFFFFFFFFFFFFFFFF7
03FFFFFFFFFFFFFFFFFFE1
007FFFFFFFFFFFFFFFFF40
0006EFFFFFFFFFFFFFD400
000017BEFFFFFFFDA60000
ENDCHAR
STARTCHAR ncaron
ENCODING 328
SWIDTH 578 0
DWIDTH 21 0
BBX 22 34 -1 0
BITMAP
00000039BB606BCA300000
000006FFFFFEFFFFF30000
00000DFFFFFFFFFFFA0000
00001FFF96FFE5BFFD0000
00000FFFC0DFA0EFFC0000
00000CFFF28F55FFFA0000
000008FFF83F1BFFF60000
000004FFFE092FFFF20000
000000EFFF518FFFC00000
0000009FFFFCFFFF700000
000028FFFFFFFFFFD71000
0007FFFFFCCCCCCDEFE500
008FFFA0000000004EFF50
03FFFFA039AAAA930BFFE1
0AFFFFA07FFFFFF709FFF7
0EFFFFA07FFFFFF809FFFC
1FFFFFA07FFFFFF809FFFD
1FFFFFA07FFFFFF809FFFD
1FFFFFA07FFFFFF809FFFD
1FFFFFA07FFFFFF809FFFD
1FFFFFA07FFFFFF809FFFD
1FFFFFA07FFFFFF809FFFD
1FFFFFA07FFFFFF809FFFD
1FFFFFA07FFFFFF809FFFD
1FFFFFA07FFFFFF809FFFD
1FFFFFA07FFFFFF809FFFD
1FFFFFFFFFFFFFFFFFFFFD
1FFFFFFFFFFFFFFFFFFFFD
0EFFFFFFFFFFFFFFFFFFFB
0AFFFFFFFFFFFFFFFFFFF7
03FFFFFFFFFFFFFFFFFFE1
007FFFFFFFFFFFFFFFFF40
0006EFFFFFFFFFFFFFD400
000017BEFFFFFFFDA60000
ENDCHAR
STARTCHAR napostrophe
ENCODING 329
SWIDTH 578 0
DWIDTH 21 0
BBX 22 25 -1 0
BITMAP
0000000011111110000000
000028CFFFFFFFFFB71000
0007FFFCA888888AEFE500
008FFFA0000000004EFF50
03D229A039AAAA930BFFE1
0AD008A07FFFFFF709FFF7
0EE809A07FFFFFF809FFFC
1FF81EA07FFFFFF809FFFD
1FFCAFA07FFFFFF809FFFD
1FFFFFA07FFFFFF809FFFD
1FFFFFA07FFFFFF809FFFD
1FFFFFA07FFFFFF809FFFD
1FFFFFA07FFFFFF809FFFD
1FFFFFA07FFFFFF809FFFD
1FFFFFA07FFFFFF809FFFD
1FFFFFA07FFFFFF809FFFD
1FFFFFA07FFFFFF809FFFD
1FFFFFFFFFFFFFFFFFFFFD
1FFFFFFFFFFFFFFFFFFFFD
0EFFFFFFFFFFFFFFFFFFFB
0AFFFFFFFFFFFFFFFFFFF7
03FFFFFFFFFFFFFFFFFFE1
007FFFFFFFFFFFFFFFFF40
0006EFFFFFFFFFFFFFD400
000017BEFFFFFFFDA60000
ENDCHAR
STARTCHAR Eng
ENCODING 330
SWIDTH 578 0
DWIDTH 21 0
BBX 22 25 -1 0
BITMAP
0000000011111110000000
000028CFFFFFFFFFB71000
0007FFFCA888888AEFE500
008FFFA0000000004EFF50
03FFFFA039AAAA930BFFE1
0AFFFFA07FFFFFF709FFF7
0EFFFFA07FFFFFF809FFFC
1FFFFFA07FFFFFF809FFFD
1FFFFFA07FFFFFF809FFFD
1FFFFFA07FFFFFF809FFFD
1FFFFFA07FFFFFF809FFFD
1FFFFFA07FFFFFF809FFFD
1FFFFFA07FFFFFF809FFFD
1FFFFFA07FFFFFF809FFFD
1FFFFFA07FFFFFF809FFFD
1FFFFFA07FFFFFF809FFFD
1FFFFFA07FFFFFF809FFFD
1FFFFFFFFFFFFFF809FFFD
1FFFFFFFFFFFFFF809FFFD
0EFFFFFFFFFFFFF609FFFB
0AFFFFFFFFFA554109FFF7
03FFFFFFFFF800007FFFE1
007FFFFFFFFECCDFFFFF40
0006EFFFFFFFFFFFFFD400
000017BEFFFFFFFDA60000
ENDCHAR
STARTCHAR eng
ENCODING 331
SWIDTH 578 0
DWIDTH 21 0
BBX 22 25 -1 0
BITMAP
0000000011111110000000
000028CFFFFFFFFFB71000
0007FFFCA888888AEFE500
008FFFA0000000004EFF50
03FFFFA039AAAA930BFFE1
0AFFFFA07FFFFFF709FFF7
0EFFFFA07FFFFFF809FFFC
1FFFFFA07FFFFFF809FFFD
1FFFFFA07FFFFFF809FFFD
1FFFFFA07FFFFFF809FFFD
1FFFFFA07FFFFFF809FFFD
1FFFFFA07FFFFFF809FFFD
1FFFFFA07FFFFFF809FFFD
1FFFFFA07FFFFFF809FFFD
1FFFFFA07FFFFFF809FFFD
1FFFFFA07FFFFFF809FFFD
1FFFFFA07FFFFFF809FFFD
1FFFFFFFFFFFFFF809FFFD
1FFFFFFFFFFFFFF809FFFD
0EFFFFFFFFFFFFF609FFFB
0AFFFFFFFFFA554109FFF7
03FFFFFFFFF800007FFFE1
007FFFFFFFFECCDFFFFF40
0006EFFFFFFFFFFFFFD400
000017BEFFFFFFFDA60000
ENDCHAR
STARTCHAR Omacron
ENCODING 332
SWIDTH 578 0
DWIDTH 21 0
BBX 22 34 -1 0
BITMAP
0000000003677641000000
00000006DFFFFFFE920000
000001CFFFFFFFFFFE4000
00000BFFFFFFFFFFFFF200
00004FFFFFFFFFFFFFFA00
00008FFFC666666DFFFE00
00008FFFA000000BFFFE00
00006FFFDAAAAAAEFFFC00
00001EFFFFFFFFFFFFF600
000004FFFFFFFFFFFFA000
000028FFFFFFFFFFFF1000
0007FFFFA8888889DFE500
008FFFF5000000001CFF50
03FFFFD028AAAA9506FFE1
0AFFFFB06FFFFFFD04FFF7
0EFFFFB07FFFFFFD04FFFC
1FFFFFB07FFFFFFD04FFFD
1FFFFFB07FFFFFFD04FFFD
1FFFFFB07FFFFFFD04FFFD
1FFFFFB07FFFFFFD04FFFD
1FFFFFB07FFFFFFD04FFFD
1FFFFFB07FFFFFFD04FFFD
1FFFFFB07FFFFFFD04FFFD
1FFFFFC04FFFFFFB05FFFD
1FFFFFE00233332008FFFD
1FFFFFFB200000015FFFFD
1FFFFFFFFFFFFFFFFFFFFD
1FFFFFFFFFFFFFFFFFFFFD
0EFFFFFFFFFFFFFFFFFFFB
0AFFFFFFFFFFFFFFFFFFF7
03FFFFFFFFFFFFFFFFFFE1
007FFFFFFFFFFFFFFFFF40
0006EFFFFFFFFFFFFFD400
000017BEFFFFFFFDA60000
ENDCHAR
STARTCHAR omacron
ENCODING 333
SWIDTH 578 0
DWIDTH 21 0
BBX 22 34 -1 0
BITMAP
0000000003677641000000
00000006DFFFFFFE920000
000001CFFFFFFFFFFE4000
00000BFFFFFFFFFFFFF200
00004FFFFFFFFFFFFFFA00
00008FFFC666666DFFFE00
00008FFFA000000BFFFE00
00006FFFDAAAAAAEFFFC00
00001EFFFFFFFFFFFFF600
000004FFFFFFFFFFFFA000
000028FFFFFFFFFFFF1000
0007FFFFA8888889DFE500
008FFFF5000000001CFF50
03FFFFD028AAAA9506FFE1
0AFFFFB06FFFFFFD04FFF7
0EFFFFB07FFFFFFD04FFFC
1FFFFFB07FFFFFFD04FFFD
1FFFFFB07FFFFFFD04FFFD
1FFFFFB07FFFFFFD04FFFD
1FFFFFB07FFFFFFD04FFFD
1FFFFFB07FFFFFFD04FFFD
1FFFFFB07FFFFFFD04FFFD
1FFFFFB07FFFFFFD04FFFD
1FFFFFC04FFFFFFB05FFFD
1FFFFFE00233332008FFFD
1FFFFFFB200000015FFFFD
1FFFFFFFFFFFFFFFFFFFFD
1FFFFFFFFFFFFFFFFFFFFD
0EFFFFFFFFFFFFFFFFFFFB
0AFFFFFFFFFFFFFFFFFFF7
03FFFFFFFFFFFFFFFFFFE1
007FFFFFFFFFFFFFFFFF40
0006EFFFFFFFFFFFFFD400
000017BEFFFFFFFDA60000
ENDCHAR
STARTCHAR Obreve
ENCODING 334
SWIDTH 578 0
DWIDTH 21 0
BBX 22 34 -1 0
BITMAP
0000000003677641000000
00000006DFFFFFFE920000
000001CFFFFFFFFFFE4000
00000BFFFFFFFFFFFFF200
00004FFFFFFFFFFFFFFA00
00008FFFFBDFFFBDFFFE00
00008FFFF15FFC09FFFE00
00006FFFF502201CFFFC00
00001EFFFE7446BFFFF600
000004FFFFFFFFFFFFA000
000028FFFFFFFFFFFF1000
0007FFFFA8888889DFE500
008FFFF5000000001CFF50
03FFFFD028AAAA9506FFE1
0AFFFFB06FFFFFFD04FFF7
0EFFFFB07FFFFFFD04FFFC
1FFFFFB07FFFFFFD04FFFD
1FFFFFB07FFFFFFD04FFFD
1FFFFFB07FFFFFFD04FFFD
1FFFFFB07FFFFFFD04FFFD
1FFFFFB07FFFFFFD04FFFD
1FFFFFB07FFFFFFD04FFFD
1FFFFFB07FFFFFFD04FFFD
1FFFFFC04FFFFFFB05FFFD
1FFFFFE00233332008FFFD
1FFFFFFB200000015FFFFD
1FFFFFFFFFFFFFFFFFFFFD
1FFFFFFFFFFFFFFFFFFFFD
0EFFFFFFFFFFFFFFFFFFFB
0AFFFFFFFFFFFFFFFFFFF7
03FFFFFFFFFFFFFFFFFFE1
007FFFFFFFFFFFFFFFFF40
0006EFFFFFFFFFFFFFD400
000017BEFFFFFFFDA60000
ENDCHAR
STARTCHAR obreve
ENCODING 335
SWIDTH 578 0
DWIDTH 21 0
BBX 22 34 -1 0
BITMAP
0000000003677641000000
00000006DFFFFFFE920000
000001CFFFFFFFFFFE4000
00000BFFFFFFFFFFFFF200
00004FFFFFFFFFFFFFFA00
00008FFFFBDFFFBDFFFE00
00008FFFF15FFC09FFFE00
00006FFFF502201CFFFC00
00001EFFFE7446BFFFF600
000004FFFFFFFFFFFFA000
000028FFFFFFFFFFFF1000
0007FFFFA8888889DFE500
008FFFF5000000001CFF50
03FFFFD028AAAA9506FFE1
0AFFFFB06FFFFFFD04FFF7
0EFFFFB07FFFFFFD04FFFC
1FFFFFB07FFFFFFD04FFFD
1FFFFFB07FFFFFFD04FFFD
1FFFFFB07FFFFFFD04FFFD
1FFFFFB07FFFFFFD04FFFD
1FFFFFB07FFFFFFD04FFFD
1FFFFFB07FFFFFFD04FFFD
1FFFFFB07FFFFFFD04FFFD
1FFFFFC04FFFFFFB05FFFD
1FFFFFE00233332008FFFD
1FFFFFFB200000015FFFFD
1FFFFFFFFFFFFFFFFFFFFD
1FFFFFFFFFFFFFFFFFFFFD
0EFFFFFFFFFFFFFFFFFFFB
0AFFFFFFFFFFFFFFFFFFF7
03FFFFFFFFFFFFFFFFFFE1
007FFFFFFFFFFFFFFFFF40
0006EFFFFFFFFFFFFFD400
000017BEFFFFFFFDA60000
ENDCHAR
STARTCHAR Ohungarumlaut
ENCODING 336
SWIDTH 578 0
DWIDTH 21 0
BBX 22 35 -1 0
BITMAP
0000000000004661466200
00000000002DFFFEFFFA00
0000000000CFFFFFFFFF30
0000000006FFFFFFFFFFB0
000000001EFFD18FE17FF4
000000007FFF63FF72EFFB
00000001EFFD0CFD1BFFF5
00000009FFF57FF66FFFA0
0000002FFFC3FFD2EFFE10
0000005FFF5CFF6BFFF500
0000004FFFFFFFFFFFA000
000028DFFFFFFFFFFF2000
0007FFFFFDCCCCCEFFE500
008FFFF5000000001CFF50
03FFFFD028AAAA9506FFE1
0AFFFFB06FFFFFFD04FFF7
0EFFFFB07FFFFFFD04FFFC
1FFFFFB07FFFFFFD04FFFD
1FFFFFB07FFFFFFD04FFFD
1FFFFFB07FFFFFFD04FFFD
1FFFFFB07FFFFFFD04FFFD
1FFFFFB07FFFFFFD04FFFD
1FFFFFB07FFFFFFD04FFFD
1FFFFFB07FFFFFFD04FFFD
1FFFFFC04FFFFFFB05FFFD
1FFFFFE00233332008FFFD
1FFFFFFB200000015FFFFD
1FFFFFFFFFFFFFFFFFFFFD
1FFFFFFFFFFFFFFFFFFFFD
0EFFFFFFFFFFFFFFFFFFFB
0AFFFFFFFFFFFFFFFFFFF7
03FFFFFFFFFFFFFFFFFFE1
007FFFFFFFFFFFFFFFFF40
0006EFFFFFFFFFFFFFD400
000017BEFFFFFFFDA60000
ENDCHAR
STARTCHAR ohungarumlaut
ENCODING 337
SWIDTH 578 0
DWIDTH 21 0
BBX 22 35 -1 0
BITMAP
0000000000004661466200
00000000002DFFFEFFFA00
0000000000CFFFFFFFFF30
0000000006FFFFFFFFFFB0
000000001EFFD18FE17FF4
000000007FFF63FF72EFFB
00000001EFFD0CFD1BFFF5
00000009FFF57FF66FFFA0
0000002FFFC3FFD2EFFE10
0000005FFF5CFF6BFFF500
0000004FFFFFFFFFFFA000
000028DFFFFFFFFFFF2000
0007FFFFFDCCCCCEFFE500
008FFFF5000000001CFF50
03FFFFD028AAAA9506FFE1
0AFFFFB06FFFFFFD04FFF7
0EFFFFB07FFFFFFD04FFFC
1FFFFFB07FFFFFFD04FFFD
1FFFFFB07FFFFFFD04FFFD
1FFFFFB07FFFFFFD04FFFD
1FFFFFB07FFFFFFD04FFFD
1FFFFFB07FFFFFFD04FFFD
1FFFFFB07FFFFFFD04FFFD
1FFFFFB07FFFFFFD04FFFD
1FFFFFC04FFFFFFB05FFFD
1FFFFFE00233332008FFFD
1FFFFFFB200000015FFFFD
1FFFFFFFFFFFFFFFFFFFFD
1FFFFFFFFFFFFFFFFFFFFD
0EFFFFFFFFFFFFFFFFFFFB
0AFFFFFFFFFFFFFFFFFFF7
03FFFFFFFFFFFFFFFFFFE1
007FFFFFFFFFFFFFFFFF40
0006EFFFFFFFFFFFFFD400
000017BEFFFFFFFDA60000
ENDCHAR
STARTCHAR OE
ENCODING 338
SWIDTH 578 0
DWIDTH 21 0
BBX 22 25 -1 0
BITMAP
0000000011111110000000
000028CFFFFFFFFFB71000
0007FFC9888AB88888E500
008FF9000000100000FF50
03FFF208AA8207AAAAFFE1
0AFFF02FFFF60CFFFFFFF7
0EFFF02FFFF60CFFFFFFFC
1FFFF02FFFF60CFFFFFFFD
1FFFF02FFFF60ADDDEFFFD
1FFFF02FFFF6000008FFFD
1FFFF02FFFF603444AFFFD
1FFFF02FFFF60BFFFFFFFD
1FFFF02FFFF60BFFFFFFFD
1FFFF02FFFF60BFFFFFFFD
1FFFF11FFFF40BFFFFFFFD
1FFFF3012310023333CFFD
1FFFFD310002400000BFFD
1FFFFFFFFFFFFFFFFFFFFD
1FFFFFFFFFFFFFFFFFFFFD
0EFFFFFFFFFFFFFFFFFFFB
0AFFFFFFFFFFFFFFFFFFF7
03FFFFFFFFFFFFFFFFFFE1
007FFFFFFFFFFFFFFFFF40
0006EFFFFFFFFFFFFFD400
000017BEFFFFFFFDA60000
ENDCHAR
STARTCHAR oe
ENCODING 339
SWIDTH 578 0
DWIDTH 21 0
BBX 22 25 -1 0
BITMAP
0000000011111110000000
000028CFFFFFFFFFB71000
0007FFC9888AB88888E500
008FF9000000100000FF50
03FFF208AA8207AAAAFFE1
0AFFF02FFFF60CFFFFFFF7
0EFFF02FFFF60CFFFFFFFC
1FFFF02FFFF60CFFFFFFFD
1FFFF02FFFF60ADDDEFFFD
1FFFF02FFFF6000008FFFD
1FFFF02FFFF603444AFFFD
1FFFF02FFFF60BFFFFFFFD
1FFFF02FFFF60BFFFFFFFD
1FFFF02FFFF60BFFFFFFFD
1FFFF11FFFF40BFFFFFFFD
1FFFF3012310023333CFFD
1FFFFD310002400000BFFD
1FFFFFFFFFFFFFFFFFFFFD
1FFFFFFFFFFFFFFFFFFFFD
0EFFFFFFFFFFFFFFFFFFFB
0AFFFFFFFFFFFFFFFFFFF7
03FFFFFFFFFFFFFFFFFFE1
007FFFFFFFFFFFFFFFFF40
0006EFFFFFFFFFFFFFD400
000017BEFFFFFFFDA60000
ENDCHAR
STARTCHAR Racute
ENCODING 340
SWIDTH 578 0
DWIDTH 21 0
BBX 22 35 -1 0
BITMAP
0000000000000100000000
00000000008DFFEB500000
0000000009FFFFFFFA0000
000000001FFFFFFFFF5000
000000006FFF609FFF7000
00000000BFFF11EFFF5000
00000001FFFC07FFFD0000
00000004FFF70EFFF50000
00000008FFF36FFFB00000
0000000AFFE3DFFF300000
00000008FFFFFFF9000000
000028CFFFFFFFFFB71000
0007FFF89FFFFFEDFFE500
008FFFF100000002EFFF50
03FFFFF11AAAA9307FFFE1
0AFFFFF11FFFFFC05FFFF7
0EFFFFF11FFFFFD04FFFFC
1FFFFFF11FFFFFD04FFFFD
1FFFFFF11FFFFF908FFFFD
1FFFFFF104444417EFFFFD
1FFFFFF100000039EFFFFD
1FFFFFF11CCCCB508FFFFD
1FFFFFF11FFFFFE03FFFFD
1FFFFFF11FFFFFF02FFFFD
1FFFFFF11FFFFFF02FFFFD
1FFFFFF11FFFFFF02FFFFD
1FFFFFF11FFFFFF02FFFFD
1FFFFFFFFFFFFFFFFFFFFD
1FFFFFFFFFFFFFFFFFFFFD
0EFFFFFFFFFFFFFFFFFFFB
0AFFFFFFFFFFFFFFFFFFF7
03FFFFFFFFFFFFFFFFFFE1
007FFFFFFFFFFFFFFFFF40
0006EFFFFFFFFFFFFFD400
000017BEFFFFFFFDA60000
ENDCHAR
STARTCHAR racute
ENCODING 341
SWIDTH 578 0
DWIDTH 21 0
BBX 22 35 -1 0
BITMAP
0000000000000100000000
00000000008DFFEB500000
0000000009FFFFFFFA0000
000000001FFFFFFFFF5000
000000006FFF609FFF7000
00000000BFFF11EFFF5000
00000001FFFC07FFFD0000
00000004FFF70EFFF50000
00000008FFF36FFFB00000
0000000AFFE3DFFF300000
00000008FFFFFFF9000000
000028CFFFFFFFFFB71000
0007FFF89FFFFFEDFFE500
008FFFF100000002EFFF50
03FFFFF11AAAA9307FFFE1
0AFFFFF11FFFFFC05FFFF7
0EFFFFF11FFFFFD04FFFFC
1FFFFFF11FFFFFD04FFFFD
1FFFFFF11FFFFF908FFFFD
1FFFFFF104444417EFFFFD
1FFFFFF100000039EFFFFD
1FFFFFF11CCCCB508FFFFD
1FFFFFF11FFFFFE03FFFFD
1FFFFFF11FFFFFF02FFFFD
1FFFFFF11FFFFFF02FFFFD
1FFFFFF11FFFFFF02FFFFD
1FFFFFF11FFFFFF02FFFFD
1FFFFFFFFFFFFFFFFFFFFD
1FFFFFFFFFFFFFFFFFFFFD
0EFFFFFFFFFFFFFFFFFFFB
0AFFFFFFFFFFFFFFFFFFF7
03FFFFFFFFFFFFFFFFFFE1
007FFFFFFFFFFFFFFFFF40
0006EFFFFFFFFFFFFFD400
000017BEFFFFFFFDA60000
ENDCHAR
STARTCHAR Rcommaaccent
ENCODING 342
SWIDTH 578 0
DWIDTH 21 0
BBX 22 25 -1 0
BITMAP
0000000011111110000000
000028CFFFFFFFFFB71000
0007FFF88888889DFFE500
008FFFF100000002EFFF50
03FFFFF11AAAA9307FFFE1
0AFFFFF11FFFFFC05FFFF7
0EFFFFF11FFFFFD04FFFFC
1FFFFFF11FFFFFD04FFFFD
1FFFFFF11FFFFF908FFFFD
1FFFFFF104444417EFFFFD
1FFFFFF100000039EFFFFD
1FFFFFF11CCCCB508FFFFD
1FFFFFF11FFFFFE03FFFFD
1FFFFFF11FFFFFF02FFFFD
1FFFFFF11FFFFFF02FFFFD
1FFFFFF11FFFFFF02FFFFD
1FFFFFF11FFFFFF02FFFFD
1FFFFFFFFFFFFFFFFFFFFD
1FFFFFFFFFF768FFFFFFFD
0EFFFFFFFFF203FFFFFFFB
0AFFFFFFFFF714FFFFFFF7
03FFFFFFFFFE09FFFFFFE1
007FFFFFFFFC4FFFFFFF40
0006EFFFFFFFFFFFFFD400
000017BEFFFFFFFDA60000
ENDCHAR
ENDFONT
